%TF.GenerationSoftware,KiCad,Pcbnew,8.0.7-8.0.7-0~ubuntu22.04.1*%
%TF.CreationDate,2024-12-28T20:57:26+00:00*%
%TF.ProjectId,power-board,706f7765-722d-4626-9f61-72642e6b6963,1.0.0*%
%TF.SameCoordinates,Original*%
%TF.FileFunction,Copper,L2,Bot*%
%TF.FilePolarity,Positive*%
%FSLAX46Y46*%
G04 Gerber Fmt 4.6, Leading zero omitted, Abs format (unit mm)*
G04 Created by KiCad (PCBNEW 8.0.7-8.0.7-0~ubuntu22.04.1) date 2024-12-28 20:57:26*
%MOMM*%
%LPD*%
G01*
G04 APERTURE LIST*
G04 Aperture macros list*
%AMRoundRect*
0 Rectangle with rounded corners*
0 $1 Rounding radius*
0 $2 $3 $4 $5 $6 $7 $8 $9 X,Y pos of 4 corners*
0 Add a 4 corners polygon primitive as box body*
4,1,4,$2,$3,$4,$5,$6,$7,$8,$9,$2,$3,0*
0 Add four circle primitives for the rounded corners*
1,1,$1+$1,$2,$3*
1,1,$1+$1,$4,$5*
1,1,$1+$1,$6,$7*
1,1,$1+$1,$8,$9*
0 Add four rect primitives between the rounded corners*
20,1,$1+$1,$2,$3,$4,$5,0*
20,1,$1+$1,$4,$5,$6,$7,0*
20,1,$1+$1,$6,$7,$8,$9,0*
20,1,$1+$1,$8,$9,$2,$3,0*%
G04 Aperture macros list end*
%TA.AperFunction,ComponentPad*%
%ADD10C,2.400000*%
%TD*%
%TA.AperFunction,ComponentPad*%
%ADD11O,2.400000X2.400000*%
%TD*%
%TA.AperFunction,ComponentPad*%
%ADD12R,4.000000X4.000000*%
%TD*%
%TA.AperFunction,ComponentPad*%
%ADD13C,4.000000*%
%TD*%
%TA.AperFunction,ComponentPad*%
%ADD14C,3.000000*%
%TD*%
%TA.AperFunction,ComponentPad*%
%ADD15RoundRect,0.250000X-0.600000X-0.725000X0.600000X-0.725000X0.600000X0.725000X-0.600000X0.725000X0*%
%TD*%
%TA.AperFunction,ComponentPad*%
%ADD16O,1.700000X1.950000*%
%TD*%
%TA.AperFunction,ComponentPad*%
%ADD17R,3.800000X3.800000*%
%TD*%
%TA.AperFunction,ComponentPad*%
%ADD18RoundRect,0.250001X-1.099999X-1.099999X1.099999X-1.099999X1.099999X1.099999X-1.099999X1.099999X0*%
%TD*%
%TA.AperFunction,ComponentPad*%
%ADD19C,2.700000*%
%TD*%
%TA.AperFunction,SMDPad,CuDef*%
%ADD20RoundRect,0.250000X1.000000X0.650000X-1.000000X0.650000X-1.000000X-0.650000X1.000000X-0.650000X0*%
%TD*%
%TA.AperFunction,ComponentPad*%
%ADD21R,1.905000X2.000000*%
%TD*%
%TA.AperFunction,ComponentPad*%
%ADD22O,1.905000X2.000000*%
%TD*%
%TA.AperFunction,ComponentPad*%
%ADD23R,1.800000X1.800000*%
%TD*%
%TA.AperFunction,ComponentPad*%
%ADD24O,1.800000X1.800000*%
%TD*%
%TA.AperFunction,SMDPad,CuDef*%
%ADD25RoundRect,0.250000X0.650000X-1.000000X0.650000X1.000000X-0.650000X1.000000X-0.650000X-1.000000X0*%
%TD*%
%TA.AperFunction,ComponentPad*%
%ADD26R,2.500000X4.500000*%
%TD*%
%TA.AperFunction,ComponentPad*%
%ADD27O,2.500000X4.500000*%
%TD*%
%TA.AperFunction,Conductor*%
%ADD28C,3.000000*%
%TD*%
%TA.AperFunction,Conductor*%
%ADD29C,1.000000*%
%TD*%
G04 APERTURE END LIST*
D10*
%TO.P,R40,1*%
%TO.N,/Series pass transistors/pwr_e1*%
X112080000Y-90500000D03*
D11*
%TO.P,R40,2*%
%TO.N,/Series pass transistors/emitter*%
X127320000Y-90500000D03*
%TD*%
D12*
%TO.P,C31,1*%
%TO.N,/Rectifier/+DC*%
X137842169Y-40300000D03*
D13*
%TO.P,C31,2*%
%TO.N,/Rectifier/-DC*%
X147842169Y-40300000D03*
%TD*%
D14*
%TO.P,K20,11*%
%TO.N,/Rectifier/AC2*%
X80050000Y-38500000D03*
%TO.P,K20,12*%
%TO.N,Net-(K20-Pad12)*%
X65850000Y-44500000D03*
%TO.P,K20,14*%
%TO.N,/Tab selector/30V_AC*%
X65850000Y-32500000D03*
%TO.P,K20,A1*%
%TO.N,/Tab selector/relay_2*%
X78050000Y-32500000D03*
%TO.P,K20,A2*%
%TO.N,/Tab selector/relay_VCC*%
X78050000Y-44500000D03*
%TD*%
%TO.P,K21,11*%
%TO.N,Net-(K20-Pad12)*%
X70000000Y-52000000D03*
%TO.P,K21,12*%
%TO.N,/Tab selector/10V_AC*%
X76000000Y-66200000D03*
%TO.P,K21,14*%
%TO.N,/Tab selector/20V_AC*%
X64000000Y-66200000D03*
%TO.P,K21,A1*%
%TO.N,/Tab selector/relay_1*%
X64000000Y-54000000D03*
%TO.P,K21,A2*%
%TO.N,/Tab selector/relay_VCC*%
X76000000Y-54000000D03*
%TD*%
D15*
%TO.P,J10,1,Pin_1*%
%TO.N,/Tab selector/relay_1*%
X84300000Y-84300000D03*
D16*
%TO.P,J10,2,Pin_2*%
%TO.N,/Tab selector/relay_2*%
X86800000Y-84300000D03*
%TO.P,J10,3,Pin_3*%
%TO.N,/Tab selector/relay_VCC*%
X89300000Y-84300000D03*
%TO.P,J10,4,Pin_4*%
%TO.N,/Series pass transistors/base*%
X91800000Y-84300000D03*
%TD*%
D17*
%TO.P,J12,1,Pin_1*%
%TO.N,/Rectifier/-DC*%
X143500000Y-82500000D03*
D13*
%TO.P,J12,2,Pin_2*%
%TO.N,/Series pass transistors/emitter*%
X138500000Y-82500000D03*
%TD*%
D12*
%TO.P,C30,1*%
%TO.N,/Rectifier/+DC*%
X138000000Y-63500000D03*
D13*
%TO.P,C30,2*%
%TO.N,/Rectifier/-DC*%
X148000000Y-63500000D03*
%TD*%
D10*
%TO.P,R41,1*%
%TO.N,/Series pass transistors/pwr_e2*%
X112080000Y-82500000D03*
D11*
%TO.P,R41,2*%
%TO.N,/Series pass transistors/emitter*%
X127320000Y-82500000D03*
%TD*%
D18*
%TO.P,J11,1,Pin_1*%
%TO.N,/Tab selector/30V_AC*%
X60382500Y-82850000D03*
D19*
%TO.P,J11,2,Pin_2*%
%TO.N,/Tab selector/20V_AC*%
X64342500Y-82850000D03*
%TO.P,J11,3,Pin_3*%
%TO.N,/Tab selector/10V_AC*%
X68302500Y-82850000D03*
%TO.P,J11,4,Pin_4*%
%TO.N,/Rectifier/AC1*%
X72262500Y-82850000D03*
%TD*%
D20*
%TO.P,D21,1,K*%
%TO.N,/Tab selector/relay_VCC*%
X72000000Y-57000000D03*
%TO.P,D21,2,A*%
%TO.N,/Tab selector/relay_1*%
X68000000Y-57000000D03*
%TD*%
D21*
%TO.P,D30,1,K*%
%TO.N,/Rectifier/AC1*%
X99000000Y-45500000D03*
D22*
%TO.P,D30,2,A*%
%TO.N,/Rectifier/+DC*%
X101540000Y-45500000D03*
%TO.P,D30,3,K*%
%TO.N,/Rectifier/AC1*%
X104080000Y-45500000D03*
%TD*%
D21*
%TO.P,D32,1,K*%
%TO.N,/Rectifier/AC2*%
X88000000Y-45500000D03*
D22*
%TO.P,D32,2,A*%
%TO.N,/Rectifier/+DC*%
X90540000Y-45500000D03*
%TO.P,D32,3,K*%
%TO.N,/Rectifier/AC2*%
X93080000Y-45500000D03*
%TD*%
D23*
%TO.P,Q43,1,E*%
%TO.N,/Series pass transistors/pwr_eb2*%
X104500000Y-74500000D03*
D24*
%TO.P,Q43,2,C*%
%TO.N,/Rectifier/+DC*%
X107040000Y-74500000D03*
%TO.P,Q43,3,B*%
%TO.N,/Series pass transistors/base*%
X109580000Y-74500000D03*
%TD*%
D25*
%TO.P,D20,1,K*%
%TO.N,/Tab selector/relay_VCC*%
X75500000Y-40500000D03*
%TO.P,D20,2,A*%
%TO.N,/Tab selector/relay_2*%
X75500000Y-36500000D03*
%TD*%
D26*
%TO.P,Q42,1,B*%
%TO.N,/Series pass transistors/pwr_eb2*%
X114200000Y-75500000D03*
D27*
%TO.P,Q42,2,C*%
%TO.N,/Rectifier/+DC*%
X119650000Y-75500000D03*
%TO.P,Q42,3,E*%
%TO.N,/Series pass transistors/pwr_e2*%
X125100000Y-75500000D03*
%TD*%
D21*
%TO.P,D31,1,K*%
%TO.N,/Rectifier/-DC*%
X110000000Y-45500000D03*
D22*
%TO.P,D31,2,A*%
%TO.N,/Rectifier/AC1*%
X112540000Y-45500000D03*
%TO.P,D31,3,K*%
%TO.N,/Rectifier/-DC*%
X115080000Y-45500000D03*
%TD*%
D26*
%TO.P,Q40,1,B*%
%TO.N,/Series pass transistors/pwr_eb1*%
X88900000Y-75500000D03*
D27*
%TO.P,Q40,2,C*%
%TO.N,/Rectifier/+DC*%
X94350000Y-75500000D03*
%TO.P,Q40,3,E*%
%TO.N,/Series pass transistors/pwr_e1*%
X99800000Y-75500000D03*
%TD*%
D21*
%TO.P,D33,1,K*%
%TO.N,/Rectifier/-DC*%
X121000000Y-45500000D03*
D22*
%TO.P,D33,2,A*%
%TO.N,/Rectifier/AC2*%
X123540000Y-45500000D03*
%TO.P,D33,3,K*%
%TO.N,/Rectifier/-DC*%
X126080000Y-45500000D03*
%TD*%
D23*
%TO.P,Q41,1,E*%
%TO.N,/Series pass transistors/pwr_eb1*%
X79250000Y-74500000D03*
D24*
%TO.P,Q41,2,C*%
%TO.N,/Rectifier/+DC*%
X81790000Y-74500000D03*
%TO.P,Q41,3,B*%
%TO.N,/Series pass transistors/base*%
X84330000Y-74500000D03*
%TD*%
D28*
%TO.N,/Rectifier/AC1*%
X82300000Y-70200000D02*
X87900000Y-64600000D01*
X87900000Y-52400000D02*
X90450000Y-49850000D01*
X74700000Y-70200000D02*
X82300000Y-70200000D01*
X72262500Y-82850000D02*
X72262500Y-72637500D01*
X90450000Y-49850000D02*
X100800000Y-49850000D01*
X87900000Y-64600000D02*
X87900000Y-52400000D01*
X72262500Y-72637500D02*
X74700000Y-70200000D01*
D29*
%TO.N,/Tab selector/relay_VCC*%
X75500000Y-40500000D02*
X75500000Y-42400000D01*
X75500000Y-42400000D02*
X77600000Y-44500000D01*
X76000000Y-54750000D02*
X76000000Y-54000000D01*
X72000000Y-57000000D02*
X73750000Y-57000000D01*
X73750000Y-57000000D02*
X76000000Y-54750000D01*
X77600000Y-44500000D02*
X78050000Y-44500000D01*
%TO.N,/Tab selector/relay_2*%
X77600000Y-32500000D02*
X78050000Y-32500000D01*
X75500000Y-36500000D02*
X75500000Y-34600000D01*
X75500000Y-34600000D02*
X77600000Y-32500000D01*
%TO.N,/Tab selector/relay_1*%
X64000000Y-54700000D02*
X64000000Y-54000000D01*
X66300000Y-57000000D02*
X64000000Y-54700000D01*
X68000000Y-57000000D02*
X66300000Y-57000000D01*
D28*
%TO.N,/Tab selector/10V_AC*%
X68302500Y-69797500D02*
X68302500Y-82850000D01*
X76000000Y-66200000D02*
X71900000Y-66200000D01*
X71900000Y-66200000D02*
X68302500Y-69797500D01*
%TO.N,/Tab selector/20V_AC*%
X64342500Y-66542500D02*
X64000000Y-66200000D01*
X64342500Y-82850000D02*
X64342500Y-66542500D01*
%TO.N,/Tab selector/30V_AC*%
X63700000Y-32500000D02*
X59200000Y-37000000D01*
X59200000Y-78800000D02*
X60382500Y-79982500D01*
X60382500Y-79982500D02*
X60382500Y-82850000D01*
X59200000Y-37000000D02*
X59200000Y-78800000D01*
X65850000Y-32500000D02*
X63700000Y-32500000D01*
%TO.N,Net-(K20-Pad12)*%
X70000000Y-48650000D02*
X65850000Y-44500000D01*
X70000000Y-52000000D02*
X70000000Y-48650000D01*
D29*
%TO.N,/Series pass transistors/base*%
X91600000Y-70600000D02*
X107200000Y-70600000D01*
X91800000Y-70800000D02*
X91600000Y-70600000D01*
X91800000Y-84300000D02*
X91800000Y-70800000D01*
X109580000Y-72980000D02*
X109580000Y-74500000D01*
X84330000Y-74500000D02*
X84330000Y-73170000D01*
X107200000Y-70600000D02*
X109580000Y-72980000D01*
X84330000Y-73170000D02*
X86900000Y-70600000D01*
X86900000Y-70600000D02*
X91600000Y-70600000D01*
D28*
%TO.N,/Series pass transistors/pwr_e1*%
X108800000Y-90500000D02*
X112080000Y-90500000D01*
X99800000Y-75500000D02*
X99800000Y-78300000D01*
X107400000Y-82900000D02*
X107400000Y-89100000D01*
X105700000Y-81200000D02*
X107400000Y-82900000D01*
X107400000Y-89100000D02*
X108800000Y-90500000D01*
X102700000Y-81200000D02*
X105700000Y-81200000D01*
X99800000Y-78300000D02*
X102700000Y-81200000D01*
D29*
%TO.N,/Series pass transistors/pwr_eb1*%
X80250000Y-77000000D02*
X85250000Y-77000000D01*
X86750000Y-75500000D02*
X88900000Y-75500000D01*
X85250000Y-77000000D02*
X86750000Y-75500000D01*
X79250000Y-76000000D02*
X80250000Y-77000000D01*
X79250000Y-74500000D02*
X79250000Y-76000000D01*
D28*
%TO.N,/Series pass transistors/pwr_e2*%
X125100000Y-75500000D02*
X125100000Y-77700000D01*
X120300000Y-82500000D02*
X112080000Y-82500000D01*
X125100000Y-77700000D02*
X120300000Y-82500000D01*
D29*
%TO.N,/Series pass transistors/pwr_eb2*%
X104500000Y-76000000D02*
X105500000Y-77000000D01*
X105500000Y-77000000D02*
X110500000Y-77000000D01*
X104500000Y-74500000D02*
X104500000Y-76000000D01*
X110500000Y-77000000D02*
X112000000Y-75500000D01*
X112000000Y-75500000D02*
X114200000Y-75500000D01*
%TD*%
%TA.AperFunction,Conductor*%
%TO.N,/Tab selector/relay_VCC*%
G36*
X75506662Y-40509306D02*
G01*
X75509261Y-40511689D01*
X76376024Y-41589521D01*
X76378538Y-41598116D01*
X76377120Y-41602560D01*
X76031121Y-42221807D01*
X76029180Y-42224373D01*
X75334650Y-42918903D01*
X75326377Y-42922330D01*
X75318104Y-42918903D01*
X75315935Y-42915908D01*
X74701113Y-41699459D01*
X74700439Y-41690529D01*
X74701836Y-41687668D01*
X75490430Y-40512500D01*
X75497883Y-40507541D01*
X75506662Y-40509306D01*
G37*
%TD.AperFunction*%
%TD*%
%TA.AperFunction,Conductor*%
%TO.N,/Series pass transistors/base*%
G36*
X109738831Y-72441734D02*
G01*
X109741630Y-72446227D01*
X110232629Y-73884389D01*
X110232059Y-73893325D01*
X110229529Y-73896733D01*
X109586935Y-74494909D01*
X109578544Y-74498038D01*
X109573272Y-74496568D01*
X108813799Y-74073770D01*
X108808237Y-74066751D01*
X108808108Y-74060837D01*
X109027690Y-73138781D01*
X109030796Y-73133223D01*
X109722286Y-72441733D01*
X109730558Y-72438307D01*
X109738831Y-72441734D01*
G37*
%TD.AperFunction*%
%TD*%
%TA.AperFunction,Conductor*%
%TO.N,/Series pass transistors/base*%
G36*
X84317341Y-72493844D02*
G01*
X84321005Y-72496325D01*
X85013087Y-73188407D01*
X85016413Y-73195142D01*
X85138214Y-74113927D01*
X85135904Y-74122579D01*
X85131565Y-74126066D01*
X84337084Y-74497068D01*
X84328138Y-74497464D01*
X84323494Y-74494357D01*
X83732145Y-73846813D01*
X83729098Y-73838395D01*
X83730030Y-73834320D01*
X84301980Y-72499986D01*
X84308387Y-72493735D01*
X84317341Y-72493844D01*
G37*
%TD.AperFunction*%
%TD*%
%TA.AperFunction,Conductor*%
%TO.N,/Series pass transistors/pwr_eb2*%
G36*
X112955798Y-74523876D02*
G01*
X113786270Y-75174571D01*
X114189187Y-75490267D01*
X114193586Y-75498067D01*
X114191181Y-75506693D01*
X114189367Y-75508543D01*
X112958185Y-76512915D01*
X112949608Y-76515489D01*
X112942523Y-76512129D01*
X112318198Y-75888908D01*
X111622621Y-75193331D01*
X111619194Y-75185058D01*
X111622621Y-75176785D01*
X111625701Y-75174573D01*
X112943397Y-74522599D01*
X112952330Y-74522003D01*
X112955798Y-74523876D01*
G37*
%TD.AperFunction*%
%TD*%
%TA.AperFunction,Conductor*%
%TO.N,/Series pass transistors/pwr_eb1*%
G36*
X79257566Y-74507598D02*
G01*
X79258097Y-74508097D01*
X80142922Y-75392922D01*
X80146349Y-75401195D01*
X80144103Y-75408087D01*
X79816223Y-75857840D01*
X79815042Y-75859221D01*
X79119497Y-76554766D01*
X79111224Y-76558193D01*
X79102951Y-76554766D01*
X79101021Y-76552220D01*
X78712049Y-75859221D01*
X78458357Y-75407240D01*
X78457297Y-75398350D01*
X78459787Y-75393776D01*
X79241054Y-74508626D01*
X79249096Y-74504693D01*
X79257566Y-74507598D01*
G37*
%TD.AperFunction*%
%TD*%
%TA.AperFunction,Conductor*%
%TO.N,/Rectifier/AC1*%
G36*
X99893039Y-45519685D02*
G01*
X99938794Y-45572489D01*
X99950000Y-45624000D01*
X99950000Y-48350000D01*
X103150000Y-48350000D01*
X103150000Y-45624000D01*
X103169685Y-45556961D01*
X103222489Y-45511206D01*
X103274000Y-45500000D01*
X104876000Y-45500000D01*
X104943039Y-45519685D01*
X104988794Y-45572489D01*
X105000000Y-45624000D01*
X105000000Y-48350000D01*
X110650000Y-48350000D01*
X111600000Y-47400000D01*
X111600000Y-45624000D01*
X111619685Y-45556961D01*
X111672489Y-45511206D01*
X111724000Y-45500000D01*
X113376000Y-45500000D01*
X113443039Y-45519685D01*
X113488794Y-45572489D01*
X113500000Y-45624000D01*
X113500000Y-48994137D01*
X113480315Y-49061176D01*
X113458159Y-49087013D01*
X110935184Y-51318876D01*
X110871929Y-51348550D01*
X110853025Y-51350000D01*
X98224000Y-51350000D01*
X98156961Y-51330315D01*
X98111206Y-51277511D01*
X98100000Y-51226000D01*
X98100000Y-45624000D01*
X98119685Y-45556961D01*
X98172489Y-45511206D01*
X98224000Y-45500000D01*
X99826000Y-45500000D01*
X99893039Y-45519685D01*
G37*
%TD.AperFunction*%
%TD*%
%TA.AperFunction,Conductor*%
%TO.N,/Tab selector/relay_1*%
G36*
X66907064Y-56121675D02*
G01*
X66909486Y-56123177D01*
X67987402Y-56990008D01*
X67991702Y-56997863D01*
X67989188Y-57006458D01*
X67985927Y-57009254D01*
X66769171Y-57712940D01*
X66760294Y-57714116D01*
X66757294Y-57712844D01*
X65641097Y-57043064D01*
X65635766Y-57035869D01*
X65637085Y-57027012D01*
X65638840Y-57024763D01*
X66333537Y-56330066D01*
X66337766Y-56327362D01*
X66898117Y-56121314D01*
X66907064Y-56121675D01*
G37*
%TD.AperFunction*%
%TD*%
%TA.AperFunction,Conductor*%
%TO.N,/Series pass transistors/pwr_eb2*%
G36*
X104507566Y-74507598D02*
G01*
X104508097Y-74508097D01*
X105392922Y-75392922D01*
X105396349Y-75401195D01*
X105394103Y-75408087D01*
X105066223Y-75857840D01*
X105065042Y-75859221D01*
X104369497Y-76554766D01*
X104361224Y-76558193D01*
X104352951Y-76554766D01*
X104351021Y-76552220D01*
X103962049Y-75859221D01*
X103708357Y-75407240D01*
X103707297Y-75398350D01*
X103709787Y-75393776D01*
X104491054Y-74508626D01*
X104499096Y-74504693D01*
X104507566Y-74507598D01*
G37*
%TD.AperFunction*%
%TD*%
%TA.AperFunction,Conductor*%
%TO.N,/Series pass transistors/emitter*%
G36*
X138443039Y-80519685D02*
G01*
X138488794Y-80572489D01*
X138500000Y-80624000D01*
X138500000Y-84376000D01*
X138480315Y-84443039D01*
X138427511Y-84488794D01*
X138376000Y-84500000D01*
X131999999Y-84500000D01*
X128500000Y-87999999D01*
X128500000Y-90498638D01*
X128480315Y-90565677D01*
X128463681Y-90586319D01*
X127434103Y-91615896D01*
X127372780Y-91649381D01*
X127303088Y-91644397D01*
X127262467Y-91619470D01*
X126140382Y-90587151D01*
X126104374Y-90527277D01*
X126100340Y-90495134D01*
X126149693Y-82549374D01*
X126169794Y-82482460D01*
X126184161Y-82464353D01*
X127263388Y-81338204D01*
X127323985Y-81303422D01*
X127352915Y-81300000D01*
X130199999Y-81300000D01*
X130200000Y-81300000D01*
X130918250Y-80624000D01*
X131014191Y-80533703D01*
X131076500Y-80502091D01*
X131099176Y-80500000D01*
X138376000Y-80500000D01*
X138443039Y-80519685D01*
G37*
%TD.AperFunction*%
%TD*%
%TA.AperFunction,Conductor*%
%TO.N,/Rectifier/AC2*%
G36*
X119716825Y-37019685D02*
G01*
X119736065Y-37034938D01*
X124462279Y-41613458D01*
X124496733Y-41674241D01*
X124500000Y-41702519D01*
X124500000Y-45376000D01*
X124480315Y-45443039D01*
X124427511Y-45488794D01*
X124376000Y-45500000D01*
X122724000Y-45500000D01*
X122656961Y-45480315D01*
X122611206Y-45427511D01*
X122600000Y-45376000D01*
X122600000Y-43650000D01*
X118900000Y-40000000D01*
X96950000Y-40000000D01*
X96949999Y-40000000D01*
X94000000Y-42900000D01*
X94000000Y-45376000D01*
X93980315Y-45443039D01*
X93927511Y-45488794D01*
X93876000Y-45500000D01*
X92274000Y-45500000D01*
X92206961Y-45480315D01*
X92161206Y-45427511D01*
X92150000Y-45376000D01*
X92150000Y-43850000D01*
X92149999Y-43849999D01*
X91450000Y-43200000D01*
X89650000Y-43200000D01*
X88950000Y-43849999D01*
X88950000Y-45376000D01*
X88930315Y-45443039D01*
X88877511Y-45488794D01*
X88826000Y-45500000D01*
X87174000Y-45500000D01*
X87106961Y-45480315D01*
X87061206Y-45427511D01*
X87050000Y-45376000D01*
X87050000Y-42100000D01*
X86535714Y-41650000D01*
X84650000Y-40000000D01*
X84649998Y-40000000D01*
X80124000Y-40000000D01*
X80056961Y-39980315D01*
X80011206Y-39927511D01*
X80000000Y-39876000D01*
X80000000Y-37124000D01*
X80019685Y-37056961D01*
X80072489Y-37011206D01*
X80124000Y-37000000D01*
X119649786Y-37000000D01*
X119716825Y-37019685D01*
G37*
%TD.AperFunction*%
%TD*%
%TA.AperFunction,Conductor*%
%TO.N,/Tab selector/relay_VCC*%
G36*
X75997181Y-54003820D02*
G01*
X76002686Y-54010883D01*
X76002932Y-54011975D01*
X76255708Y-55452417D01*
X76253763Y-55461158D01*
X76251418Y-55463634D01*
X75049940Y-56408906D01*
X75041319Y-56411329D01*
X75034433Y-56407984D01*
X74338965Y-55712516D01*
X74335538Y-55704243D01*
X74335711Y-55702239D01*
X74561496Y-54403589D01*
X74566289Y-54396027D01*
X74569904Y-54394319D01*
X75988296Y-54002719D01*
X75997181Y-54003820D01*
G37*
%TD.AperFunction*%
%TD*%
%TA.AperFunction,Conductor*%
%TO.N,/Rectifier/-DC*%
G36*
X149913589Y-37419685D02*
G01*
X149936700Y-37438859D01*
X151566150Y-39164159D01*
X151597870Y-39226412D01*
X151600000Y-39249299D01*
X151600000Y-80453537D01*
X151580315Y-80520576D01*
X151569468Y-80535022D01*
X148237064Y-84357485D01*
X148178172Y-84395082D01*
X148143596Y-84400000D01*
X141724000Y-84400000D01*
X141656961Y-84380315D01*
X141611206Y-84327511D01*
X141600000Y-84276000D01*
X141600000Y-80648591D01*
X141619685Y-80581552D01*
X141633009Y-80564349D01*
X144100000Y-77900000D01*
X144100000Y-57050000D01*
X141300000Y-54300000D01*
X125204233Y-54300000D01*
X125137194Y-54280315D01*
X125113183Y-54260178D01*
X122700000Y-51650000D01*
X122699999Y-51650000D01*
X118149963Y-51650000D01*
X118082924Y-51630315D01*
X118063995Y-51615362D01*
X114188032Y-47886587D01*
X114153367Y-47825923D01*
X114150000Y-47797225D01*
X114150000Y-43900000D01*
X113650000Y-43400000D01*
X111450000Y-43400000D01*
X111449999Y-43400000D01*
X110950000Y-43899999D01*
X110950000Y-45376000D01*
X110930315Y-45443039D01*
X110877511Y-45488794D01*
X110826000Y-45500000D01*
X109174000Y-45500000D01*
X109106961Y-45480315D01*
X109061206Y-45427511D01*
X109050000Y-45376000D01*
X109050000Y-43151362D01*
X109069685Y-43084323D01*
X109086319Y-43063681D01*
X110563681Y-41586319D01*
X110625004Y-41552834D01*
X110651362Y-41550000D01*
X114399786Y-41550000D01*
X114466825Y-41569685D01*
X114486065Y-41584938D01*
X116012279Y-43063458D01*
X116046733Y-43124241D01*
X116050000Y-43152519D01*
X116050000Y-46150000D01*
X117999997Y-47999998D01*
X117999998Y-47999998D01*
X118000000Y-48000000D01*
X119250000Y-48000000D01*
X120050000Y-47200000D01*
X120050000Y-45474000D01*
X120069685Y-45406961D01*
X120122489Y-45361206D01*
X120174000Y-45350000D01*
X121826000Y-45350000D01*
X121893039Y-45369685D01*
X121938794Y-45422489D01*
X121950000Y-45474000D01*
X121950000Y-47200000D01*
X122750000Y-48000000D01*
X124350000Y-48000000D01*
X125150000Y-47200000D01*
X125150000Y-45574000D01*
X125169685Y-45506961D01*
X125222489Y-45461206D01*
X125274000Y-45450000D01*
X126926000Y-45450000D01*
X126993039Y-45469685D01*
X127038794Y-45522489D01*
X127050000Y-45574000D01*
X127050000Y-47200000D01*
X127800000Y-48000000D01*
X141250000Y-48000000D01*
X144100000Y-45200000D01*
X144100000Y-39249299D01*
X144119685Y-39182260D01*
X144133846Y-39164162D01*
X145763300Y-37438859D01*
X145823642Y-37403636D01*
X145853450Y-37400000D01*
X149846550Y-37400000D01*
X149913589Y-37419685D01*
G37*
%TD.AperFunction*%
%TD*%
%TA.AperFunction,Conductor*%
%TO.N,/Tab selector/relay_VCC*%
G36*
X76449727Y-42637936D02*
G01*
X77787172Y-43038460D01*
X77794113Y-43044116D01*
X77795337Y-43047643D01*
X78048485Y-44488065D01*
X78046542Y-44496806D01*
X78038987Y-44501613D01*
X78037914Y-44501751D01*
X76576209Y-44621047D01*
X76567684Y-44618305D01*
X76565455Y-44615775D01*
X75741116Y-43350991D01*
X75739470Y-43342188D01*
X75742643Y-43336331D01*
X76438103Y-42640871D01*
X76446375Y-42637445D01*
X76449727Y-42637936D01*
G37*
%TD.AperFunction*%
%TD*%
%TA.AperFunction,Conductor*%
%TO.N,/Tab selector/relay_VCC*%
G36*
X73102092Y-56121721D02*
G01*
X73677168Y-56362714D01*
X73680918Y-56365232D01*
X74375618Y-57059932D01*
X74379045Y-57068205D01*
X74375618Y-57076478D01*
X74373199Y-57078335D01*
X73238558Y-57734005D01*
X73229680Y-57735178D01*
X73226704Y-57733919D01*
X72013729Y-57009330D01*
X72008384Y-57002146D01*
X72009685Y-56993286D01*
X72012393Y-56990171D01*
X73090243Y-56123394D01*
X73098837Y-56120881D01*
X73102092Y-56121721D01*
G37*
%TD.AperFunction*%
%TD*%
%TA.AperFunction,Conductor*%
%TO.N,/Tab selector/relay_1*%
G36*
X64011726Y-54002503D02*
G01*
X65434000Y-54369742D01*
X65441153Y-54375128D01*
X65442558Y-54378831D01*
X65697260Y-55685235D01*
X65695479Y-55694011D01*
X65694049Y-55695747D01*
X64998580Y-56391216D01*
X64990307Y-56394643D01*
X64983210Y-56392245D01*
X63770586Y-55467026D01*
X63766087Y-55459283D01*
X63766129Y-55455880D01*
X63997261Y-54011984D01*
X64001953Y-54004357D01*
X64010663Y-54002281D01*
X64011726Y-54002503D01*
G37*
%TD.AperFunction*%
%TD*%
%TA.AperFunction,Conductor*%
%TO.N,/Series pass transistors/base*%
G36*
X92298866Y-82494760D02*
G01*
X92302020Y-82500521D01*
X92631440Y-83999044D01*
X92629869Y-84007860D01*
X92623879Y-84012599D01*
X91803866Y-84299646D01*
X91796134Y-84299646D01*
X90976120Y-84012599D01*
X90969444Y-84006631D01*
X90968559Y-83999045D01*
X91297980Y-82500520D01*
X91303103Y-82493177D01*
X91309407Y-82491333D01*
X92290593Y-82491333D01*
X92298866Y-82494760D01*
G37*
%TD.AperFunction*%
%TD*%
%TA.AperFunction,Conductor*%
%TO.N,/Tab selector/relay_2*%
G36*
X75331655Y-34078927D02*
G01*
X75334650Y-34081096D01*
X76029180Y-34775626D01*
X76031121Y-34778192D01*
X76377120Y-35397439D01*
X76378164Y-35406333D01*
X76376024Y-35410478D01*
X75509261Y-36488310D01*
X75501406Y-36492610D01*
X75492811Y-36490096D01*
X75490428Y-36487497D01*
X74767698Y-35410478D01*
X74701839Y-35312334D01*
X74700075Y-35303557D01*
X74701111Y-35300542D01*
X75315935Y-34084090D01*
X75322725Y-34078253D01*
X75331655Y-34078927D01*
G37*
%TD.AperFunction*%
%TD*%
%TA.AperFunction,Conductor*%
%TO.N,/Tab selector/relay_2*%
G36*
X78037916Y-32498249D02*
G01*
X78045881Y-32502336D01*
X78048623Y-32510861D01*
X78048485Y-32511934D01*
X77795338Y-33952355D01*
X77790531Y-33959910D01*
X77787172Y-33961538D01*
X76449732Y-34362062D01*
X76440823Y-34361153D01*
X76438102Y-34359127D01*
X75742645Y-33663670D01*
X75739218Y-33655397D01*
X75741116Y-33649008D01*
X76482917Y-32510861D01*
X76565455Y-32384222D01*
X76572843Y-32379164D01*
X76576208Y-32378951D01*
X78037916Y-32498249D01*
G37*
%TD.AperFunction*%
%TD*%
%TA.AperFunction,Conductor*%
%TO.N,/Series pass transistors/pwr_eb1*%
G36*
X87655869Y-74543491D02*
G01*
X88889098Y-75490379D01*
X88893573Y-75498135D01*
X88891253Y-75506784D01*
X88889457Y-75508653D01*
X87658198Y-76533197D01*
X87649646Y-76535854D01*
X87642450Y-76532486D01*
X87032842Y-75924264D01*
X87032846Y-75924259D01*
X87032832Y-75924254D01*
X86337098Y-75228520D01*
X86333671Y-75220247D01*
X86337098Y-75211974D01*
X86340034Y-75209835D01*
X87643413Y-74542357D01*
X87652338Y-74541637D01*
X87655869Y-74543491D01*
G37*
%TD.AperFunction*%
%TD*%
M02*
