%TF.GenerationSoftware,KiCad,Pcbnew,8.0.7-8.0.7-0~ubuntu22.04.1*%
%TF.CreationDate,2024-12-28T20:57:26+00:00*%
%TF.ProjectId,power-board,706f7765-722d-4626-9f61-72642e6b6963,1.0.0*%
%TF.SameCoordinates,Original*%
%TF.FileFunction,Copper,L1,Top*%
%TF.FilePolarity,Positive*%
%FSLAX46Y46*%
G04 Gerber Fmt 4.6, Leading zero omitted, Abs format (unit mm)*
G04 Created by KiCad (PCBNEW 8.0.7-8.0.7-0~ubuntu22.04.1) date 2024-12-28 20:57:26*
%MOMM*%
%LPD*%
G01*
G04 APERTURE LIST*
G04 Aperture macros list*
%AMRoundRect*
0 Rectangle with rounded corners*
0 $1 Rounding radius*
0 $2 $3 $4 $5 $6 $7 $8 $9 X,Y pos of 4 corners*
0 Add a 4 corners polygon primitive as box body*
4,1,4,$2,$3,$4,$5,$6,$7,$8,$9,$2,$3,0*
0 Add four circle primitives for the rounded corners*
1,1,$1+$1,$2,$3*
1,1,$1+$1,$4,$5*
1,1,$1+$1,$6,$7*
1,1,$1+$1,$8,$9*
0 Add four rect primitives between the rounded corners*
20,1,$1+$1,$2,$3,$4,$5,0*
20,1,$1+$1,$4,$5,$6,$7,0*
20,1,$1+$1,$6,$7,$8,$9,0*
20,1,$1+$1,$8,$9,$2,$3,0*%
G04 Aperture macros list end*
%TA.AperFunction,ComponentPad*%
%ADD10C,2.400000*%
%TD*%
%TA.AperFunction,ComponentPad*%
%ADD11O,2.400000X2.400000*%
%TD*%
%TA.AperFunction,ComponentPad*%
%ADD12R,4.000000X4.000000*%
%TD*%
%TA.AperFunction,ComponentPad*%
%ADD13C,4.000000*%
%TD*%
%TA.AperFunction,ComponentPad*%
%ADD14C,3.000000*%
%TD*%
%TA.AperFunction,ComponentPad*%
%ADD15RoundRect,0.250000X-0.600000X-0.725000X0.600000X-0.725000X0.600000X0.725000X-0.600000X0.725000X0*%
%TD*%
%TA.AperFunction,ComponentPad*%
%ADD16O,1.700000X1.950000*%
%TD*%
%TA.AperFunction,ComponentPad*%
%ADD17R,3.800000X3.800000*%
%TD*%
%TA.AperFunction,ComponentPad*%
%ADD18RoundRect,0.250001X-1.099999X-1.099999X1.099999X-1.099999X1.099999X1.099999X-1.099999X1.099999X0*%
%TD*%
%TA.AperFunction,ComponentPad*%
%ADD19C,2.700000*%
%TD*%
%TA.AperFunction,ComponentPad*%
%ADD20R,1.905000X2.000000*%
%TD*%
%TA.AperFunction,ComponentPad*%
%ADD21O,1.905000X2.000000*%
%TD*%
%TA.AperFunction,ComponentPad*%
%ADD22R,1.800000X1.800000*%
%TD*%
%TA.AperFunction,ComponentPad*%
%ADD23O,1.800000X1.800000*%
%TD*%
%TA.AperFunction,ComponentPad*%
%ADD24R,2.500000X4.500000*%
%TD*%
%TA.AperFunction,ComponentPad*%
%ADD25O,2.500000X4.500000*%
%TD*%
%TA.AperFunction,Conductor*%
%ADD26C,1.000000*%
%TD*%
G04 APERTURE END LIST*
D10*
%TO.P,R40,1*%
%TO.N,/Series pass transistors/pwr_e1*%
X112080000Y-90500000D03*
D11*
%TO.P,R40,2*%
%TO.N,/Series pass transistors/emitter*%
X127320000Y-90500000D03*
%TD*%
D12*
%TO.P,C31,1*%
%TO.N,/Rectifier/+DC*%
X137842169Y-40300000D03*
D13*
%TO.P,C31,2*%
%TO.N,/Rectifier/-DC*%
X147842169Y-40300000D03*
%TD*%
D14*
%TO.P,K20,11*%
%TO.N,/Rectifier/AC2*%
X80050000Y-38500000D03*
%TO.P,K20,12*%
%TO.N,Net-(K20-Pad12)*%
X65850000Y-44500000D03*
%TO.P,K20,14*%
%TO.N,/Tab selector/30V_AC*%
X65850000Y-32500000D03*
%TO.P,K20,A1*%
%TO.N,/Tab selector/relay_2*%
X78050000Y-32500000D03*
%TO.P,K20,A2*%
%TO.N,/Tab selector/relay_VCC*%
X78050000Y-44500000D03*
%TD*%
%TO.P,K21,11*%
%TO.N,Net-(K20-Pad12)*%
X70000000Y-52000000D03*
%TO.P,K21,12*%
%TO.N,/Tab selector/10V_AC*%
X76000000Y-66200000D03*
%TO.P,K21,14*%
%TO.N,/Tab selector/20V_AC*%
X64000000Y-66200000D03*
%TO.P,K21,A1*%
%TO.N,/Tab selector/relay_1*%
X64000000Y-54000000D03*
%TO.P,K21,A2*%
%TO.N,/Tab selector/relay_VCC*%
X76000000Y-54000000D03*
%TD*%
D15*
%TO.P,J10,1,Pin_1*%
%TO.N,/Tab selector/relay_1*%
X84300000Y-84300000D03*
D16*
%TO.P,J10,2,Pin_2*%
%TO.N,/Tab selector/relay_2*%
X86800000Y-84300000D03*
%TO.P,J10,3,Pin_3*%
%TO.N,/Tab selector/relay_VCC*%
X89300000Y-84300000D03*
%TO.P,J10,4,Pin_4*%
%TO.N,/Series pass transistors/base*%
X91800000Y-84300000D03*
%TD*%
D17*
%TO.P,J12,1,Pin_1*%
%TO.N,/Rectifier/-DC*%
X143500000Y-82500000D03*
D13*
%TO.P,J12,2,Pin_2*%
%TO.N,/Series pass transistors/emitter*%
X138500000Y-82500000D03*
%TD*%
D12*
%TO.P,C30,1*%
%TO.N,/Rectifier/+DC*%
X138000000Y-63500000D03*
D13*
%TO.P,C30,2*%
%TO.N,/Rectifier/-DC*%
X148000000Y-63500000D03*
%TD*%
D10*
%TO.P,R41,1*%
%TO.N,/Series pass transistors/pwr_e2*%
X112080000Y-82500000D03*
D11*
%TO.P,R41,2*%
%TO.N,/Series pass transistors/emitter*%
X127320000Y-82500000D03*
%TD*%
D18*
%TO.P,J11,1,Pin_1*%
%TO.N,/Tab selector/30V_AC*%
X60382500Y-82850000D03*
D19*
%TO.P,J11,2,Pin_2*%
%TO.N,/Tab selector/20V_AC*%
X64342500Y-82850000D03*
%TO.P,J11,3,Pin_3*%
%TO.N,/Tab selector/10V_AC*%
X68302500Y-82850000D03*
%TO.P,J11,4,Pin_4*%
%TO.N,/Rectifier/AC1*%
X72262500Y-82850000D03*
%TD*%
D20*
%TO.P,D30,1,K*%
%TO.N,/Rectifier/AC1*%
X99000000Y-45500000D03*
D21*
%TO.P,D30,2,A*%
%TO.N,/Rectifier/+DC*%
X101540000Y-45500000D03*
%TO.P,D30,3,K*%
%TO.N,/Rectifier/AC1*%
X104080000Y-45500000D03*
%TD*%
D20*
%TO.P,D32,1,K*%
%TO.N,/Rectifier/AC2*%
X88000000Y-45500000D03*
D21*
%TO.P,D32,2,A*%
%TO.N,/Rectifier/+DC*%
X90540000Y-45500000D03*
%TO.P,D32,3,K*%
%TO.N,/Rectifier/AC2*%
X93080000Y-45500000D03*
%TD*%
D22*
%TO.P,Q43,1,E*%
%TO.N,/Series pass transistors/pwr_eb2*%
X104500000Y-74500000D03*
D23*
%TO.P,Q43,2,C*%
%TO.N,/Rectifier/+DC*%
X107040000Y-74500000D03*
%TO.P,Q43,3,B*%
%TO.N,/Series pass transistors/base*%
X109580000Y-74500000D03*
%TD*%
D24*
%TO.P,Q42,1,B*%
%TO.N,/Series pass transistors/pwr_eb2*%
X114200000Y-75500000D03*
D25*
%TO.P,Q42,2,C*%
%TO.N,/Rectifier/+DC*%
X119650000Y-75500000D03*
%TO.P,Q42,3,E*%
%TO.N,/Series pass transistors/pwr_e2*%
X125100000Y-75500000D03*
%TD*%
D20*
%TO.P,D31,1,K*%
%TO.N,/Rectifier/-DC*%
X110000000Y-45500000D03*
D21*
%TO.P,D31,2,A*%
%TO.N,/Rectifier/AC1*%
X112540000Y-45500000D03*
%TO.P,D31,3,K*%
%TO.N,/Rectifier/-DC*%
X115080000Y-45500000D03*
%TD*%
D24*
%TO.P,Q40,1,B*%
%TO.N,/Series pass transistors/pwr_eb1*%
X88900000Y-75500000D03*
D25*
%TO.P,Q40,2,C*%
%TO.N,/Rectifier/+DC*%
X94350000Y-75500000D03*
%TO.P,Q40,3,E*%
%TO.N,/Series pass transistors/pwr_e1*%
X99800000Y-75500000D03*
%TD*%
D20*
%TO.P,D33,1,K*%
%TO.N,/Rectifier/-DC*%
X121000000Y-45500000D03*
D21*
%TO.P,D33,2,A*%
%TO.N,/Rectifier/AC2*%
X123540000Y-45500000D03*
%TO.P,D33,3,K*%
%TO.N,/Rectifier/-DC*%
X126080000Y-45500000D03*
%TD*%
D22*
%TO.P,Q41,1,E*%
%TO.N,/Series pass transistors/pwr_eb1*%
X79250000Y-74500000D03*
D23*
%TO.P,Q41,2,C*%
%TO.N,/Rectifier/+DC*%
X81790000Y-74500000D03*
%TO.P,Q41,3,B*%
%TO.N,/Series pass transistors/base*%
X84330000Y-74500000D03*
%TD*%
D26*
%TO.N,/Rectifier/+DC*%
X107040000Y-74500000D02*
X107040000Y-69040000D01*
X84250000Y-69750000D02*
X93500000Y-69750000D01*
X81790000Y-72210000D02*
X84250000Y-69750000D01*
X81790000Y-74500000D02*
X81790000Y-72210000D01*
%TO.N,/Tab selector/relay_VCC*%
X78050000Y-44500000D02*
X78050000Y-47650000D01*
X72500000Y-62500000D02*
X76000000Y-59000000D01*
X76000000Y-59000000D02*
X76000000Y-54000000D01*
X72500000Y-73100000D02*
X72500000Y-62500000D01*
X76000000Y-49700000D02*
X76000000Y-54000000D01*
X89300000Y-81325000D02*
X88075000Y-80100000D01*
X89300000Y-84300000D02*
X89300000Y-81325000D01*
X78050000Y-47650000D02*
X76000000Y-49700000D01*
X79500000Y-80100000D02*
X72500000Y-73100000D01*
X88075000Y-80100000D02*
X79500000Y-80100000D01*
%TO.N,/Tab selector/relay_2*%
X86800000Y-82800000D02*
X86100000Y-82100000D01*
X73000000Y-57900000D02*
X73000000Y-37550000D01*
X86100000Y-82100000D02*
X78700000Y-82100000D01*
X70100000Y-60800000D02*
X73000000Y-57900000D01*
X70100000Y-73500000D02*
X70100000Y-60800000D01*
X73000000Y-37550000D02*
X78050000Y-32500000D01*
X78700000Y-82100000D02*
X70100000Y-73500000D01*
X86800000Y-84300000D02*
X86800000Y-82800000D01*
%TO.N,/Tab selector/relay_1*%
X68000000Y-74100000D02*
X68000000Y-58000000D01*
X68000000Y-58000000D02*
X64000000Y-54000000D01*
X84300000Y-84300000D02*
X78200000Y-84300000D01*
X78200000Y-84300000D02*
X68000000Y-74100000D01*
%TD*%
%TA.AperFunction,Conductor*%
%TO.N,/Rectifier/+DC*%
G36*
X107538401Y-72703427D02*
G01*
X107541661Y-72709731D01*
X107758763Y-73981482D01*
X107756777Y-73990214D01*
X107754013Y-73992984D01*
X107046783Y-74496173D01*
X107038055Y-74498177D01*
X107033217Y-74496173D01*
X106325986Y-73992984D01*
X106321232Y-73985396D01*
X106321236Y-73981482D01*
X106538339Y-72709731D01*
X106543109Y-72702153D01*
X106549872Y-72700000D01*
X107530128Y-72700000D01*
X107538401Y-72703427D01*
G37*
%TD.AperFunction*%
%TD*%
%TA.AperFunction,Conductor*%
%TO.N,/Rectifier/+DC*%
G36*
X82288401Y-72703427D02*
G01*
X82291661Y-72709731D01*
X82508763Y-73981482D01*
X82506777Y-73990214D01*
X82504013Y-73992984D01*
X81796783Y-74496173D01*
X81788055Y-74498177D01*
X81783217Y-74496173D01*
X81075986Y-73992984D01*
X81071232Y-73985396D01*
X81071236Y-73981482D01*
X81288339Y-72709731D01*
X81293109Y-72702153D01*
X81299872Y-72700000D01*
X82280128Y-72700000D01*
X82288401Y-72703427D01*
G37*
%TD.AperFunction*%
%TD*%
%TA.AperFunction,Conductor*%
%TO.N,/Rectifier/+DC*%
G36*
X139915677Y-37419685D02*
G01*
X139936319Y-37436319D01*
X141563681Y-39063681D01*
X141597166Y-39125004D01*
X141600000Y-39151362D01*
X141600000Y-68142703D01*
X141580315Y-68209742D01*
X141556367Y-68237134D01*
X139284744Y-70170431D01*
X139220933Y-70198890D01*
X139204377Y-70200000D01*
X122950000Y-70200000D01*
X120900002Y-71999998D01*
X120900000Y-72000000D01*
X120900000Y-75376000D01*
X120880315Y-75443039D01*
X120827511Y-75488794D01*
X120776000Y-75500000D01*
X118524000Y-75500000D01*
X118456961Y-75480315D01*
X118411206Y-75427511D01*
X118400000Y-75376000D01*
X118400000Y-71999999D01*
X118399999Y-71999998D01*
X116500000Y-70050000D01*
X98000000Y-70050000D01*
X95650000Y-72000000D01*
X95601803Y-75470168D01*
X95581189Y-75536928D01*
X95527755Y-75581945D01*
X95470388Y-75592223D01*
X93216573Y-75456994D01*
X93150833Y-75433330D01*
X93108323Y-75377880D01*
X93100000Y-75333217D01*
X93100000Y-69310733D01*
X93119685Y-69243694D01*
X93147983Y-69212767D01*
X94453169Y-68200000D01*
X100439727Y-63554693D01*
X104285500Y-63554693D01*
X104320138Y-63862110D01*
X104320140Y-63862126D01*
X104388982Y-64163744D01*
X104388986Y-64163756D01*
X104491165Y-64455765D01*
X104625397Y-64734500D01*
X104625399Y-64734503D01*
X104789998Y-64996462D01*
X104982893Y-65238344D01*
X105201656Y-65457107D01*
X105443538Y-65650002D01*
X105705497Y-65814601D01*
X105984238Y-65948836D01*
X106203552Y-66025577D01*
X106276243Y-66051013D01*
X106276255Y-66051017D01*
X106577877Y-66119860D01*
X106885306Y-66154499D01*
X106885307Y-66154500D01*
X106885311Y-66154500D01*
X107194693Y-66154500D01*
X107194693Y-66154499D01*
X107502123Y-66119860D01*
X107803745Y-66051017D01*
X108095762Y-65948836D01*
X108374503Y-65814601D01*
X108636462Y-65650002D01*
X108878344Y-65457107D01*
X109097107Y-65238344D01*
X109290002Y-64996462D01*
X109454601Y-64734503D01*
X109588836Y-64455762D01*
X109691017Y-64163745D01*
X109759860Y-63862123D01*
X109794500Y-63554689D01*
X109794500Y-63245311D01*
X109759860Y-62937877D01*
X109691017Y-62636255D01*
X109588836Y-62344238D01*
X109454601Y-62065497D01*
X109290002Y-61803538D01*
X109097107Y-61561656D01*
X108878344Y-61342893D01*
X108636462Y-61149998D01*
X108374503Y-60985399D01*
X108374500Y-60985397D01*
X108095765Y-60851165D01*
X107803756Y-60748986D01*
X107803744Y-60748982D01*
X107502126Y-60680140D01*
X107502110Y-60680138D01*
X107194693Y-60645500D01*
X107194689Y-60645500D01*
X106885311Y-60645500D01*
X106885307Y-60645500D01*
X106577889Y-60680138D01*
X106577873Y-60680140D01*
X106276255Y-60748982D01*
X106276243Y-60748986D01*
X105984234Y-60851165D01*
X105705499Y-60985397D01*
X105443539Y-61149997D01*
X105201656Y-61342892D01*
X104982892Y-61561656D01*
X104789997Y-61803539D01*
X104625397Y-62065499D01*
X104491165Y-62344234D01*
X104388986Y-62636243D01*
X104388982Y-62636255D01*
X104320140Y-62937873D01*
X104320138Y-62937889D01*
X104285500Y-63245306D01*
X104285500Y-63554693D01*
X100439727Y-63554693D01*
X102250000Y-62150000D01*
X102200000Y-55550000D01*
X102199998Y-55549998D01*
X102199998Y-55549997D01*
X98300002Y-51850001D01*
X98300000Y-51850000D01*
X98299999Y-51850000D01*
X92700764Y-51850000D01*
X92633725Y-51830315D01*
X92613810Y-51814403D01*
X89637046Y-48886438D01*
X89603056Y-48825394D01*
X89600000Y-48798035D01*
X89600000Y-45624000D01*
X89619685Y-45556961D01*
X89672489Y-45511206D01*
X89724000Y-45500000D01*
X91376000Y-45500000D01*
X91443039Y-45519685D01*
X91488794Y-45572489D01*
X91500000Y-45624000D01*
X91500000Y-47450000D01*
X92449999Y-48350000D01*
X92450000Y-48350000D01*
X99700000Y-48350000D01*
X100600000Y-47450000D01*
X100600000Y-45624000D01*
X100619685Y-45556961D01*
X100672489Y-45511206D01*
X100724000Y-45500000D01*
X102376000Y-45500000D01*
X102443039Y-45519685D01*
X102488794Y-45572489D01*
X102500000Y-45624000D01*
X102500000Y-48350000D01*
X115400000Y-61400000D01*
X115400000Y-61399999D01*
X115400001Y-61400000D01*
X122150000Y-61375000D01*
X128900000Y-61350000D01*
X134100000Y-56100000D01*
X134100000Y-39151362D01*
X134119685Y-39084323D01*
X134136319Y-39063681D01*
X135763681Y-37436319D01*
X135825004Y-37402834D01*
X135851362Y-37400000D01*
X139848638Y-37400000D01*
X139915677Y-37419685D01*
G37*
%TD.AperFunction*%
%TD*%
%TA.AperFunction,Conductor*%
%TO.N,/Tab selector/relay_1*%
G36*
X65481239Y-54073702D02*
G01*
X65489328Y-54077539D01*
X65491250Y-54080435D01*
X66104791Y-55393727D01*
X66105188Y-55402673D01*
X66102464Y-55406952D01*
X65406952Y-56102464D01*
X65398679Y-56105891D01*
X65393727Y-56104791D01*
X64080435Y-55491250D01*
X64074390Y-55484644D01*
X64073703Y-55481242D01*
X63999941Y-54012211D01*
X64002948Y-54003778D01*
X64011039Y-53999941D01*
X64012199Y-53999941D01*
X65481239Y-54073702D01*
G37*
%TD.AperFunction*%
%TD*%
%TA.AperFunction,Conductor*%
%TO.N,/Tab selector/relay_1*%
G36*
X83490266Y-83453037D02*
G01*
X83494056Y-83455680D01*
X83798282Y-83773997D01*
X84293273Y-84291916D01*
X84296512Y-84300265D01*
X84293273Y-84308084D01*
X83494058Y-85144317D01*
X83485865Y-85147930D01*
X83481312Y-85147119D01*
X82607412Y-84802919D01*
X82600971Y-84796699D01*
X82600000Y-84792033D01*
X82600000Y-83807966D01*
X82603427Y-83799693D01*
X82607409Y-83797081D01*
X83481314Y-83452880D01*
X83490266Y-83453037D01*
G37*
%TD.AperFunction*%
%TD*%
%TA.AperFunction,Conductor*%
%TO.N,/Tab selector/relay_VCC*%
G36*
X78057885Y-44507716D02*
G01*
X78058637Y-44508468D01*
X78577754Y-45077526D01*
X79045265Y-45590013D01*
X79048309Y-45598434D01*
X79047644Y-45601821D01*
X78552768Y-46992223D01*
X78546765Y-46998868D01*
X78541745Y-47000000D01*
X77558255Y-47000000D01*
X77549982Y-46996573D01*
X77547232Y-46992223D01*
X77532279Y-46950213D01*
X77052355Y-45601819D01*
X77052810Y-45592878D01*
X77054732Y-45590015D01*
X78041356Y-44508474D01*
X78049464Y-44504672D01*
X78057885Y-44507716D01*
G37*
%TD.AperFunction*%
%TD*%
%TA.AperFunction,Conductor*%
%TO.N,/Tab selector/relay_2*%
G36*
X78046221Y-32502948D02*
G01*
X78050058Y-32511039D01*
X78050058Y-32512213D01*
X77976296Y-33981237D01*
X77972459Y-33989328D01*
X77969563Y-33991250D01*
X76656272Y-34604791D01*
X76647326Y-34605188D01*
X76643047Y-34602464D01*
X75947535Y-33906952D01*
X75944108Y-33898679D01*
X75945208Y-33893727D01*
X76558749Y-32580434D01*
X76565354Y-32574391D01*
X76568754Y-32573704D01*
X78037787Y-32499941D01*
X78046221Y-32502948D01*
G37*
%TD.AperFunction*%
%TD*%
%TA.AperFunction,Conductor*%
%TO.N,/Tab selector/relay_VCC*%
G36*
X89798866Y-82494760D02*
G01*
X89802020Y-82500521D01*
X90131440Y-83999044D01*
X90129869Y-84007860D01*
X90123879Y-84012599D01*
X89303866Y-84299646D01*
X89296134Y-84299646D01*
X88476120Y-84012599D01*
X88469444Y-84006631D01*
X88468559Y-83999045D01*
X88797980Y-82500520D01*
X88803103Y-82493177D01*
X88809407Y-82491333D01*
X89790593Y-82491333D01*
X89798866Y-82494760D01*
G37*
%TD.AperFunction*%
%TD*%
%TA.AperFunction,Conductor*%
%TO.N,/Tab selector/relay_VCC*%
G36*
X76500018Y-51503427D02*
G01*
X76502768Y-51507777D01*
X76997644Y-52898178D01*
X76997189Y-52907121D01*
X76995265Y-52909986D01*
X76008644Y-53991524D01*
X76000536Y-53995327D01*
X75992115Y-53992283D01*
X75991356Y-53991524D01*
X75004734Y-52909986D01*
X75001690Y-52901565D01*
X75002353Y-52898183D01*
X75497232Y-51507777D01*
X75503235Y-51501132D01*
X75508255Y-51500000D01*
X76491745Y-51500000D01*
X76500018Y-51503427D01*
G37*
%TD.AperFunction*%
%TD*%
%TA.AperFunction,Conductor*%
%TO.N,/Tab selector/relay_2*%
G36*
X86939190Y-82240834D02*
G01*
X86941812Y-82244841D01*
X87610383Y-83952377D01*
X87610208Y-83961330D01*
X87603972Y-83967450D01*
X86804832Y-84298995D01*
X86796489Y-84299233D01*
X85976356Y-84012675D01*
X85969676Y-84006711D01*
X85968848Y-83998858D01*
X86227411Y-82938472D01*
X86230502Y-82932976D01*
X86922645Y-82240833D01*
X86930917Y-82237407D01*
X86939190Y-82240834D01*
G37*
%TD.AperFunction*%
%TD*%
%TA.AperFunction,Conductor*%
%TO.N,/Tab selector/relay_VCC*%
G36*
X76007885Y-54007716D02*
G01*
X76008637Y-54008468D01*
X76527754Y-54577526D01*
X76995265Y-55090013D01*
X76998309Y-55098434D01*
X76997644Y-55101821D01*
X76502768Y-56492223D01*
X76496765Y-56498868D01*
X76491745Y-56500000D01*
X75508255Y-56500000D01*
X75499982Y-56496573D01*
X75497232Y-56492223D01*
X75482279Y-56450213D01*
X75002355Y-55101819D01*
X75002810Y-55092878D01*
X75004732Y-55090015D01*
X75991356Y-54008474D01*
X75999464Y-54004672D01*
X76007885Y-54007716D01*
G37*
%TD.AperFunction*%
%TD*%
M02*
