%TF.GenerationSoftware,KiCad,Pcbnew,8.0.7-8.0.7-0~ubuntu22.04.1*%
%TF.CreationDate,2024-12-28T20:57:26+00:00*%
%TF.ProjectId,power-board,706f7765-722d-4626-9f61-72642e6b6963,1.0.0*%
%TF.SameCoordinates,Original*%
%TF.FileFunction,Legend,Top*%
%TF.FilePolarity,Positive*%
%FSLAX46Y46*%
G04 Gerber Fmt 4.6, Leading zero omitted, Abs format (unit mm)*
G04 Created by KiCad (PCBNEW 8.0.7-8.0.7-0~ubuntu22.04.1) date 2024-12-28 20:57:26*
%MOMM*%
%LPD*%
G01*
G04 APERTURE LIST*
%ADD10C,0.150000*%
%ADD11C,0.500000*%
%ADD12C,0.200000*%
%ADD13C,0.300000*%
%ADD14C,0.000000*%
%ADD15C,0.120000*%
G04 APERTURE END LIST*
D10*
X80500000Y-25000000D02*
G75*
G02*
X74500000Y-25000000I-3000000J0D01*
G01*
X74500000Y-25000000D02*
G75*
G02*
X80500000Y-25000000I3000000J0D01*
G01*
X90550000Y-88250000D02*
X90550000Y-94750000D01*
X83050000Y-88250000D02*
X93050000Y-88250000D01*
X93050000Y-94750000D01*
X83050000Y-94750000D01*
X83050000Y-88250000D01*
D11*
X58500000Y-97500000D02*
G75*
G02*
X57000000Y-96000000I0J1500000D01*
G01*
D10*
X85750000Y-64250000D02*
X85250000Y-64250000D01*
X139500000Y-93000000D02*
G75*
G02*
X133500000Y-93000000I-3000000J0D01*
G01*
X133500000Y-93000000D02*
G75*
G02*
X139500000Y-93000000I3000000J0D01*
G01*
X80500000Y-93000000D02*
G75*
G02*
X74500000Y-93000000I-3000000J0D01*
G01*
X74500000Y-93000000D02*
G75*
G02*
X80500000Y-93000000I3000000J0D01*
G01*
X88050000Y-88250000D02*
X88050000Y-94750000D01*
X85250000Y-64000000D02*
X85750000Y-64000000D01*
X104000000Y-68000000D02*
X103500000Y-68000000D01*
D11*
X155000000Y-96000000D02*
G75*
G02*
X153500000Y-97500000I-1500000J0D01*
G01*
D10*
X139500000Y-25000000D02*
G75*
G02*
X133500000Y-25000000I-3000000J0D01*
G01*
X133500000Y-25000000D02*
G75*
G02*
X139500000Y-25000000I3000000J0D01*
G01*
X103500000Y-64250000D02*
X104000000Y-64250000D01*
X60400000Y-94900000D02*
X60400000Y-93800000D01*
X85750000Y-60250000D02*
X85250000Y-60250000D01*
X85250000Y-71250000D02*
X85750000Y-71250000D01*
D11*
X153500000Y-20500000D02*
G75*
G02*
X155000000Y-22000000I0J-1500000D01*
G01*
D10*
X104000000Y-60250000D02*
X104000000Y-64000000D01*
D11*
X155000000Y-22000000D02*
X155000000Y-96000000D01*
D10*
X85750000Y-68250000D02*
X85250000Y-68250000D01*
X85250000Y-68250000D02*
X85250000Y-71250000D01*
D11*
X57000000Y-22000000D02*
G75*
G02*
X58500000Y-20500000I1500000J0D01*
G01*
D10*
X104000000Y-71250000D02*
X103500000Y-71250000D01*
X85250000Y-60250000D02*
X85250000Y-64000000D01*
X85250000Y-64250000D02*
X85250000Y-68000000D01*
D11*
X153500000Y-97500000D02*
X58500000Y-97500000D01*
D10*
X104000000Y-64250000D02*
X104000000Y-68000000D01*
X68300000Y-93600000D02*
X68300000Y-94900000D01*
X103500000Y-68250000D02*
X104000000Y-68250000D01*
X72300000Y-93600000D02*
X72300000Y-94900000D01*
X64300000Y-93600000D02*
X64300000Y-94900000D01*
D11*
X57000000Y-96000000D02*
X57000000Y-22000000D01*
X58500000Y-20500000D02*
X153500000Y-20500000D01*
D10*
X104000000Y-68250000D02*
X104000000Y-71250000D01*
X104000000Y-64000000D02*
X103500000Y-64000000D01*
X103500000Y-60250000D02*
X104000000Y-60250000D01*
X85550000Y-88250000D02*
X85550000Y-94750000D01*
X72300000Y-94900000D02*
X60400000Y-94900000D01*
X85250000Y-68000000D02*
X85750000Y-68000000D01*
X89869819Y-90848684D02*
X89869819Y-91420112D01*
X89869819Y-91134398D02*
X88869819Y-91134398D01*
X88869819Y-91134398D02*
X89012676Y-91229636D01*
X89012676Y-91229636D02*
X89107914Y-91324874D01*
X89107914Y-91324874D02*
X89155533Y-91420112D01*
X88965057Y-90467731D02*
X88917438Y-90420112D01*
X88917438Y-90420112D02*
X88869819Y-90324874D01*
X88869819Y-90324874D02*
X88869819Y-90086779D01*
X88869819Y-90086779D02*
X88917438Y-89991541D01*
X88917438Y-89991541D02*
X88965057Y-89943922D01*
X88965057Y-89943922D02*
X89060295Y-89896303D01*
X89060295Y-89896303D02*
X89155533Y-89896303D01*
X89155533Y-89896303D02*
X89298390Y-89943922D01*
X89298390Y-89943922D02*
X89869819Y-90515350D01*
X89869819Y-90515350D02*
X89869819Y-89896303D01*
X88869819Y-89610588D02*
X89869819Y-89277255D01*
X89869819Y-89277255D02*
X88869819Y-88943922D01*
X87289160Y-69715057D02*
X87336779Y-69667438D01*
X87336779Y-69667438D02*
X87432017Y-69619819D01*
X87432017Y-69619819D02*
X87670112Y-69619819D01*
X87670112Y-69619819D02*
X87765350Y-69667438D01*
X87765350Y-69667438D02*
X87812969Y-69715057D01*
X87812969Y-69715057D02*
X87860588Y-69810295D01*
X87860588Y-69810295D02*
X87860588Y-69905533D01*
X87860588Y-69905533D02*
X87812969Y-70048390D01*
X87812969Y-70048390D02*
X87241541Y-70619819D01*
X87241541Y-70619819D02*
X87860588Y-70619819D01*
X88717731Y-69619819D02*
X88527255Y-69619819D01*
X88527255Y-69619819D02*
X88432017Y-69667438D01*
X88432017Y-69667438D02*
X88384398Y-69715057D01*
X88384398Y-69715057D02*
X88289160Y-69857914D01*
X88289160Y-69857914D02*
X88241541Y-70048390D01*
X88241541Y-70048390D02*
X88241541Y-70429342D01*
X88241541Y-70429342D02*
X88289160Y-70524580D01*
X88289160Y-70524580D02*
X88336779Y-70572200D01*
X88336779Y-70572200D02*
X88432017Y-70619819D01*
X88432017Y-70619819D02*
X88622493Y-70619819D01*
X88622493Y-70619819D02*
X88717731Y-70572200D01*
X88717731Y-70572200D02*
X88765350Y-70524580D01*
X88765350Y-70524580D02*
X88812969Y-70429342D01*
X88812969Y-70429342D02*
X88812969Y-70191247D01*
X88812969Y-70191247D02*
X88765350Y-70096009D01*
X88765350Y-70096009D02*
X88717731Y-70048390D01*
X88717731Y-70048390D02*
X88622493Y-70000771D01*
X88622493Y-70000771D02*
X88432017Y-70000771D01*
X88432017Y-70000771D02*
X88336779Y-70048390D01*
X88336779Y-70048390D02*
X88289160Y-70096009D01*
X88289160Y-70096009D02*
X88241541Y-70191247D01*
X89241541Y-70524580D02*
X89289160Y-70572200D01*
X89289160Y-70572200D02*
X89241541Y-70619819D01*
X89241541Y-70619819D02*
X89193922Y-70572200D01*
X89193922Y-70572200D02*
X89241541Y-70524580D01*
X89241541Y-70524580D02*
X89241541Y-70619819D01*
X89908207Y-69619819D02*
X90003445Y-69619819D01*
X90003445Y-69619819D02*
X90098683Y-69667438D01*
X90098683Y-69667438D02*
X90146302Y-69715057D01*
X90146302Y-69715057D02*
X90193921Y-69810295D01*
X90193921Y-69810295D02*
X90241540Y-70000771D01*
X90241540Y-70000771D02*
X90241540Y-70238866D01*
X90241540Y-70238866D02*
X90193921Y-70429342D01*
X90193921Y-70429342D02*
X90146302Y-70524580D01*
X90146302Y-70524580D02*
X90098683Y-70572200D01*
X90098683Y-70572200D02*
X90003445Y-70619819D01*
X90003445Y-70619819D02*
X89908207Y-70619819D01*
X89908207Y-70619819D02*
X89812969Y-70572200D01*
X89812969Y-70572200D02*
X89765350Y-70524580D01*
X89765350Y-70524580D02*
X89717731Y-70429342D01*
X89717731Y-70429342D02*
X89670112Y-70238866D01*
X89670112Y-70238866D02*
X89670112Y-70000771D01*
X89670112Y-70000771D02*
X89717731Y-69810295D01*
X89717731Y-69810295D02*
X89765350Y-69715057D01*
X89765350Y-69715057D02*
X89812969Y-69667438D01*
X89812969Y-69667438D02*
X89908207Y-69619819D01*
X90622493Y-69715057D02*
X90670112Y-69667438D01*
X90670112Y-69667438D02*
X90765350Y-69619819D01*
X90765350Y-69619819D02*
X91003445Y-69619819D01*
X91003445Y-69619819D02*
X91098683Y-69667438D01*
X91098683Y-69667438D02*
X91146302Y-69715057D01*
X91146302Y-69715057D02*
X91193921Y-69810295D01*
X91193921Y-69810295D02*
X91193921Y-69905533D01*
X91193921Y-69905533D02*
X91146302Y-70048390D01*
X91146302Y-70048390D02*
X90574874Y-70619819D01*
X90574874Y-70619819D02*
X91193921Y-70619819D01*
X91622493Y-70524580D02*
X91670112Y-70572200D01*
X91670112Y-70572200D02*
X91622493Y-70619819D01*
X91622493Y-70619819D02*
X91574874Y-70572200D01*
X91574874Y-70572200D02*
X91622493Y-70524580D01*
X91622493Y-70524580D02*
X91622493Y-70619819D01*
X92051064Y-69715057D02*
X92098683Y-69667438D01*
X92098683Y-69667438D02*
X92193921Y-69619819D01*
X92193921Y-69619819D02*
X92432016Y-69619819D01*
X92432016Y-69619819D02*
X92527254Y-69667438D01*
X92527254Y-69667438D02*
X92574873Y-69715057D01*
X92574873Y-69715057D02*
X92622492Y-69810295D01*
X92622492Y-69810295D02*
X92622492Y-69905533D01*
X92622492Y-69905533D02*
X92574873Y-70048390D01*
X92574873Y-70048390D02*
X92003445Y-70619819D01*
X92003445Y-70619819D02*
X92622492Y-70619819D01*
X93241540Y-69619819D02*
X93336778Y-69619819D01*
X93336778Y-69619819D02*
X93432016Y-69667438D01*
X93432016Y-69667438D02*
X93479635Y-69715057D01*
X93479635Y-69715057D02*
X93527254Y-69810295D01*
X93527254Y-69810295D02*
X93574873Y-70000771D01*
X93574873Y-70000771D02*
X93574873Y-70238866D01*
X93574873Y-70238866D02*
X93527254Y-70429342D01*
X93527254Y-70429342D02*
X93479635Y-70524580D01*
X93479635Y-70524580D02*
X93432016Y-70572200D01*
X93432016Y-70572200D02*
X93336778Y-70619819D01*
X93336778Y-70619819D02*
X93241540Y-70619819D01*
X93241540Y-70619819D02*
X93146302Y-70572200D01*
X93146302Y-70572200D02*
X93098683Y-70524580D01*
X93098683Y-70524580D02*
X93051064Y-70429342D01*
X93051064Y-70429342D02*
X93003445Y-70238866D01*
X93003445Y-70238866D02*
X93003445Y-70000771D01*
X93003445Y-70000771D02*
X93051064Y-69810295D01*
X93051064Y-69810295D02*
X93098683Y-69715057D01*
X93098683Y-69715057D02*
X93146302Y-69667438D01*
X93146302Y-69667438D02*
X93241540Y-69619819D01*
X93955826Y-69715057D02*
X94003445Y-69667438D01*
X94003445Y-69667438D02*
X94098683Y-69619819D01*
X94098683Y-69619819D02*
X94336778Y-69619819D01*
X94336778Y-69619819D02*
X94432016Y-69667438D01*
X94432016Y-69667438D02*
X94479635Y-69715057D01*
X94479635Y-69715057D02*
X94527254Y-69810295D01*
X94527254Y-69810295D02*
X94527254Y-69905533D01*
X94527254Y-69905533D02*
X94479635Y-70048390D01*
X94479635Y-70048390D02*
X93908207Y-70619819D01*
X93908207Y-70619819D02*
X94527254Y-70619819D01*
X95384397Y-69953152D02*
X95384397Y-70619819D01*
X95146302Y-69572200D02*
X94908207Y-70286485D01*
X94908207Y-70286485D02*
X95527254Y-70286485D01*
X87336779Y-66619819D02*
X87336779Y-65619819D01*
X87336779Y-65619819D02*
X87574874Y-65619819D01*
X87574874Y-65619819D02*
X87717731Y-65667438D01*
X87717731Y-65667438D02*
X87812969Y-65762676D01*
X87812969Y-65762676D02*
X87860588Y-65857914D01*
X87860588Y-65857914D02*
X87908207Y-66048390D01*
X87908207Y-66048390D02*
X87908207Y-66191247D01*
X87908207Y-66191247D02*
X87860588Y-66381723D01*
X87860588Y-66381723D02*
X87812969Y-66476961D01*
X87812969Y-66476961D02*
X87717731Y-66572200D01*
X87717731Y-66572200D02*
X87574874Y-66619819D01*
X87574874Y-66619819D02*
X87336779Y-66619819D01*
X88479636Y-66619819D02*
X88384398Y-66572200D01*
X88384398Y-66572200D02*
X88336779Y-66524580D01*
X88336779Y-66524580D02*
X88289160Y-66429342D01*
X88289160Y-66429342D02*
X88289160Y-66143628D01*
X88289160Y-66143628D02*
X88336779Y-66048390D01*
X88336779Y-66048390D02*
X88384398Y-66000771D01*
X88384398Y-66000771D02*
X88479636Y-65953152D01*
X88479636Y-65953152D02*
X88622493Y-65953152D01*
X88622493Y-65953152D02*
X88717731Y-66000771D01*
X88717731Y-66000771D02*
X88765350Y-66048390D01*
X88765350Y-66048390D02*
X88812969Y-66143628D01*
X88812969Y-66143628D02*
X88812969Y-66429342D01*
X88812969Y-66429342D02*
X88765350Y-66524580D01*
X88765350Y-66524580D02*
X88717731Y-66572200D01*
X88717731Y-66572200D02*
X88622493Y-66619819D01*
X88622493Y-66619819D02*
X88479636Y-66619819D01*
X89241541Y-66619819D02*
X89241541Y-65953152D01*
X89241541Y-66048390D02*
X89289160Y-66000771D01*
X89289160Y-66000771D02*
X89384398Y-65953152D01*
X89384398Y-65953152D02*
X89527255Y-65953152D01*
X89527255Y-65953152D02*
X89622493Y-66000771D01*
X89622493Y-66000771D02*
X89670112Y-66096009D01*
X89670112Y-66096009D02*
X89670112Y-66619819D01*
X89670112Y-66096009D02*
X89717731Y-66000771D01*
X89717731Y-66000771D02*
X89812969Y-65953152D01*
X89812969Y-65953152D02*
X89955826Y-65953152D01*
X89955826Y-65953152D02*
X90051065Y-66000771D01*
X90051065Y-66000771D02*
X90098684Y-66096009D01*
X90098684Y-66096009D02*
X90098684Y-66619819D01*
X90574874Y-66619819D02*
X90574874Y-65953152D01*
X90574874Y-65619819D02*
X90527255Y-65667438D01*
X90527255Y-65667438D02*
X90574874Y-65715057D01*
X90574874Y-65715057D02*
X90622493Y-65667438D01*
X90622493Y-65667438D02*
X90574874Y-65619819D01*
X90574874Y-65619819D02*
X90574874Y-65715057D01*
X91051064Y-65953152D02*
X91051064Y-66619819D01*
X91051064Y-66048390D02*
X91098683Y-66000771D01*
X91098683Y-66000771D02*
X91193921Y-65953152D01*
X91193921Y-65953152D02*
X91336778Y-65953152D01*
X91336778Y-65953152D02*
X91432016Y-66000771D01*
X91432016Y-66000771D02*
X91479635Y-66096009D01*
X91479635Y-66096009D02*
X91479635Y-66619819D01*
X91955826Y-66619819D02*
X91955826Y-65953152D01*
X91955826Y-65619819D02*
X91908207Y-65667438D01*
X91908207Y-65667438D02*
X91955826Y-65715057D01*
X91955826Y-65715057D02*
X92003445Y-65667438D01*
X92003445Y-65667438D02*
X91955826Y-65619819D01*
X91955826Y-65619819D02*
X91955826Y-65715057D01*
X92432016Y-66619819D02*
X92432016Y-65619819D01*
X92527254Y-66238866D02*
X92812968Y-66619819D01*
X92812968Y-65953152D02*
X92432016Y-66334104D01*
X93908207Y-65619819D02*
X94146302Y-66619819D01*
X94146302Y-66619819D02*
X94336778Y-65905533D01*
X94336778Y-65905533D02*
X94527254Y-66619819D01*
X94527254Y-66619819D02*
X94765350Y-65619819D01*
X95289159Y-66619819D02*
X95193921Y-66572200D01*
X95193921Y-66572200D02*
X95146302Y-66524580D01*
X95146302Y-66524580D02*
X95098683Y-66429342D01*
X95098683Y-66429342D02*
X95098683Y-66143628D01*
X95098683Y-66143628D02*
X95146302Y-66048390D01*
X95146302Y-66048390D02*
X95193921Y-66000771D01*
X95193921Y-66000771D02*
X95289159Y-65953152D01*
X95289159Y-65953152D02*
X95432016Y-65953152D01*
X95432016Y-65953152D02*
X95527254Y-66000771D01*
X95527254Y-66000771D02*
X95574873Y-66048390D01*
X95574873Y-66048390D02*
X95622492Y-66143628D01*
X95622492Y-66143628D02*
X95622492Y-66429342D01*
X95622492Y-66429342D02*
X95574873Y-66524580D01*
X95574873Y-66524580D02*
X95527254Y-66572200D01*
X95527254Y-66572200D02*
X95432016Y-66619819D01*
X95432016Y-66619819D02*
X95289159Y-66619819D01*
X96051064Y-66619819D02*
X96051064Y-65953152D01*
X96051064Y-66143628D02*
X96098683Y-66048390D01*
X96098683Y-66048390D02*
X96146302Y-66000771D01*
X96146302Y-66000771D02*
X96241540Y-65953152D01*
X96241540Y-65953152D02*
X96336778Y-65953152D01*
X96670112Y-66619819D02*
X96670112Y-65619819D01*
X96765350Y-66238866D02*
X97051064Y-66619819D01*
X97051064Y-65953152D02*
X96670112Y-66334104D01*
X97432017Y-66572200D02*
X97527255Y-66619819D01*
X97527255Y-66619819D02*
X97717731Y-66619819D01*
X97717731Y-66619819D02*
X97812969Y-66572200D01*
X97812969Y-66572200D02*
X97860588Y-66476961D01*
X97860588Y-66476961D02*
X97860588Y-66429342D01*
X97860588Y-66429342D02*
X97812969Y-66334104D01*
X97812969Y-66334104D02*
X97717731Y-66286485D01*
X97717731Y-66286485D02*
X97574874Y-66286485D01*
X97574874Y-66286485D02*
X97479636Y-66238866D01*
X97479636Y-66238866D02*
X97432017Y-66143628D01*
X97432017Y-66143628D02*
X97432017Y-66096009D01*
X97432017Y-66096009D02*
X97479636Y-66000771D01*
X97479636Y-66000771D02*
X97574874Y-65953152D01*
X97574874Y-65953152D02*
X97717731Y-65953152D01*
X97717731Y-65953152D02*
X97812969Y-66000771D01*
X98289160Y-66619819D02*
X98289160Y-65619819D01*
X98717731Y-66619819D02*
X98717731Y-66096009D01*
X98717731Y-66096009D02*
X98670112Y-66000771D01*
X98670112Y-66000771D02*
X98574874Y-65953152D01*
X98574874Y-65953152D02*
X98432017Y-65953152D01*
X98432017Y-65953152D02*
X98336779Y-66000771D01*
X98336779Y-66000771D02*
X98289160Y-66048390D01*
X99336779Y-66619819D02*
X99241541Y-66572200D01*
X99241541Y-66572200D02*
X99193922Y-66524580D01*
X99193922Y-66524580D02*
X99146303Y-66429342D01*
X99146303Y-66429342D02*
X99146303Y-66143628D01*
X99146303Y-66143628D02*
X99193922Y-66048390D01*
X99193922Y-66048390D02*
X99241541Y-66000771D01*
X99241541Y-66000771D02*
X99336779Y-65953152D01*
X99336779Y-65953152D02*
X99479636Y-65953152D01*
X99479636Y-65953152D02*
X99574874Y-66000771D01*
X99574874Y-66000771D02*
X99622493Y-66048390D01*
X99622493Y-66048390D02*
X99670112Y-66143628D01*
X99670112Y-66143628D02*
X99670112Y-66429342D01*
X99670112Y-66429342D02*
X99622493Y-66524580D01*
X99622493Y-66524580D02*
X99574874Y-66572200D01*
X99574874Y-66572200D02*
X99479636Y-66619819D01*
X99479636Y-66619819D02*
X99336779Y-66619819D01*
X100098684Y-65953152D02*
X100098684Y-66953152D01*
X100098684Y-66000771D02*
X100193922Y-65953152D01*
X100193922Y-65953152D02*
X100384398Y-65953152D01*
X100384398Y-65953152D02*
X100479636Y-66000771D01*
X100479636Y-66000771D02*
X100527255Y-66048390D01*
X100527255Y-66048390D02*
X100574874Y-66143628D01*
X100574874Y-66143628D02*
X100574874Y-66429342D01*
X100574874Y-66429342D02*
X100527255Y-66524580D01*
X100527255Y-66524580D02*
X100479636Y-66572200D01*
X100479636Y-66572200D02*
X100384398Y-66619819D01*
X100384398Y-66619819D02*
X100193922Y-66619819D01*
X100193922Y-66619819D02*
X100098684Y-66572200D01*
X87369819Y-93551066D02*
X86893628Y-93884399D01*
X87369819Y-94122494D02*
X86369819Y-94122494D01*
X86369819Y-94122494D02*
X86369819Y-93741542D01*
X86369819Y-93741542D02*
X86417438Y-93646304D01*
X86417438Y-93646304D02*
X86465057Y-93598685D01*
X86465057Y-93598685D02*
X86560295Y-93551066D01*
X86560295Y-93551066D02*
X86703152Y-93551066D01*
X86703152Y-93551066D02*
X86798390Y-93598685D01*
X86798390Y-93598685D02*
X86846009Y-93646304D01*
X86846009Y-93646304D02*
X86893628Y-93741542D01*
X86893628Y-93741542D02*
X86893628Y-94122494D01*
X87322200Y-92741542D02*
X87369819Y-92836780D01*
X87369819Y-92836780D02*
X87369819Y-93027256D01*
X87369819Y-93027256D02*
X87322200Y-93122494D01*
X87322200Y-93122494D02*
X87226961Y-93170113D01*
X87226961Y-93170113D02*
X86846009Y-93170113D01*
X86846009Y-93170113D02*
X86750771Y-93122494D01*
X86750771Y-93122494D02*
X86703152Y-93027256D01*
X86703152Y-93027256D02*
X86703152Y-92836780D01*
X86703152Y-92836780D02*
X86750771Y-92741542D01*
X86750771Y-92741542D02*
X86846009Y-92693923D01*
X86846009Y-92693923D02*
X86941247Y-92693923D01*
X86941247Y-92693923D02*
X87036485Y-93170113D01*
X87369819Y-92122494D02*
X87322200Y-92217732D01*
X87322200Y-92217732D02*
X87226961Y-92265351D01*
X87226961Y-92265351D02*
X86369819Y-92265351D01*
X87369819Y-91312970D02*
X86846009Y-91312970D01*
X86846009Y-91312970D02*
X86750771Y-91360589D01*
X86750771Y-91360589D02*
X86703152Y-91455827D01*
X86703152Y-91455827D02*
X86703152Y-91646303D01*
X86703152Y-91646303D02*
X86750771Y-91741541D01*
X87322200Y-91312970D02*
X87369819Y-91408208D01*
X87369819Y-91408208D02*
X87369819Y-91646303D01*
X87369819Y-91646303D02*
X87322200Y-91741541D01*
X87322200Y-91741541D02*
X87226961Y-91789160D01*
X87226961Y-91789160D02*
X87131723Y-91789160D01*
X87131723Y-91789160D02*
X87036485Y-91741541D01*
X87036485Y-91741541D02*
X86988866Y-91646303D01*
X86988866Y-91646303D02*
X86988866Y-91408208D01*
X86988866Y-91408208D02*
X86941247Y-91312970D01*
X86703152Y-90932017D02*
X87369819Y-90693922D01*
X86703152Y-90455827D02*
X87369819Y-90693922D01*
X87369819Y-90693922D02*
X87607914Y-90789160D01*
X87607914Y-90789160D02*
X87655533Y-90836779D01*
X87655533Y-90836779D02*
X87703152Y-90932017D01*
X87465057Y-90312970D02*
X87465057Y-89551065D01*
X86465057Y-89360588D02*
X86417438Y-89312969D01*
X86417438Y-89312969D02*
X86369819Y-89217731D01*
X86369819Y-89217731D02*
X86369819Y-88979636D01*
X86369819Y-88979636D02*
X86417438Y-88884398D01*
X86417438Y-88884398D02*
X86465057Y-88836779D01*
X86465057Y-88836779D02*
X86560295Y-88789160D01*
X86560295Y-88789160D02*
X86655533Y-88789160D01*
X86655533Y-88789160D02*
X86798390Y-88836779D01*
X86798390Y-88836779D02*
X87369819Y-89408207D01*
X87369819Y-89408207D02*
X87369819Y-88789160D01*
X67769819Y-92932017D02*
X68769819Y-92598684D01*
X68769819Y-92598684D02*
X67769819Y-92265351D01*
X68769819Y-91408208D02*
X68769819Y-91979636D01*
X68769819Y-91693922D02*
X67769819Y-91693922D01*
X67769819Y-91693922D02*
X67912676Y-91789160D01*
X67912676Y-91789160D02*
X68007914Y-91884398D01*
X68007914Y-91884398D02*
X68055533Y-91979636D01*
X68865057Y-91217732D02*
X68865057Y-90455827D01*
X68484104Y-90265350D02*
X68484104Y-89789160D01*
X68769819Y-90360588D02*
X67769819Y-90027255D01*
X67769819Y-90027255D02*
X68769819Y-89693922D01*
X68674580Y-88789160D02*
X68722200Y-88836779D01*
X68722200Y-88836779D02*
X68769819Y-88979636D01*
X68769819Y-88979636D02*
X68769819Y-89074874D01*
X68769819Y-89074874D02*
X68722200Y-89217731D01*
X68722200Y-89217731D02*
X68626961Y-89312969D01*
X68626961Y-89312969D02*
X68531723Y-89360588D01*
X68531723Y-89360588D02*
X68341247Y-89408207D01*
X68341247Y-89408207D02*
X68198390Y-89408207D01*
X68198390Y-89408207D02*
X68007914Y-89360588D01*
X68007914Y-89360588D02*
X67912676Y-89312969D01*
X67912676Y-89312969D02*
X67817438Y-89217731D01*
X67817438Y-89217731D02*
X67769819Y-89074874D01*
X67769819Y-89074874D02*
X67769819Y-88979636D01*
X67769819Y-88979636D02*
X67817438Y-88836779D01*
X67817438Y-88836779D02*
X67865057Y-88789160D01*
X87336779Y-61953152D02*
X87336779Y-62953152D01*
X87336779Y-62000771D02*
X87432017Y-61953152D01*
X87432017Y-61953152D02*
X87622493Y-61953152D01*
X87622493Y-61953152D02*
X87717731Y-62000771D01*
X87717731Y-62000771D02*
X87765350Y-62048390D01*
X87765350Y-62048390D02*
X87812969Y-62143628D01*
X87812969Y-62143628D02*
X87812969Y-62429342D01*
X87812969Y-62429342D02*
X87765350Y-62524580D01*
X87765350Y-62524580D02*
X87717731Y-62572200D01*
X87717731Y-62572200D02*
X87622493Y-62619819D01*
X87622493Y-62619819D02*
X87432017Y-62619819D01*
X87432017Y-62619819D02*
X87336779Y-62572200D01*
X88384398Y-62619819D02*
X88289160Y-62572200D01*
X88289160Y-62572200D02*
X88241541Y-62524580D01*
X88241541Y-62524580D02*
X88193922Y-62429342D01*
X88193922Y-62429342D02*
X88193922Y-62143628D01*
X88193922Y-62143628D02*
X88241541Y-62048390D01*
X88241541Y-62048390D02*
X88289160Y-62000771D01*
X88289160Y-62000771D02*
X88384398Y-61953152D01*
X88384398Y-61953152D02*
X88527255Y-61953152D01*
X88527255Y-61953152D02*
X88622493Y-62000771D01*
X88622493Y-62000771D02*
X88670112Y-62048390D01*
X88670112Y-62048390D02*
X88717731Y-62143628D01*
X88717731Y-62143628D02*
X88717731Y-62429342D01*
X88717731Y-62429342D02*
X88670112Y-62524580D01*
X88670112Y-62524580D02*
X88622493Y-62572200D01*
X88622493Y-62572200D02*
X88527255Y-62619819D01*
X88527255Y-62619819D02*
X88384398Y-62619819D01*
X89051065Y-61953152D02*
X89241541Y-62619819D01*
X89241541Y-62619819D02*
X89432017Y-62143628D01*
X89432017Y-62143628D02*
X89622493Y-62619819D01*
X89622493Y-62619819D02*
X89812969Y-61953152D01*
X90574874Y-62572200D02*
X90479636Y-62619819D01*
X90479636Y-62619819D02*
X90289160Y-62619819D01*
X90289160Y-62619819D02*
X90193922Y-62572200D01*
X90193922Y-62572200D02*
X90146303Y-62476961D01*
X90146303Y-62476961D02*
X90146303Y-62096009D01*
X90146303Y-62096009D02*
X90193922Y-62000771D01*
X90193922Y-62000771D02*
X90289160Y-61953152D01*
X90289160Y-61953152D02*
X90479636Y-61953152D01*
X90479636Y-61953152D02*
X90574874Y-62000771D01*
X90574874Y-62000771D02*
X90622493Y-62096009D01*
X90622493Y-62096009D02*
X90622493Y-62191247D01*
X90622493Y-62191247D02*
X90146303Y-62286485D01*
X91051065Y-62619819D02*
X91051065Y-61953152D01*
X91051065Y-62143628D02*
X91098684Y-62048390D01*
X91098684Y-62048390D02*
X91146303Y-62000771D01*
X91146303Y-62000771D02*
X91241541Y-61953152D01*
X91241541Y-61953152D02*
X91336779Y-61953152D01*
X92432018Y-62619819D02*
X92432018Y-61619819D01*
X92432018Y-62000771D02*
X92527256Y-61953152D01*
X92527256Y-61953152D02*
X92717732Y-61953152D01*
X92717732Y-61953152D02*
X92812970Y-62000771D01*
X92812970Y-62000771D02*
X92860589Y-62048390D01*
X92860589Y-62048390D02*
X92908208Y-62143628D01*
X92908208Y-62143628D02*
X92908208Y-62429342D01*
X92908208Y-62429342D02*
X92860589Y-62524580D01*
X92860589Y-62524580D02*
X92812970Y-62572200D01*
X92812970Y-62572200D02*
X92717732Y-62619819D01*
X92717732Y-62619819D02*
X92527256Y-62619819D01*
X92527256Y-62619819D02*
X92432018Y-62572200D01*
X93479637Y-62619819D02*
X93384399Y-62572200D01*
X93384399Y-62572200D02*
X93336780Y-62524580D01*
X93336780Y-62524580D02*
X93289161Y-62429342D01*
X93289161Y-62429342D02*
X93289161Y-62143628D01*
X93289161Y-62143628D02*
X93336780Y-62048390D01*
X93336780Y-62048390D02*
X93384399Y-62000771D01*
X93384399Y-62000771D02*
X93479637Y-61953152D01*
X93479637Y-61953152D02*
X93622494Y-61953152D01*
X93622494Y-61953152D02*
X93717732Y-62000771D01*
X93717732Y-62000771D02*
X93765351Y-62048390D01*
X93765351Y-62048390D02*
X93812970Y-62143628D01*
X93812970Y-62143628D02*
X93812970Y-62429342D01*
X93812970Y-62429342D02*
X93765351Y-62524580D01*
X93765351Y-62524580D02*
X93717732Y-62572200D01*
X93717732Y-62572200D02*
X93622494Y-62619819D01*
X93622494Y-62619819D02*
X93479637Y-62619819D01*
X94670113Y-62619819D02*
X94670113Y-62096009D01*
X94670113Y-62096009D02*
X94622494Y-62000771D01*
X94622494Y-62000771D02*
X94527256Y-61953152D01*
X94527256Y-61953152D02*
X94336780Y-61953152D01*
X94336780Y-61953152D02*
X94241542Y-62000771D01*
X94670113Y-62572200D02*
X94574875Y-62619819D01*
X94574875Y-62619819D02*
X94336780Y-62619819D01*
X94336780Y-62619819D02*
X94241542Y-62572200D01*
X94241542Y-62572200D02*
X94193923Y-62476961D01*
X94193923Y-62476961D02*
X94193923Y-62381723D01*
X94193923Y-62381723D02*
X94241542Y-62286485D01*
X94241542Y-62286485D02*
X94336780Y-62238866D01*
X94336780Y-62238866D02*
X94574875Y-62238866D01*
X94574875Y-62238866D02*
X94670113Y-62191247D01*
X95146304Y-62619819D02*
X95146304Y-61953152D01*
X95146304Y-62143628D02*
X95193923Y-62048390D01*
X95193923Y-62048390D02*
X95241542Y-62000771D01*
X95241542Y-62000771D02*
X95336780Y-61953152D01*
X95336780Y-61953152D02*
X95432018Y-61953152D01*
X96193923Y-62619819D02*
X96193923Y-61619819D01*
X96193923Y-62572200D02*
X96098685Y-62619819D01*
X96098685Y-62619819D02*
X95908209Y-62619819D01*
X95908209Y-62619819D02*
X95812971Y-62572200D01*
X95812971Y-62572200D02*
X95765352Y-62524580D01*
X95765352Y-62524580D02*
X95717733Y-62429342D01*
X95717733Y-62429342D02*
X95717733Y-62143628D01*
X95717733Y-62143628D02*
X95765352Y-62048390D01*
X95765352Y-62048390D02*
X95812971Y-62000771D01*
X95812971Y-62000771D02*
X95908209Y-61953152D01*
X95908209Y-61953152D02*
X96098685Y-61953152D01*
X96098685Y-61953152D02*
X96193923Y-62000771D01*
X97289162Y-61619819D02*
X97622495Y-62619819D01*
X97622495Y-62619819D02*
X97955828Y-61619819D01*
X98812971Y-62619819D02*
X98241543Y-62619819D01*
X98527257Y-62619819D02*
X98527257Y-61619819D01*
X98527257Y-61619819D02*
X98432019Y-61762676D01*
X98432019Y-61762676D02*
X98336781Y-61857914D01*
X98336781Y-61857914D02*
X98241543Y-61905533D01*
X99241543Y-62524580D02*
X99289162Y-62572200D01*
X99289162Y-62572200D02*
X99241543Y-62619819D01*
X99241543Y-62619819D02*
X99193924Y-62572200D01*
X99193924Y-62572200D02*
X99241543Y-62524580D01*
X99241543Y-62524580D02*
X99241543Y-62619819D01*
X99908209Y-61619819D02*
X100003447Y-61619819D01*
X100003447Y-61619819D02*
X100098685Y-61667438D01*
X100098685Y-61667438D02*
X100146304Y-61715057D01*
X100146304Y-61715057D02*
X100193923Y-61810295D01*
X100193923Y-61810295D02*
X100241542Y-62000771D01*
X100241542Y-62000771D02*
X100241542Y-62238866D01*
X100241542Y-62238866D02*
X100193923Y-62429342D01*
X100193923Y-62429342D02*
X100146304Y-62524580D01*
X100146304Y-62524580D02*
X100098685Y-62572200D01*
X100098685Y-62572200D02*
X100003447Y-62619819D01*
X100003447Y-62619819D02*
X99908209Y-62619819D01*
X99908209Y-62619819D02*
X99812971Y-62572200D01*
X99812971Y-62572200D02*
X99765352Y-62524580D01*
X99765352Y-62524580D02*
X99717733Y-62429342D01*
X99717733Y-62429342D02*
X99670114Y-62238866D01*
X99670114Y-62238866D02*
X99670114Y-62000771D01*
X99670114Y-62000771D02*
X99717733Y-61810295D01*
X99717733Y-61810295D02*
X99765352Y-61715057D01*
X99765352Y-61715057D02*
X99812971Y-61667438D01*
X99812971Y-61667438D02*
X99908209Y-61619819D01*
D12*
X86363720Y-68617219D02*
X86488720Y-67617219D01*
X86488720Y-67617219D02*
X86726816Y-67617219D01*
X86726816Y-67617219D02*
X86863720Y-67664838D01*
X86863720Y-67664838D02*
X86947054Y-67760076D01*
X86947054Y-67760076D02*
X86982768Y-67855314D01*
X86982768Y-67855314D02*
X87006578Y-68045790D01*
X87006578Y-68045790D02*
X86988720Y-68188647D01*
X86988720Y-68188647D02*
X86917292Y-68379123D01*
X86917292Y-68379123D02*
X86857768Y-68474361D01*
X86857768Y-68474361D02*
X86750625Y-68569600D01*
X86750625Y-68569600D02*
X86601816Y-68617219D01*
X86601816Y-68617219D02*
X86363720Y-68617219D01*
X87792292Y-68617219D02*
X87857768Y-68093409D01*
X87857768Y-68093409D02*
X87822054Y-67998171D01*
X87822054Y-67998171D02*
X87732768Y-67950552D01*
X87732768Y-67950552D02*
X87542292Y-67950552D01*
X87542292Y-67950552D02*
X87441101Y-67998171D01*
X87798244Y-68569600D02*
X87697054Y-68617219D01*
X87697054Y-68617219D02*
X87458958Y-68617219D01*
X87458958Y-68617219D02*
X87369673Y-68569600D01*
X87369673Y-68569600D02*
X87333958Y-68474361D01*
X87333958Y-68474361D02*
X87345863Y-68379123D01*
X87345863Y-68379123D02*
X87405387Y-68283885D01*
X87405387Y-68283885D02*
X87506578Y-68236266D01*
X87506578Y-68236266D02*
X87744673Y-68236266D01*
X87744673Y-68236266D02*
X87845863Y-68188647D01*
X88208959Y-67950552D02*
X88589911Y-67950552D01*
X88393482Y-67617219D02*
X88286340Y-68474361D01*
X88286340Y-68474361D02*
X88322054Y-68569600D01*
X88322054Y-68569600D02*
X88411340Y-68617219D01*
X88411340Y-68617219D02*
X88506578Y-68617219D01*
X89226816Y-68569600D02*
X89125626Y-68617219D01*
X89125626Y-68617219D02*
X88935149Y-68617219D01*
X88935149Y-68617219D02*
X88845864Y-68569600D01*
X88845864Y-68569600D02*
X88810149Y-68474361D01*
X88810149Y-68474361D02*
X88857769Y-68093409D01*
X88857769Y-68093409D02*
X88917292Y-67998171D01*
X88917292Y-67998171D02*
X89018483Y-67950552D01*
X89018483Y-67950552D02*
X89208959Y-67950552D01*
X89208959Y-67950552D02*
X89298245Y-67998171D01*
X89298245Y-67998171D02*
X89333959Y-68093409D01*
X89333959Y-68093409D02*
X89322054Y-68188647D01*
X89322054Y-68188647D02*
X88833959Y-68283885D01*
X89708959Y-68521980D02*
X89750626Y-68569600D01*
X89750626Y-68569600D02*
X89697054Y-68617219D01*
X89697054Y-68617219D02*
X89655388Y-68569600D01*
X89655388Y-68569600D02*
X89708959Y-68521980D01*
X89708959Y-68521980D02*
X89697054Y-68617219D01*
X89774435Y-67998171D02*
X89816102Y-68045790D01*
X89816102Y-68045790D02*
X89762531Y-68093409D01*
X89762531Y-68093409D02*
X89720864Y-68045790D01*
X89720864Y-68045790D02*
X89774435Y-67998171D01*
X89774435Y-67998171D02*
X89762531Y-68093409D01*
D10*
X91596009Y-91598684D02*
X91643628Y-91455827D01*
X91643628Y-91455827D02*
X91691247Y-91408208D01*
X91691247Y-91408208D02*
X91786485Y-91360589D01*
X91786485Y-91360589D02*
X91929342Y-91360589D01*
X91929342Y-91360589D02*
X92024580Y-91408208D01*
X92024580Y-91408208D02*
X92072200Y-91455827D01*
X92072200Y-91455827D02*
X92119819Y-91551065D01*
X92119819Y-91551065D02*
X92119819Y-91932017D01*
X92119819Y-91932017D02*
X91119819Y-91932017D01*
X91119819Y-91932017D02*
X91119819Y-91598684D01*
X91119819Y-91598684D02*
X91167438Y-91503446D01*
X91167438Y-91503446D02*
X91215057Y-91455827D01*
X91215057Y-91455827D02*
X91310295Y-91408208D01*
X91310295Y-91408208D02*
X91405533Y-91408208D01*
X91405533Y-91408208D02*
X91500771Y-91455827D01*
X91500771Y-91455827D02*
X91548390Y-91503446D01*
X91548390Y-91503446D02*
X91596009Y-91598684D01*
X91596009Y-91598684D02*
X91596009Y-91932017D01*
X92119819Y-90503446D02*
X91596009Y-90503446D01*
X91596009Y-90503446D02*
X91500771Y-90551065D01*
X91500771Y-90551065D02*
X91453152Y-90646303D01*
X91453152Y-90646303D02*
X91453152Y-90836779D01*
X91453152Y-90836779D02*
X91500771Y-90932017D01*
X92072200Y-90503446D02*
X92119819Y-90598684D01*
X92119819Y-90598684D02*
X92119819Y-90836779D01*
X92119819Y-90836779D02*
X92072200Y-90932017D01*
X92072200Y-90932017D02*
X91976961Y-90979636D01*
X91976961Y-90979636D02*
X91881723Y-90979636D01*
X91881723Y-90979636D02*
X91786485Y-90932017D01*
X91786485Y-90932017D02*
X91738866Y-90836779D01*
X91738866Y-90836779D02*
X91738866Y-90598684D01*
X91738866Y-90598684D02*
X91691247Y-90503446D01*
X92072200Y-90074874D02*
X92119819Y-89979636D01*
X92119819Y-89979636D02*
X92119819Y-89789160D01*
X92119819Y-89789160D02*
X92072200Y-89693922D01*
X92072200Y-89693922D02*
X91976961Y-89646303D01*
X91976961Y-89646303D02*
X91929342Y-89646303D01*
X91929342Y-89646303D02*
X91834104Y-89693922D01*
X91834104Y-89693922D02*
X91786485Y-89789160D01*
X91786485Y-89789160D02*
X91786485Y-89932017D01*
X91786485Y-89932017D02*
X91738866Y-90027255D01*
X91738866Y-90027255D02*
X91643628Y-90074874D01*
X91643628Y-90074874D02*
X91596009Y-90074874D01*
X91596009Y-90074874D02*
X91500771Y-90027255D01*
X91500771Y-90027255D02*
X91453152Y-89932017D01*
X91453152Y-89932017D02*
X91453152Y-89789160D01*
X91453152Y-89789160D02*
X91500771Y-89693922D01*
X92072200Y-88836779D02*
X92119819Y-88932017D01*
X92119819Y-88932017D02*
X92119819Y-89122493D01*
X92119819Y-89122493D02*
X92072200Y-89217731D01*
X92072200Y-89217731D02*
X91976961Y-89265350D01*
X91976961Y-89265350D02*
X91596009Y-89265350D01*
X91596009Y-89265350D02*
X91500771Y-89217731D01*
X91500771Y-89217731D02*
X91453152Y-89122493D01*
X91453152Y-89122493D02*
X91453152Y-88932017D01*
X91453152Y-88932017D02*
X91500771Y-88836779D01*
X91500771Y-88836779D02*
X91596009Y-88789160D01*
X91596009Y-88789160D02*
X91691247Y-88789160D01*
X91691247Y-88789160D02*
X91786485Y-89265350D01*
X63769819Y-92932017D02*
X64769819Y-92598684D01*
X64769819Y-92598684D02*
X63769819Y-92265351D01*
X63865057Y-91979636D02*
X63817438Y-91932017D01*
X63817438Y-91932017D02*
X63769819Y-91836779D01*
X63769819Y-91836779D02*
X63769819Y-91598684D01*
X63769819Y-91598684D02*
X63817438Y-91503446D01*
X63817438Y-91503446D02*
X63865057Y-91455827D01*
X63865057Y-91455827D02*
X63960295Y-91408208D01*
X63960295Y-91408208D02*
X64055533Y-91408208D01*
X64055533Y-91408208D02*
X64198390Y-91455827D01*
X64198390Y-91455827D02*
X64769819Y-92027255D01*
X64769819Y-92027255D02*
X64769819Y-91408208D01*
X64865057Y-91217732D02*
X64865057Y-90455827D01*
X64484104Y-90265350D02*
X64484104Y-89789160D01*
X64769819Y-90360588D02*
X63769819Y-90027255D01*
X63769819Y-90027255D02*
X64769819Y-89693922D01*
X64674580Y-88789160D02*
X64722200Y-88836779D01*
X64722200Y-88836779D02*
X64769819Y-88979636D01*
X64769819Y-88979636D02*
X64769819Y-89074874D01*
X64769819Y-89074874D02*
X64722200Y-89217731D01*
X64722200Y-89217731D02*
X64626961Y-89312969D01*
X64626961Y-89312969D02*
X64531723Y-89360588D01*
X64531723Y-89360588D02*
X64341247Y-89408207D01*
X64341247Y-89408207D02*
X64198390Y-89408207D01*
X64198390Y-89408207D02*
X64007914Y-89360588D01*
X64007914Y-89360588D02*
X63912676Y-89312969D01*
X63912676Y-89312969D02*
X63817438Y-89217731D01*
X63817438Y-89217731D02*
X63769819Y-89074874D01*
X63769819Y-89074874D02*
X63769819Y-88979636D01*
X63769819Y-88979636D02*
X63817438Y-88836779D01*
X63817438Y-88836779D02*
X63865057Y-88789160D01*
D12*
X86351816Y-64331504D02*
X86828006Y-64331504D01*
X86220863Y-64617219D02*
X86679197Y-63617219D01*
X86679197Y-63617219D02*
X86887530Y-64617219D01*
X87732768Y-63950552D02*
X87649435Y-64617219D01*
X87304197Y-63950552D02*
X87238721Y-64474361D01*
X87238721Y-64474361D02*
X87274435Y-64569600D01*
X87274435Y-64569600D02*
X87363721Y-64617219D01*
X87363721Y-64617219D02*
X87506578Y-64617219D01*
X87506578Y-64617219D02*
X87607768Y-64569600D01*
X87607768Y-64569600D02*
X87661340Y-64521980D01*
X88066102Y-63950552D02*
X88447054Y-63950552D01*
X88250625Y-63617219D02*
X88143483Y-64474361D01*
X88143483Y-64474361D02*
X88179197Y-64569600D01*
X88179197Y-64569600D02*
X88268483Y-64617219D01*
X88268483Y-64617219D02*
X88363721Y-64617219D01*
X88697054Y-64617219D02*
X88822054Y-63617219D01*
X89125626Y-64617219D02*
X89191102Y-64093409D01*
X89191102Y-64093409D02*
X89155388Y-63998171D01*
X89155388Y-63998171D02*
X89066102Y-63950552D01*
X89066102Y-63950552D02*
X88923245Y-63950552D01*
X88923245Y-63950552D02*
X88822054Y-63998171D01*
X88822054Y-63998171D02*
X88768483Y-64045790D01*
X89744674Y-64617219D02*
X89655388Y-64569600D01*
X89655388Y-64569600D02*
X89613721Y-64521980D01*
X89613721Y-64521980D02*
X89578007Y-64426742D01*
X89578007Y-64426742D02*
X89613721Y-64141028D01*
X89613721Y-64141028D02*
X89673245Y-64045790D01*
X89673245Y-64045790D02*
X89726816Y-63998171D01*
X89726816Y-63998171D02*
X89828007Y-63950552D01*
X89828007Y-63950552D02*
X89970864Y-63950552D01*
X89970864Y-63950552D02*
X90060150Y-63998171D01*
X90060150Y-63998171D02*
X90101816Y-64045790D01*
X90101816Y-64045790D02*
X90137531Y-64141028D01*
X90137531Y-64141028D02*
X90101816Y-64426742D01*
X90101816Y-64426742D02*
X90042293Y-64521980D01*
X90042293Y-64521980D02*
X89988721Y-64569600D01*
X89988721Y-64569600D02*
X89887531Y-64617219D01*
X89887531Y-64617219D02*
X89744674Y-64617219D01*
X90506578Y-64617219D02*
X90589912Y-63950552D01*
X90566102Y-64141028D02*
X90625626Y-64045790D01*
X90625626Y-64045790D02*
X90679197Y-63998171D01*
X90679197Y-63998171D02*
X90780388Y-63950552D01*
X90780388Y-63950552D02*
X90875626Y-63950552D01*
X91137531Y-64521980D02*
X91179198Y-64569600D01*
X91179198Y-64569600D02*
X91125626Y-64617219D01*
X91125626Y-64617219D02*
X91083960Y-64569600D01*
X91083960Y-64569600D02*
X91137531Y-64521980D01*
X91137531Y-64521980D02*
X91125626Y-64617219D01*
X91203007Y-63998171D02*
X91244674Y-64045790D01*
X91244674Y-64045790D02*
X91191103Y-64093409D01*
X91191103Y-64093409D02*
X91149436Y-64045790D01*
X91149436Y-64045790D02*
X91203007Y-63998171D01*
X91203007Y-63998171D02*
X91191103Y-64093409D01*
D13*
G36*
X140822800Y-86995535D02*
G01*
X140859804Y-87032539D01*
X140904510Y-87121951D01*
X140904510Y-87479704D01*
X140859803Y-87569117D01*
X140822798Y-87606122D01*
X140733386Y-87650828D01*
X140589920Y-87650828D01*
X140500506Y-87606121D01*
X140463501Y-87569116D01*
X140418796Y-87479704D01*
X140418796Y-87121951D01*
X140463501Y-87032540D01*
X140500506Y-86995535D01*
X140589920Y-86950828D01*
X140733386Y-86950828D01*
X140822800Y-86995535D01*
G37*
G36*
X143725438Y-88117495D02*
G01*
X138524736Y-88117495D01*
X138524736Y-86319589D01*
X138691403Y-86319589D01*
X138697923Y-86348262D01*
X139197923Y-87848262D01*
X139209911Y-87875113D01*
X139216933Y-87883210D01*
X139221726Y-87892795D01*
X139235932Y-87905116D01*
X139248258Y-87919328D01*
X139257845Y-87924121D01*
X139265940Y-87931142D01*
X139283782Y-87937089D01*
X139300606Y-87945501D01*
X139311296Y-87946260D01*
X139321464Y-87949650D01*
X139340220Y-87948317D01*
X139358986Y-87949651D01*
X139369156Y-87946260D01*
X139379845Y-87945501D01*
X139396666Y-87937090D01*
X139414510Y-87931142D01*
X139422606Y-87924119D01*
X139432192Y-87919327D01*
X139444515Y-87905118D01*
X139458724Y-87892795D01*
X139463516Y-87883209D01*
X139470539Y-87875113D01*
X139482527Y-87848262D01*
X139736434Y-87086542D01*
X140118796Y-87086542D01*
X140118796Y-87515114D01*
X140121678Y-87544378D01*
X140123740Y-87549356D01*
X140124122Y-87554732D01*
X140134632Y-87582196D01*
X140206060Y-87725053D01*
X140213987Y-87737646D01*
X140215503Y-87741306D01*
X140218884Y-87745425D01*
X140221725Y-87749939D01*
X140224718Y-87752535D01*
X140234158Y-87764037D01*
X140305587Y-87835466D01*
X140317091Y-87844907D01*
X140319686Y-87847899D01*
X140324195Y-87850737D01*
X140328318Y-87854121D01*
X140331979Y-87855637D01*
X140344571Y-87863564D01*
X140487429Y-87934992D01*
X140514892Y-87945502D01*
X140520267Y-87945883D01*
X140525246Y-87947946D01*
X140554510Y-87950828D01*
X140768796Y-87950828D01*
X140798060Y-87947946D01*
X140803038Y-87945883D01*
X140808414Y-87945502D01*
X140835878Y-87934992D01*
X140978735Y-87863564D01*
X140991328Y-87855636D01*
X140994988Y-87854121D01*
X140999107Y-87850739D01*
X141003621Y-87847899D01*
X141006217Y-87844905D01*
X141017719Y-87835466D01*
X141089148Y-87764037D01*
X141098589Y-87752532D01*
X141101581Y-87749938D01*
X141104419Y-87745428D01*
X141107803Y-87741306D01*
X141109319Y-87737644D01*
X141117246Y-87725053D01*
X141188674Y-87582195D01*
X141199184Y-87554732D01*
X141199565Y-87549356D01*
X141201628Y-87544378D01*
X141204510Y-87515114D01*
X141204510Y-87086542D01*
X141201628Y-87057278D01*
X141199565Y-87052299D01*
X141199184Y-87046924D01*
X141188674Y-87019461D01*
X141117246Y-86876603D01*
X141109317Y-86864008D01*
X141107802Y-86860349D01*
X141104420Y-86856228D01*
X141101581Y-86851718D01*
X141098589Y-86849123D01*
X141089147Y-86837618D01*
X141052356Y-86800828D01*
X141547367Y-86800828D01*
X141547367Y-87586542D01*
X141550249Y-87615806D01*
X141552310Y-87620783D01*
X141552693Y-87626161D01*
X141563203Y-87653624D01*
X141634632Y-87796482D01*
X141637712Y-87801376D01*
X141638482Y-87803684D01*
X141640974Y-87806557D01*
X141650297Y-87821368D01*
X141664508Y-87833692D01*
X141676829Y-87847899D01*
X141691636Y-87857220D01*
X141694512Y-87859714D01*
X141696820Y-87860483D01*
X141701714Y-87863564D01*
X141844572Y-87934992D01*
X141872035Y-87945502D01*
X141877410Y-87945883D01*
X141882389Y-87947946D01*
X141911653Y-87950828D01*
X142125939Y-87950828D01*
X142155203Y-87947946D01*
X142160181Y-87945883D01*
X142165557Y-87945502D01*
X142193021Y-87934992D01*
X142241895Y-87910554D01*
X142256889Y-87925548D01*
X142310961Y-87947946D01*
X142369489Y-87947946D01*
X142423561Y-87925548D01*
X142464945Y-87884164D01*
X142487343Y-87830092D01*
X142490225Y-87800828D01*
X142490225Y-86800828D01*
X142487343Y-86771564D01*
X142693107Y-86771564D01*
X142693107Y-86830092D01*
X142715505Y-86884164D01*
X142756889Y-86925548D01*
X142810961Y-86947946D01*
X142840225Y-86950828D01*
X142904510Y-86950828D01*
X142904510Y-87586542D01*
X142907392Y-87615806D01*
X142909453Y-87620783D01*
X142909836Y-87626161D01*
X142920346Y-87653624D01*
X142991775Y-87796482D01*
X142994855Y-87801376D01*
X142995625Y-87803684D01*
X142998117Y-87806557D01*
X143007440Y-87821368D01*
X143021651Y-87833692D01*
X143033972Y-87847899D01*
X143048779Y-87857220D01*
X143051655Y-87859714D01*
X143053963Y-87860483D01*
X143058857Y-87863564D01*
X143201715Y-87934992D01*
X143229178Y-87945502D01*
X143234553Y-87945883D01*
X143239532Y-87947946D01*
X143268796Y-87950828D01*
X143411653Y-87950828D01*
X143440917Y-87947946D01*
X143494989Y-87925548D01*
X143536373Y-87884164D01*
X143558771Y-87830092D01*
X143558771Y-87771564D01*
X143536373Y-87717492D01*
X143494989Y-87676108D01*
X143440917Y-87653710D01*
X143411653Y-87650828D01*
X143304206Y-87650828D01*
X143237742Y-87617596D01*
X143204510Y-87551132D01*
X143204510Y-86950828D01*
X143411653Y-86950828D01*
X143440917Y-86947946D01*
X143494989Y-86925548D01*
X143536373Y-86884164D01*
X143558771Y-86830092D01*
X143558771Y-86771564D01*
X143536373Y-86717492D01*
X143494989Y-86676108D01*
X143440917Y-86653710D01*
X143411653Y-86650828D01*
X143204510Y-86650828D01*
X143204510Y-86300828D01*
X143201628Y-86271564D01*
X143179230Y-86217492D01*
X143137846Y-86176108D01*
X143083774Y-86153710D01*
X143025246Y-86153710D01*
X142971174Y-86176108D01*
X142929790Y-86217492D01*
X142907392Y-86271564D01*
X142904510Y-86300828D01*
X142904510Y-86650828D01*
X142840225Y-86650828D01*
X142810961Y-86653710D01*
X142756889Y-86676108D01*
X142715505Y-86717492D01*
X142693107Y-86771564D01*
X142487343Y-86771564D01*
X142464945Y-86717492D01*
X142423561Y-86676108D01*
X142369489Y-86653710D01*
X142310961Y-86653710D01*
X142256889Y-86676108D01*
X142215505Y-86717492D01*
X142193107Y-86771564D01*
X142190225Y-86800828D01*
X142190225Y-87595839D01*
X142179941Y-87606122D01*
X142090529Y-87650828D01*
X141947063Y-87650828D01*
X141880599Y-87617596D01*
X141847367Y-87551132D01*
X141847367Y-86800828D01*
X141844485Y-86771564D01*
X141822087Y-86717492D01*
X141780703Y-86676108D01*
X141726631Y-86653710D01*
X141668103Y-86653710D01*
X141614031Y-86676108D01*
X141572647Y-86717492D01*
X141550249Y-86771564D01*
X141547367Y-86800828D01*
X141052356Y-86800828D01*
X141017718Y-86766190D01*
X141006218Y-86756752D01*
X141003621Y-86753758D01*
X140999104Y-86750915D01*
X140994987Y-86747536D01*
X140991330Y-86746021D01*
X140978735Y-86738093D01*
X140835878Y-86666664D01*
X140808415Y-86656155D01*
X140803040Y-86655773D01*
X140798060Y-86653710D01*
X140768796Y-86650828D01*
X140554510Y-86650828D01*
X140525246Y-86653710D01*
X140520265Y-86655773D01*
X140514891Y-86656155D01*
X140487427Y-86666664D01*
X140344571Y-86738093D01*
X140331977Y-86746020D01*
X140328318Y-86747536D01*
X140324197Y-86750917D01*
X140319685Y-86753758D01*
X140317088Y-86756751D01*
X140305588Y-86766190D01*
X140234159Y-86837618D01*
X140224719Y-86849120D01*
X140221725Y-86851717D01*
X140218883Y-86856231D01*
X140215504Y-86860349D01*
X140213988Y-86864007D01*
X140206060Y-86876603D01*
X140134632Y-87019460D01*
X140124122Y-87046924D01*
X140123740Y-87052299D01*
X140121678Y-87057278D01*
X140118796Y-87086542D01*
X139736434Y-87086542D01*
X139982528Y-86348262D01*
X139989048Y-86319588D01*
X139984898Y-86261208D01*
X139958724Y-86208861D01*
X139914510Y-86170514D01*
X139858986Y-86152005D01*
X139800606Y-86156155D01*
X139748258Y-86182328D01*
X139709911Y-86226543D01*
X139697923Y-86253394D01*
X139340225Y-87326486D01*
X138982527Y-86253394D01*
X138970539Y-86226543D01*
X138932192Y-86182329D01*
X138879845Y-86156155D01*
X138821464Y-86152006D01*
X138765940Y-86170514D01*
X138721726Y-86208861D01*
X138695552Y-86261208D01*
X138691403Y-86319589D01*
X138524736Y-86319589D01*
X138524736Y-85985338D01*
X143725438Y-85985338D01*
X143725438Y-88117495D01*
G37*
D12*
X86839911Y-60617219D02*
X86363720Y-60617219D01*
X86363720Y-60617219D02*
X86488720Y-59617219D01*
X87173244Y-60617219D02*
X87256578Y-59950552D01*
X87298244Y-59617219D02*
X87244673Y-59664838D01*
X87244673Y-59664838D02*
X87286340Y-59712457D01*
X87286340Y-59712457D02*
X87339911Y-59664838D01*
X87339911Y-59664838D02*
X87298244Y-59617219D01*
X87298244Y-59617219D02*
X87286340Y-59712457D01*
X87732768Y-59950552D02*
X87649434Y-60617219D01*
X87720863Y-60045790D02*
X87774434Y-59998171D01*
X87774434Y-59998171D02*
X87875625Y-59950552D01*
X87875625Y-59950552D02*
X88018482Y-59950552D01*
X88018482Y-59950552D02*
X88107768Y-59998171D01*
X88107768Y-59998171D02*
X88143482Y-60093409D01*
X88143482Y-60093409D02*
X88078006Y-60617219D01*
X88941101Y-60569600D02*
X88839911Y-60617219D01*
X88839911Y-60617219D02*
X88649434Y-60617219D01*
X88649434Y-60617219D02*
X88560149Y-60569600D01*
X88560149Y-60569600D02*
X88524434Y-60474361D01*
X88524434Y-60474361D02*
X88572054Y-60093409D01*
X88572054Y-60093409D02*
X88631577Y-59998171D01*
X88631577Y-59998171D02*
X88732768Y-59950552D01*
X88732768Y-59950552D02*
X88923244Y-59950552D01*
X88923244Y-59950552D02*
X89012530Y-59998171D01*
X89012530Y-59998171D02*
X89048244Y-60093409D01*
X89048244Y-60093409D02*
X89036339Y-60188647D01*
X89036339Y-60188647D02*
X88548244Y-60283885D01*
X89839911Y-60617219D02*
X89905387Y-60093409D01*
X89905387Y-60093409D02*
X89869673Y-59998171D01*
X89869673Y-59998171D02*
X89780387Y-59950552D01*
X89780387Y-59950552D02*
X89589911Y-59950552D01*
X89589911Y-59950552D02*
X89488720Y-59998171D01*
X89845863Y-60569600D02*
X89744673Y-60617219D01*
X89744673Y-60617219D02*
X89506577Y-60617219D01*
X89506577Y-60617219D02*
X89417292Y-60569600D01*
X89417292Y-60569600D02*
X89381577Y-60474361D01*
X89381577Y-60474361D02*
X89393482Y-60379123D01*
X89393482Y-60379123D02*
X89453006Y-60283885D01*
X89453006Y-60283885D02*
X89554197Y-60236266D01*
X89554197Y-60236266D02*
X89792292Y-60236266D01*
X89792292Y-60236266D02*
X89893482Y-60188647D01*
X90316101Y-60617219D02*
X90399435Y-59950552D01*
X90375625Y-60141028D02*
X90435149Y-60045790D01*
X90435149Y-60045790D02*
X90488720Y-59998171D01*
X90488720Y-59998171D02*
X90589911Y-59950552D01*
X90589911Y-59950552D02*
X90685149Y-59950552D01*
X91780388Y-59950552D02*
X91655388Y-60950552D01*
X91774435Y-59998171D02*
X91875626Y-59950552D01*
X91875626Y-59950552D02*
X92066102Y-59950552D01*
X92066102Y-59950552D02*
X92155388Y-59998171D01*
X92155388Y-59998171D02*
X92197054Y-60045790D01*
X92197054Y-60045790D02*
X92232769Y-60141028D01*
X92232769Y-60141028D02*
X92197054Y-60426742D01*
X92197054Y-60426742D02*
X92137531Y-60521980D01*
X92137531Y-60521980D02*
X92083959Y-60569600D01*
X92083959Y-60569600D02*
X91982769Y-60617219D01*
X91982769Y-60617219D02*
X91792292Y-60617219D01*
X91792292Y-60617219D02*
X91703007Y-60569600D01*
X92744674Y-60617219D02*
X92655388Y-60569600D01*
X92655388Y-60569600D02*
X92613721Y-60521980D01*
X92613721Y-60521980D02*
X92578007Y-60426742D01*
X92578007Y-60426742D02*
X92613721Y-60141028D01*
X92613721Y-60141028D02*
X92673245Y-60045790D01*
X92673245Y-60045790D02*
X92726816Y-59998171D01*
X92726816Y-59998171D02*
X92828007Y-59950552D01*
X92828007Y-59950552D02*
X92970864Y-59950552D01*
X92970864Y-59950552D02*
X93060150Y-59998171D01*
X93060150Y-59998171D02*
X93101816Y-60045790D01*
X93101816Y-60045790D02*
X93137531Y-60141028D01*
X93137531Y-60141028D02*
X93101816Y-60426742D01*
X93101816Y-60426742D02*
X93042293Y-60521980D01*
X93042293Y-60521980D02*
X92988721Y-60569600D01*
X92988721Y-60569600D02*
X92887531Y-60617219D01*
X92887531Y-60617219D02*
X92744674Y-60617219D01*
X93494674Y-59950552D02*
X93601816Y-60617219D01*
X93601816Y-60617219D02*
X93851816Y-60141028D01*
X93851816Y-60141028D02*
X93982769Y-60617219D01*
X93982769Y-60617219D02*
X94256578Y-59950552D01*
X94941102Y-60569600D02*
X94839912Y-60617219D01*
X94839912Y-60617219D02*
X94649435Y-60617219D01*
X94649435Y-60617219D02*
X94560150Y-60569600D01*
X94560150Y-60569600D02*
X94524435Y-60474361D01*
X94524435Y-60474361D02*
X94572055Y-60093409D01*
X94572055Y-60093409D02*
X94631578Y-59998171D01*
X94631578Y-59998171D02*
X94732769Y-59950552D01*
X94732769Y-59950552D02*
X94923245Y-59950552D01*
X94923245Y-59950552D02*
X95012531Y-59998171D01*
X95012531Y-59998171D02*
X95048245Y-60093409D01*
X95048245Y-60093409D02*
X95036340Y-60188647D01*
X95036340Y-60188647D02*
X94548245Y-60283885D01*
X95411340Y-60617219D02*
X95494674Y-59950552D01*
X95470864Y-60141028D02*
X95530388Y-60045790D01*
X95530388Y-60045790D02*
X95583959Y-59998171D01*
X95583959Y-59998171D02*
X95685150Y-59950552D01*
X95685150Y-59950552D02*
X95780388Y-59950552D01*
X96750627Y-60569600D02*
X96839912Y-60617219D01*
X96839912Y-60617219D02*
X97030389Y-60617219D01*
X97030389Y-60617219D02*
X97131579Y-60569600D01*
X97131579Y-60569600D02*
X97191103Y-60474361D01*
X97191103Y-60474361D02*
X97197055Y-60426742D01*
X97197055Y-60426742D02*
X97161341Y-60331504D01*
X97161341Y-60331504D02*
X97072055Y-60283885D01*
X97072055Y-60283885D02*
X96929198Y-60283885D01*
X96929198Y-60283885D02*
X96839912Y-60236266D01*
X96839912Y-60236266D02*
X96804198Y-60141028D01*
X96804198Y-60141028D02*
X96810151Y-60093409D01*
X96810151Y-60093409D02*
X96869674Y-59998171D01*
X96869674Y-59998171D02*
X96970865Y-59950552D01*
X96970865Y-59950552D02*
X97113722Y-59950552D01*
X97113722Y-59950552D02*
X97203008Y-59998171D01*
X98113722Y-59950552D02*
X98030389Y-60617219D01*
X97685151Y-59950552D02*
X97619675Y-60474361D01*
X97619675Y-60474361D02*
X97655389Y-60569600D01*
X97655389Y-60569600D02*
X97744675Y-60617219D01*
X97744675Y-60617219D02*
X97887532Y-60617219D01*
X97887532Y-60617219D02*
X97988722Y-60569600D01*
X97988722Y-60569600D02*
X98042294Y-60521980D01*
X98589913Y-59950552D02*
X98464913Y-60950552D01*
X98583960Y-59998171D02*
X98685151Y-59950552D01*
X98685151Y-59950552D02*
X98875627Y-59950552D01*
X98875627Y-59950552D02*
X98964913Y-59998171D01*
X98964913Y-59998171D02*
X99006579Y-60045790D01*
X99006579Y-60045790D02*
X99042294Y-60141028D01*
X99042294Y-60141028D02*
X99006579Y-60426742D01*
X99006579Y-60426742D02*
X98947056Y-60521980D01*
X98947056Y-60521980D02*
X98893484Y-60569600D01*
X98893484Y-60569600D02*
X98792294Y-60617219D01*
X98792294Y-60617219D02*
X98601817Y-60617219D01*
X98601817Y-60617219D02*
X98512532Y-60569600D01*
X99494675Y-59950552D02*
X99369675Y-60950552D01*
X99488722Y-59998171D02*
X99589913Y-59950552D01*
X99589913Y-59950552D02*
X99780389Y-59950552D01*
X99780389Y-59950552D02*
X99869675Y-59998171D01*
X99869675Y-59998171D02*
X99911341Y-60045790D01*
X99911341Y-60045790D02*
X99947056Y-60141028D01*
X99947056Y-60141028D02*
X99911341Y-60426742D01*
X99911341Y-60426742D02*
X99851818Y-60521980D01*
X99851818Y-60521980D02*
X99798246Y-60569600D01*
X99798246Y-60569600D02*
X99697056Y-60617219D01*
X99697056Y-60617219D02*
X99506579Y-60617219D01*
X99506579Y-60617219D02*
X99417294Y-60569600D01*
X100458961Y-60617219D02*
X100369675Y-60569600D01*
X100369675Y-60569600D02*
X100333961Y-60474361D01*
X100333961Y-60474361D02*
X100441103Y-59617219D01*
X100828009Y-59950552D02*
X100982771Y-60617219D01*
X101304199Y-59950552D02*
X100982771Y-60617219D01*
X100982771Y-60617219D02*
X100857771Y-60855314D01*
X100857771Y-60855314D02*
X100804199Y-60902933D01*
X100804199Y-60902933D02*
X100703009Y-60950552D01*
X102429200Y-59712457D02*
X102482771Y-59664838D01*
X102482771Y-59664838D02*
X102583961Y-59617219D01*
X102583961Y-59617219D02*
X102822057Y-59617219D01*
X102822057Y-59617219D02*
X102911342Y-59664838D01*
X102911342Y-59664838D02*
X102953009Y-59712457D01*
X102953009Y-59712457D02*
X102988723Y-59807695D01*
X102988723Y-59807695D02*
X102976819Y-59902933D01*
X102976819Y-59902933D02*
X102911342Y-60045790D01*
X102911342Y-60045790D02*
X102268485Y-60617219D01*
X102268485Y-60617219D02*
X102887533Y-60617219D01*
D10*
X59869819Y-92932017D02*
X60869819Y-92598684D01*
X60869819Y-92598684D02*
X59869819Y-92265351D01*
X59869819Y-92027255D02*
X59869819Y-91408208D01*
X59869819Y-91408208D02*
X60250771Y-91741541D01*
X60250771Y-91741541D02*
X60250771Y-91598684D01*
X60250771Y-91598684D02*
X60298390Y-91503446D01*
X60298390Y-91503446D02*
X60346009Y-91455827D01*
X60346009Y-91455827D02*
X60441247Y-91408208D01*
X60441247Y-91408208D02*
X60679342Y-91408208D01*
X60679342Y-91408208D02*
X60774580Y-91455827D01*
X60774580Y-91455827D02*
X60822200Y-91503446D01*
X60822200Y-91503446D02*
X60869819Y-91598684D01*
X60869819Y-91598684D02*
X60869819Y-91884398D01*
X60869819Y-91884398D02*
X60822200Y-91979636D01*
X60822200Y-91979636D02*
X60774580Y-92027255D01*
X60965057Y-91217732D02*
X60965057Y-90455827D01*
X60584104Y-90265350D02*
X60584104Y-89789160D01*
X60869819Y-90360588D02*
X59869819Y-90027255D01*
X59869819Y-90027255D02*
X60869819Y-89693922D01*
X60774580Y-88789160D02*
X60822200Y-88836779D01*
X60822200Y-88836779D02*
X60869819Y-88979636D01*
X60869819Y-88979636D02*
X60869819Y-89074874D01*
X60869819Y-89074874D02*
X60822200Y-89217731D01*
X60822200Y-89217731D02*
X60726961Y-89312969D01*
X60726961Y-89312969D02*
X60631723Y-89360588D01*
X60631723Y-89360588D02*
X60441247Y-89408207D01*
X60441247Y-89408207D02*
X60298390Y-89408207D01*
X60298390Y-89408207D02*
X60107914Y-89360588D01*
X60107914Y-89360588D02*
X60012676Y-89312969D01*
X60012676Y-89312969D02*
X59917438Y-89217731D01*
X59917438Y-89217731D02*
X59869819Y-89074874D01*
X59869819Y-89074874D02*
X59869819Y-88979636D01*
X59869819Y-88979636D02*
X59917438Y-88836779D01*
X59917438Y-88836779D02*
X59965057Y-88789160D01*
X84869819Y-93551066D02*
X84393628Y-93884399D01*
X84869819Y-94122494D02*
X83869819Y-94122494D01*
X83869819Y-94122494D02*
X83869819Y-93741542D01*
X83869819Y-93741542D02*
X83917438Y-93646304D01*
X83917438Y-93646304D02*
X83965057Y-93598685D01*
X83965057Y-93598685D02*
X84060295Y-93551066D01*
X84060295Y-93551066D02*
X84203152Y-93551066D01*
X84203152Y-93551066D02*
X84298390Y-93598685D01*
X84298390Y-93598685D02*
X84346009Y-93646304D01*
X84346009Y-93646304D02*
X84393628Y-93741542D01*
X84393628Y-93741542D02*
X84393628Y-94122494D01*
X84822200Y-92741542D02*
X84869819Y-92836780D01*
X84869819Y-92836780D02*
X84869819Y-93027256D01*
X84869819Y-93027256D02*
X84822200Y-93122494D01*
X84822200Y-93122494D02*
X84726961Y-93170113D01*
X84726961Y-93170113D02*
X84346009Y-93170113D01*
X84346009Y-93170113D02*
X84250771Y-93122494D01*
X84250771Y-93122494D02*
X84203152Y-93027256D01*
X84203152Y-93027256D02*
X84203152Y-92836780D01*
X84203152Y-92836780D02*
X84250771Y-92741542D01*
X84250771Y-92741542D02*
X84346009Y-92693923D01*
X84346009Y-92693923D02*
X84441247Y-92693923D01*
X84441247Y-92693923D02*
X84536485Y-93170113D01*
X84869819Y-92122494D02*
X84822200Y-92217732D01*
X84822200Y-92217732D02*
X84726961Y-92265351D01*
X84726961Y-92265351D02*
X83869819Y-92265351D01*
X84869819Y-91312970D02*
X84346009Y-91312970D01*
X84346009Y-91312970D02*
X84250771Y-91360589D01*
X84250771Y-91360589D02*
X84203152Y-91455827D01*
X84203152Y-91455827D02*
X84203152Y-91646303D01*
X84203152Y-91646303D02*
X84250771Y-91741541D01*
X84822200Y-91312970D02*
X84869819Y-91408208D01*
X84869819Y-91408208D02*
X84869819Y-91646303D01*
X84869819Y-91646303D02*
X84822200Y-91741541D01*
X84822200Y-91741541D02*
X84726961Y-91789160D01*
X84726961Y-91789160D02*
X84631723Y-91789160D01*
X84631723Y-91789160D02*
X84536485Y-91741541D01*
X84536485Y-91741541D02*
X84488866Y-91646303D01*
X84488866Y-91646303D02*
X84488866Y-91408208D01*
X84488866Y-91408208D02*
X84441247Y-91312970D01*
X84203152Y-90932017D02*
X84869819Y-90693922D01*
X84203152Y-90455827D02*
X84869819Y-90693922D01*
X84869819Y-90693922D02*
X85107914Y-90789160D01*
X85107914Y-90789160D02*
X85155533Y-90836779D01*
X85155533Y-90836779D02*
X85203152Y-90932017D01*
X84965057Y-90312970D02*
X84965057Y-89551065D01*
X84869819Y-88789160D02*
X84869819Y-89360588D01*
X84869819Y-89074874D02*
X83869819Y-89074874D01*
X83869819Y-89074874D02*
X84012676Y-89170112D01*
X84012676Y-89170112D02*
X84107914Y-89265350D01*
X84107914Y-89265350D02*
X84155533Y-89360588D01*
X71769819Y-92932017D02*
X72769819Y-92598684D01*
X72769819Y-92598684D02*
X71769819Y-92265351D01*
X71769819Y-91741541D02*
X71769819Y-91646303D01*
X71769819Y-91646303D02*
X71817438Y-91551065D01*
X71817438Y-91551065D02*
X71865057Y-91503446D01*
X71865057Y-91503446D02*
X71960295Y-91455827D01*
X71960295Y-91455827D02*
X72150771Y-91408208D01*
X72150771Y-91408208D02*
X72388866Y-91408208D01*
X72388866Y-91408208D02*
X72579342Y-91455827D01*
X72579342Y-91455827D02*
X72674580Y-91503446D01*
X72674580Y-91503446D02*
X72722200Y-91551065D01*
X72722200Y-91551065D02*
X72769819Y-91646303D01*
X72769819Y-91646303D02*
X72769819Y-91741541D01*
X72769819Y-91741541D02*
X72722200Y-91836779D01*
X72722200Y-91836779D02*
X72674580Y-91884398D01*
X72674580Y-91884398D02*
X72579342Y-91932017D01*
X72579342Y-91932017D02*
X72388866Y-91979636D01*
X72388866Y-91979636D02*
X72150771Y-91979636D01*
X72150771Y-91979636D02*
X71960295Y-91932017D01*
X71960295Y-91932017D02*
X71865057Y-91884398D01*
X71865057Y-91884398D02*
X71817438Y-91836779D01*
X71817438Y-91836779D02*
X71769819Y-91741541D01*
X72865057Y-91217732D02*
X72865057Y-90455827D01*
X72484104Y-90265350D02*
X72484104Y-89789160D01*
X72769819Y-90360588D02*
X71769819Y-90027255D01*
X71769819Y-90027255D02*
X72769819Y-89693922D01*
X72674580Y-88789160D02*
X72722200Y-88836779D01*
X72722200Y-88836779D02*
X72769819Y-88979636D01*
X72769819Y-88979636D02*
X72769819Y-89074874D01*
X72769819Y-89074874D02*
X72722200Y-89217731D01*
X72722200Y-89217731D02*
X72626961Y-89312969D01*
X72626961Y-89312969D02*
X72531723Y-89360588D01*
X72531723Y-89360588D02*
X72341247Y-89408207D01*
X72341247Y-89408207D02*
X72198390Y-89408207D01*
X72198390Y-89408207D02*
X72007914Y-89360588D01*
X72007914Y-89360588D02*
X71912676Y-89312969D01*
X71912676Y-89312969D02*
X71817438Y-89217731D01*
X71817438Y-89217731D02*
X71769819Y-89074874D01*
X71769819Y-89074874D02*
X71769819Y-88979636D01*
X71769819Y-88979636D02*
X71817438Y-88836779D01*
X71817438Y-88836779D02*
X71865057Y-88789160D01*
X96855826Y-36838628D02*
X96855826Y-35338628D01*
X96855826Y-35338628D02*
X97712969Y-36838628D01*
X97712969Y-36838628D02*
X97712969Y-35338628D01*
X98641541Y-36838628D02*
X98498684Y-36767200D01*
X98498684Y-36767200D02*
X98427255Y-36695771D01*
X98427255Y-36695771D02*
X98355827Y-36552914D01*
X98355827Y-36552914D02*
X98355827Y-36124342D01*
X98355827Y-36124342D02*
X98427255Y-35981485D01*
X98427255Y-35981485D02*
X98498684Y-35910057D01*
X98498684Y-35910057D02*
X98641541Y-35838628D01*
X98641541Y-35838628D02*
X98855827Y-35838628D01*
X98855827Y-35838628D02*
X98998684Y-35910057D01*
X98998684Y-35910057D02*
X99070113Y-35981485D01*
X99070113Y-35981485D02*
X99141541Y-36124342D01*
X99141541Y-36124342D02*
X99141541Y-36552914D01*
X99141541Y-36552914D02*
X99070113Y-36695771D01*
X99070113Y-36695771D02*
X98998684Y-36767200D01*
X98998684Y-36767200D02*
X98855827Y-36838628D01*
X98855827Y-36838628D02*
X98641541Y-36838628D01*
X99570113Y-35838628D02*
X100141541Y-35838628D01*
X99784398Y-35338628D02*
X99784398Y-36624342D01*
X99784398Y-36624342D02*
X99855827Y-36767200D01*
X99855827Y-36767200D02*
X99998684Y-36838628D01*
X99998684Y-36838628D02*
X100141541Y-36838628D01*
X101212970Y-36767200D02*
X101070113Y-36838628D01*
X101070113Y-36838628D02*
X100784399Y-36838628D01*
X100784399Y-36838628D02*
X100641541Y-36767200D01*
X100641541Y-36767200D02*
X100570113Y-36624342D01*
X100570113Y-36624342D02*
X100570113Y-36052914D01*
X100570113Y-36052914D02*
X100641541Y-35910057D01*
X100641541Y-35910057D02*
X100784399Y-35838628D01*
X100784399Y-35838628D02*
X101070113Y-35838628D01*
X101070113Y-35838628D02*
X101212970Y-35910057D01*
X101212970Y-35910057D02*
X101284399Y-36052914D01*
X101284399Y-36052914D02*
X101284399Y-36195771D01*
X101284399Y-36195771D02*
X100570113Y-36338628D01*
X101927255Y-36695771D02*
X101998684Y-36767200D01*
X101998684Y-36767200D02*
X101927255Y-36838628D01*
X101927255Y-36838628D02*
X101855827Y-36767200D01*
X101855827Y-36767200D02*
X101927255Y-36695771D01*
X101927255Y-36695771D02*
X101927255Y-36838628D01*
X101927255Y-35910057D02*
X101998684Y-35981485D01*
X101998684Y-35981485D02*
X101927255Y-36052914D01*
X101927255Y-36052914D02*
X101855827Y-35981485D01*
X101855827Y-35981485D02*
X101927255Y-35910057D01*
X101927255Y-35910057D02*
X101927255Y-36052914D01*
X103784398Y-36838628D02*
X103784398Y-35338628D01*
X104427256Y-36767200D02*
X104570113Y-36838628D01*
X104570113Y-36838628D02*
X104855827Y-36838628D01*
X104855827Y-36838628D02*
X104998684Y-36767200D01*
X104998684Y-36767200D02*
X105070113Y-36624342D01*
X105070113Y-36624342D02*
X105070113Y-36552914D01*
X105070113Y-36552914D02*
X104998684Y-36410057D01*
X104998684Y-36410057D02*
X104855827Y-36338628D01*
X104855827Y-36338628D02*
X104641542Y-36338628D01*
X104641542Y-36338628D02*
X104498684Y-36267200D01*
X104498684Y-36267200D02*
X104427256Y-36124342D01*
X104427256Y-36124342D02*
X104427256Y-36052914D01*
X104427256Y-36052914D02*
X104498684Y-35910057D01*
X104498684Y-35910057D02*
X104641542Y-35838628D01*
X104641542Y-35838628D02*
X104855827Y-35838628D01*
X104855827Y-35838628D02*
X104998684Y-35910057D01*
X105927256Y-36838628D02*
X105784399Y-36767200D01*
X105784399Y-36767200D02*
X105712970Y-36695771D01*
X105712970Y-36695771D02*
X105641542Y-36552914D01*
X105641542Y-36552914D02*
X105641542Y-36124342D01*
X105641542Y-36124342D02*
X105712970Y-35981485D01*
X105712970Y-35981485D02*
X105784399Y-35910057D01*
X105784399Y-35910057D02*
X105927256Y-35838628D01*
X105927256Y-35838628D02*
X106141542Y-35838628D01*
X106141542Y-35838628D02*
X106284399Y-35910057D01*
X106284399Y-35910057D02*
X106355828Y-35981485D01*
X106355828Y-35981485D02*
X106427256Y-36124342D01*
X106427256Y-36124342D02*
X106427256Y-36552914D01*
X106427256Y-36552914D02*
X106355828Y-36695771D01*
X106355828Y-36695771D02*
X106284399Y-36767200D01*
X106284399Y-36767200D02*
X106141542Y-36838628D01*
X106141542Y-36838628D02*
X105927256Y-36838628D01*
X107284399Y-36838628D02*
X107141542Y-36767200D01*
X107141542Y-36767200D02*
X107070113Y-36624342D01*
X107070113Y-36624342D02*
X107070113Y-35338628D01*
X108498685Y-36838628D02*
X108498685Y-36052914D01*
X108498685Y-36052914D02*
X108427256Y-35910057D01*
X108427256Y-35910057D02*
X108284399Y-35838628D01*
X108284399Y-35838628D02*
X107998685Y-35838628D01*
X107998685Y-35838628D02*
X107855827Y-35910057D01*
X108498685Y-36767200D02*
X108355827Y-36838628D01*
X108355827Y-36838628D02*
X107998685Y-36838628D01*
X107998685Y-36838628D02*
X107855827Y-36767200D01*
X107855827Y-36767200D02*
X107784399Y-36624342D01*
X107784399Y-36624342D02*
X107784399Y-36481485D01*
X107784399Y-36481485D02*
X107855827Y-36338628D01*
X107855827Y-36338628D02*
X107998685Y-36267200D01*
X107998685Y-36267200D02*
X108355827Y-36267200D01*
X108355827Y-36267200D02*
X108498685Y-36195771D01*
X108998685Y-35838628D02*
X109570113Y-35838628D01*
X109212970Y-35338628D02*
X109212970Y-36624342D01*
X109212970Y-36624342D02*
X109284399Y-36767200D01*
X109284399Y-36767200D02*
X109427256Y-36838628D01*
X109427256Y-36838628D02*
X109570113Y-36838628D01*
X110641542Y-36767200D02*
X110498685Y-36838628D01*
X110498685Y-36838628D02*
X110212971Y-36838628D01*
X110212971Y-36838628D02*
X110070113Y-36767200D01*
X110070113Y-36767200D02*
X109998685Y-36624342D01*
X109998685Y-36624342D02*
X109998685Y-36052914D01*
X109998685Y-36052914D02*
X110070113Y-35910057D01*
X110070113Y-35910057D02*
X110212971Y-35838628D01*
X110212971Y-35838628D02*
X110498685Y-35838628D01*
X110498685Y-35838628D02*
X110641542Y-35910057D01*
X110641542Y-35910057D02*
X110712971Y-36052914D01*
X110712971Y-36052914D02*
X110712971Y-36195771D01*
X110712971Y-36195771D02*
X109998685Y-36338628D01*
X112284399Y-35838628D02*
X112855827Y-35838628D01*
X112498684Y-35338628D02*
X112498684Y-36624342D01*
X112498684Y-36624342D02*
X112570113Y-36767200D01*
X112570113Y-36767200D02*
X112712970Y-36838628D01*
X112712970Y-36838628D02*
X112855827Y-36838628D01*
X113355827Y-36838628D02*
X113355827Y-35338628D01*
X113998685Y-36838628D02*
X113998685Y-36052914D01*
X113998685Y-36052914D02*
X113927256Y-35910057D01*
X113927256Y-35910057D02*
X113784399Y-35838628D01*
X113784399Y-35838628D02*
X113570113Y-35838628D01*
X113570113Y-35838628D02*
X113427256Y-35910057D01*
X113427256Y-35910057D02*
X113355827Y-35981485D01*
X115284399Y-36767200D02*
X115141542Y-36838628D01*
X115141542Y-36838628D02*
X114855828Y-36838628D01*
X114855828Y-36838628D02*
X114712970Y-36767200D01*
X114712970Y-36767200D02*
X114641542Y-36624342D01*
X114641542Y-36624342D02*
X114641542Y-36052914D01*
X114641542Y-36052914D02*
X114712970Y-35910057D01*
X114712970Y-35910057D02*
X114855828Y-35838628D01*
X114855828Y-35838628D02*
X115141542Y-35838628D01*
X115141542Y-35838628D02*
X115284399Y-35910057D01*
X115284399Y-35910057D02*
X115355828Y-36052914D01*
X115355828Y-36052914D02*
X115355828Y-36195771D01*
X115355828Y-36195771D02*
X114641542Y-36338628D01*
X97498684Y-39253544D02*
X97498684Y-37753544D01*
X97498684Y-39182116D02*
X97355826Y-39253544D01*
X97355826Y-39253544D02*
X97070112Y-39253544D01*
X97070112Y-39253544D02*
X96927255Y-39182116D01*
X96927255Y-39182116D02*
X96855826Y-39110687D01*
X96855826Y-39110687D02*
X96784398Y-38967830D01*
X96784398Y-38967830D02*
X96784398Y-38539258D01*
X96784398Y-38539258D02*
X96855826Y-38396401D01*
X96855826Y-38396401D02*
X96927255Y-38324973D01*
X96927255Y-38324973D02*
X97070112Y-38253544D01*
X97070112Y-38253544D02*
X97355826Y-38253544D01*
X97355826Y-38253544D02*
X97498684Y-38324973D01*
X98212969Y-39253544D02*
X98212969Y-38253544D01*
X98212969Y-37753544D02*
X98141541Y-37824973D01*
X98141541Y-37824973D02*
X98212969Y-37896401D01*
X98212969Y-37896401D02*
X98284398Y-37824973D01*
X98284398Y-37824973D02*
X98212969Y-37753544D01*
X98212969Y-37753544D02*
X98212969Y-37896401D01*
X99141541Y-39253544D02*
X98998684Y-39182116D01*
X98998684Y-39182116D02*
X98927255Y-39110687D01*
X98927255Y-39110687D02*
X98855827Y-38967830D01*
X98855827Y-38967830D02*
X98855827Y-38539258D01*
X98855827Y-38539258D02*
X98927255Y-38396401D01*
X98927255Y-38396401D02*
X98998684Y-38324973D01*
X98998684Y-38324973D02*
X99141541Y-38253544D01*
X99141541Y-38253544D02*
X99355827Y-38253544D01*
X99355827Y-38253544D02*
X99498684Y-38324973D01*
X99498684Y-38324973D02*
X99570113Y-38396401D01*
X99570113Y-38396401D02*
X99641541Y-38539258D01*
X99641541Y-38539258D02*
X99641541Y-38967830D01*
X99641541Y-38967830D02*
X99570113Y-39110687D01*
X99570113Y-39110687D02*
X99498684Y-39182116D01*
X99498684Y-39182116D02*
X99355827Y-39253544D01*
X99355827Y-39253544D02*
X99141541Y-39253544D01*
X100927256Y-39253544D02*
X100927256Y-37753544D01*
X100927256Y-39182116D02*
X100784398Y-39253544D01*
X100784398Y-39253544D02*
X100498684Y-39253544D01*
X100498684Y-39253544D02*
X100355827Y-39182116D01*
X100355827Y-39182116D02*
X100284398Y-39110687D01*
X100284398Y-39110687D02*
X100212970Y-38967830D01*
X100212970Y-38967830D02*
X100212970Y-38539258D01*
X100212970Y-38539258D02*
X100284398Y-38396401D01*
X100284398Y-38396401D02*
X100355827Y-38324973D01*
X100355827Y-38324973D02*
X100498684Y-38253544D01*
X100498684Y-38253544D02*
X100784398Y-38253544D01*
X100784398Y-38253544D02*
X100927256Y-38324973D01*
X102212970Y-39182116D02*
X102070113Y-39253544D01*
X102070113Y-39253544D02*
X101784399Y-39253544D01*
X101784399Y-39253544D02*
X101641541Y-39182116D01*
X101641541Y-39182116D02*
X101570113Y-39039258D01*
X101570113Y-39039258D02*
X101570113Y-38467830D01*
X101570113Y-38467830D02*
X101641541Y-38324973D01*
X101641541Y-38324973D02*
X101784399Y-38253544D01*
X101784399Y-38253544D02*
X102070113Y-38253544D01*
X102070113Y-38253544D02*
X102212970Y-38324973D01*
X102212970Y-38324973D02*
X102284399Y-38467830D01*
X102284399Y-38467830D02*
X102284399Y-38610687D01*
X102284399Y-38610687D02*
X101570113Y-38753544D01*
X102855827Y-39182116D02*
X102998684Y-39253544D01*
X102998684Y-39253544D02*
X103284398Y-39253544D01*
X103284398Y-39253544D02*
X103427255Y-39182116D01*
X103427255Y-39182116D02*
X103498684Y-39039258D01*
X103498684Y-39039258D02*
X103498684Y-38967830D01*
X103498684Y-38967830D02*
X103427255Y-38824973D01*
X103427255Y-38824973D02*
X103284398Y-38753544D01*
X103284398Y-38753544D02*
X103070113Y-38753544D01*
X103070113Y-38753544D02*
X102927255Y-38682116D01*
X102927255Y-38682116D02*
X102855827Y-38539258D01*
X102855827Y-38539258D02*
X102855827Y-38467830D01*
X102855827Y-38467830D02*
X102927255Y-38324973D01*
X102927255Y-38324973D02*
X103070113Y-38253544D01*
X103070113Y-38253544D02*
X103284398Y-38253544D01*
X103284398Y-38253544D02*
X103427255Y-38324973D01*
X105855827Y-39182116D02*
X105712970Y-39253544D01*
X105712970Y-39253544D02*
X105427256Y-39253544D01*
X105427256Y-39253544D02*
X105284398Y-39182116D01*
X105284398Y-39182116D02*
X105212970Y-39039258D01*
X105212970Y-39039258D02*
X105212970Y-38467830D01*
X105212970Y-38467830D02*
X105284398Y-38324973D01*
X105284398Y-38324973D02*
X105427256Y-38253544D01*
X105427256Y-38253544D02*
X105712970Y-38253544D01*
X105712970Y-38253544D02*
X105855827Y-38324973D01*
X105855827Y-38324973D02*
X105927256Y-38467830D01*
X105927256Y-38467830D02*
X105927256Y-38610687D01*
X105927256Y-38610687D02*
X105212970Y-38753544D01*
X106784398Y-39253544D02*
X106641541Y-39182116D01*
X106641541Y-39182116D02*
X106570112Y-39039258D01*
X106570112Y-39039258D02*
X106570112Y-37753544D01*
X107927255Y-39182116D02*
X107784398Y-39253544D01*
X107784398Y-39253544D02*
X107498684Y-39253544D01*
X107498684Y-39253544D02*
X107355826Y-39182116D01*
X107355826Y-39182116D02*
X107284398Y-39039258D01*
X107284398Y-39039258D02*
X107284398Y-38467830D01*
X107284398Y-38467830D02*
X107355826Y-38324973D01*
X107355826Y-38324973D02*
X107498684Y-38253544D01*
X107498684Y-38253544D02*
X107784398Y-38253544D01*
X107784398Y-38253544D02*
X107927255Y-38324973D01*
X107927255Y-38324973D02*
X107998684Y-38467830D01*
X107998684Y-38467830D02*
X107998684Y-38610687D01*
X107998684Y-38610687D02*
X107284398Y-38753544D01*
X109284398Y-39182116D02*
X109141540Y-39253544D01*
X109141540Y-39253544D02*
X108855826Y-39253544D01*
X108855826Y-39253544D02*
X108712969Y-39182116D01*
X108712969Y-39182116D02*
X108641540Y-39110687D01*
X108641540Y-39110687D02*
X108570112Y-38967830D01*
X108570112Y-38967830D02*
X108570112Y-38539258D01*
X108570112Y-38539258D02*
X108641540Y-38396401D01*
X108641540Y-38396401D02*
X108712969Y-38324973D01*
X108712969Y-38324973D02*
X108855826Y-38253544D01*
X108855826Y-38253544D02*
X109141540Y-38253544D01*
X109141540Y-38253544D02*
X109284398Y-38324973D01*
X109712969Y-38253544D02*
X110284397Y-38253544D01*
X109927254Y-37753544D02*
X109927254Y-39039258D01*
X109927254Y-39039258D02*
X109998683Y-39182116D01*
X109998683Y-39182116D02*
X110141540Y-39253544D01*
X110141540Y-39253544D02*
X110284397Y-39253544D01*
X110784397Y-39253544D02*
X110784397Y-38253544D01*
X110784397Y-38539258D02*
X110855826Y-38396401D01*
X110855826Y-38396401D02*
X110927255Y-38324973D01*
X110927255Y-38324973D02*
X111070112Y-38253544D01*
X111070112Y-38253544D02*
X111212969Y-38253544D01*
X111712968Y-39253544D02*
X111712968Y-38253544D01*
X111712968Y-37753544D02*
X111641540Y-37824973D01*
X111641540Y-37824973D02*
X111712968Y-37896401D01*
X111712968Y-37896401D02*
X111784397Y-37824973D01*
X111784397Y-37824973D02*
X111712968Y-37753544D01*
X111712968Y-37753544D02*
X111712968Y-37896401D01*
X113070112Y-39182116D02*
X112927254Y-39253544D01*
X112927254Y-39253544D02*
X112641540Y-39253544D01*
X112641540Y-39253544D02*
X112498683Y-39182116D01*
X112498683Y-39182116D02*
X112427254Y-39110687D01*
X112427254Y-39110687D02*
X112355826Y-38967830D01*
X112355826Y-38967830D02*
X112355826Y-38539258D01*
X112355826Y-38539258D02*
X112427254Y-38396401D01*
X112427254Y-38396401D02*
X112498683Y-38324973D01*
X112498683Y-38324973D02*
X112641540Y-38253544D01*
X112641540Y-38253544D02*
X112927254Y-38253544D01*
X112927254Y-38253544D02*
X113070112Y-38324973D01*
X114355826Y-39253544D02*
X114355826Y-38467830D01*
X114355826Y-38467830D02*
X114284397Y-38324973D01*
X114284397Y-38324973D02*
X114141540Y-38253544D01*
X114141540Y-38253544D02*
X113855826Y-38253544D01*
X113855826Y-38253544D02*
X113712968Y-38324973D01*
X114355826Y-39182116D02*
X114212968Y-39253544D01*
X114212968Y-39253544D02*
X113855826Y-39253544D01*
X113855826Y-39253544D02*
X113712968Y-39182116D01*
X113712968Y-39182116D02*
X113641540Y-39039258D01*
X113641540Y-39039258D02*
X113641540Y-38896401D01*
X113641540Y-38896401D02*
X113712968Y-38753544D01*
X113712968Y-38753544D02*
X113855826Y-38682116D01*
X113855826Y-38682116D02*
X114212968Y-38682116D01*
X114212968Y-38682116D02*
X114355826Y-38610687D01*
X115284397Y-39253544D02*
X115141540Y-39182116D01*
X115141540Y-39182116D02*
X115070111Y-39039258D01*
X115070111Y-39039258D02*
X115070111Y-37753544D01*
X116070111Y-39253544D02*
X115927254Y-39182116D01*
X115927254Y-39182116D02*
X115855825Y-39039258D01*
X115855825Y-39039258D02*
X115855825Y-37753544D01*
X116498682Y-38253544D02*
X116855825Y-39253544D01*
X117212968Y-38253544D02*
X116855825Y-39253544D01*
X116855825Y-39253544D02*
X116712968Y-39610687D01*
X116712968Y-39610687D02*
X116641539Y-39682116D01*
X116641539Y-39682116D02*
X116498682Y-39753544D01*
X96641541Y-40668460D02*
X97212969Y-40668460D01*
X96855826Y-41668460D02*
X96855826Y-40382746D01*
X96855826Y-40382746D02*
X96927255Y-40239889D01*
X96927255Y-40239889D02*
X97070112Y-40168460D01*
X97070112Y-40168460D02*
X97212969Y-40168460D01*
X97712969Y-41668460D02*
X97712969Y-40668460D01*
X97712969Y-40954174D02*
X97784398Y-40811317D01*
X97784398Y-40811317D02*
X97855827Y-40739889D01*
X97855827Y-40739889D02*
X97998684Y-40668460D01*
X97998684Y-40668460D02*
X98141541Y-40668460D01*
X98855826Y-41668460D02*
X98712969Y-41597032D01*
X98712969Y-41597032D02*
X98641540Y-41525603D01*
X98641540Y-41525603D02*
X98570112Y-41382746D01*
X98570112Y-41382746D02*
X98570112Y-40954174D01*
X98570112Y-40954174D02*
X98641540Y-40811317D01*
X98641540Y-40811317D02*
X98712969Y-40739889D01*
X98712969Y-40739889D02*
X98855826Y-40668460D01*
X98855826Y-40668460D02*
X99070112Y-40668460D01*
X99070112Y-40668460D02*
X99212969Y-40739889D01*
X99212969Y-40739889D02*
X99284398Y-40811317D01*
X99284398Y-40811317D02*
X99355826Y-40954174D01*
X99355826Y-40954174D02*
X99355826Y-41382746D01*
X99355826Y-41382746D02*
X99284398Y-41525603D01*
X99284398Y-41525603D02*
X99212969Y-41597032D01*
X99212969Y-41597032D02*
X99070112Y-41668460D01*
X99070112Y-41668460D02*
X98855826Y-41668460D01*
X99998683Y-41668460D02*
X99998683Y-40668460D01*
X99998683Y-40811317D02*
X100070112Y-40739889D01*
X100070112Y-40739889D02*
X100212969Y-40668460D01*
X100212969Y-40668460D02*
X100427255Y-40668460D01*
X100427255Y-40668460D02*
X100570112Y-40739889D01*
X100570112Y-40739889D02*
X100641541Y-40882746D01*
X100641541Y-40882746D02*
X100641541Y-41668460D01*
X100641541Y-40882746D02*
X100712969Y-40739889D01*
X100712969Y-40739889D02*
X100855826Y-40668460D01*
X100855826Y-40668460D02*
X101070112Y-40668460D01*
X101070112Y-40668460D02*
X101212969Y-40739889D01*
X101212969Y-40739889D02*
X101284398Y-40882746D01*
X101284398Y-40882746D02*
X101284398Y-41668460D01*
X102927255Y-40668460D02*
X103498683Y-40668460D01*
X103141540Y-40168460D02*
X103141540Y-41454174D01*
X103141540Y-41454174D02*
X103212969Y-41597032D01*
X103212969Y-41597032D02*
X103355826Y-41668460D01*
X103355826Y-41668460D02*
X103498683Y-41668460D01*
X103998683Y-41668460D02*
X103998683Y-40168460D01*
X104641541Y-41668460D02*
X104641541Y-40882746D01*
X104641541Y-40882746D02*
X104570112Y-40739889D01*
X104570112Y-40739889D02*
X104427255Y-40668460D01*
X104427255Y-40668460D02*
X104212969Y-40668460D01*
X104212969Y-40668460D02*
X104070112Y-40739889D01*
X104070112Y-40739889D02*
X103998683Y-40811317D01*
X105927255Y-41597032D02*
X105784398Y-41668460D01*
X105784398Y-41668460D02*
X105498684Y-41668460D01*
X105498684Y-41668460D02*
X105355826Y-41597032D01*
X105355826Y-41597032D02*
X105284398Y-41454174D01*
X105284398Y-41454174D02*
X105284398Y-40882746D01*
X105284398Y-40882746D02*
X105355826Y-40739889D01*
X105355826Y-40739889D02*
X105498684Y-40668460D01*
X105498684Y-40668460D02*
X105784398Y-40668460D01*
X105784398Y-40668460D02*
X105927255Y-40739889D01*
X105927255Y-40739889D02*
X105998684Y-40882746D01*
X105998684Y-40882746D02*
X105998684Y-41025603D01*
X105998684Y-41025603D02*
X105284398Y-41168460D01*
X107784397Y-41668460D02*
X107784397Y-40168460D01*
X108427255Y-41668460D02*
X108427255Y-40882746D01*
X108427255Y-40882746D02*
X108355826Y-40739889D01*
X108355826Y-40739889D02*
X108212969Y-40668460D01*
X108212969Y-40668460D02*
X107998683Y-40668460D01*
X107998683Y-40668460D02*
X107855826Y-40739889D01*
X107855826Y-40739889D02*
X107784397Y-40811317D01*
X109712969Y-41597032D02*
X109570112Y-41668460D01*
X109570112Y-41668460D02*
X109284398Y-41668460D01*
X109284398Y-41668460D02*
X109141540Y-41597032D01*
X109141540Y-41597032D02*
X109070112Y-41454174D01*
X109070112Y-41454174D02*
X109070112Y-40882746D01*
X109070112Y-40882746D02*
X109141540Y-40739889D01*
X109141540Y-40739889D02*
X109284398Y-40668460D01*
X109284398Y-40668460D02*
X109570112Y-40668460D01*
X109570112Y-40668460D02*
X109712969Y-40739889D01*
X109712969Y-40739889D02*
X109784398Y-40882746D01*
X109784398Y-40882746D02*
X109784398Y-41025603D01*
X109784398Y-41025603D02*
X109070112Y-41168460D01*
X111070112Y-41668460D02*
X111070112Y-40882746D01*
X111070112Y-40882746D02*
X110998683Y-40739889D01*
X110998683Y-40739889D02*
X110855826Y-40668460D01*
X110855826Y-40668460D02*
X110570112Y-40668460D01*
X110570112Y-40668460D02*
X110427254Y-40739889D01*
X111070112Y-41597032D02*
X110927254Y-41668460D01*
X110927254Y-41668460D02*
X110570112Y-41668460D01*
X110570112Y-41668460D02*
X110427254Y-41597032D01*
X110427254Y-41597032D02*
X110355826Y-41454174D01*
X110355826Y-41454174D02*
X110355826Y-41311317D01*
X110355826Y-41311317D02*
X110427254Y-41168460D01*
X110427254Y-41168460D02*
X110570112Y-41097032D01*
X110570112Y-41097032D02*
X110927254Y-41097032D01*
X110927254Y-41097032D02*
X111070112Y-41025603D01*
X111570112Y-40668460D02*
X112141540Y-40668460D01*
X111784397Y-40168460D02*
X111784397Y-41454174D01*
X111784397Y-41454174D02*
X111855826Y-41597032D01*
X111855826Y-41597032D02*
X111998683Y-41668460D01*
X111998683Y-41668460D02*
X112141540Y-41668460D01*
X112570112Y-41597032D02*
X112712969Y-41668460D01*
X112712969Y-41668460D02*
X112998683Y-41668460D01*
X112998683Y-41668460D02*
X113141540Y-41597032D01*
X113141540Y-41597032D02*
X113212969Y-41454174D01*
X113212969Y-41454174D02*
X113212969Y-41382746D01*
X113212969Y-41382746D02*
X113141540Y-41239889D01*
X113141540Y-41239889D02*
X112998683Y-41168460D01*
X112998683Y-41168460D02*
X112784398Y-41168460D01*
X112784398Y-41168460D02*
X112641540Y-41097032D01*
X112641540Y-41097032D02*
X112570112Y-40954174D01*
X112570112Y-40954174D02*
X112570112Y-40882746D01*
X112570112Y-40882746D02*
X112641540Y-40739889D01*
X112641540Y-40739889D02*
X112784398Y-40668460D01*
X112784398Y-40668460D02*
X112998683Y-40668460D01*
X112998683Y-40668460D02*
X113141540Y-40739889D01*
X113855826Y-41668460D02*
X113855826Y-40668460D01*
X113855826Y-40168460D02*
X113784398Y-40239889D01*
X113784398Y-40239889D02*
X113855826Y-40311317D01*
X113855826Y-40311317D02*
X113927255Y-40239889D01*
X113927255Y-40239889D02*
X113855826Y-40168460D01*
X113855826Y-40168460D02*
X113855826Y-40311317D01*
X114570112Y-40668460D02*
X114570112Y-41668460D01*
X114570112Y-40811317D02*
X114641541Y-40739889D01*
X114641541Y-40739889D02*
X114784398Y-40668460D01*
X114784398Y-40668460D02*
X114998684Y-40668460D01*
X114998684Y-40668460D02*
X115141541Y-40739889D01*
X115141541Y-40739889D02*
X115212970Y-40882746D01*
X115212970Y-40882746D02*
X115212970Y-41668460D01*
X115927255Y-41668460D02*
X115927255Y-40168460D01*
X116070113Y-41097032D02*
X116498684Y-41668460D01*
X116498684Y-40668460D02*
X115927255Y-41239889D01*
X117141541Y-41525603D02*
X117212970Y-41597032D01*
X117212970Y-41597032D02*
X117141541Y-41668460D01*
X117141541Y-41668460D02*
X117070113Y-41597032D01*
X117070113Y-41597032D02*
X117141541Y-41525603D01*
X117141541Y-41525603D02*
X117141541Y-41668460D01*
X117141541Y-41097032D02*
X117070113Y-40239889D01*
X117070113Y-40239889D02*
X117141541Y-40168460D01*
X117141541Y-40168460D02*
X117212970Y-40239889D01*
X117212970Y-40239889D02*
X117141541Y-41097032D01*
X117141541Y-41097032D02*
X117141541Y-40168460D01*
X95275000Y-34150000D02*
X119425000Y-34150000D01*
X119425000Y-42400000D01*
X95275000Y-42400000D01*
X95275000Y-34150000D01*
X119057142Y-87584819D02*
X118723809Y-87108628D01*
X118485714Y-87584819D02*
X118485714Y-86584819D01*
X118485714Y-86584819D02*
X118866666Y-86584819D01*
X118866666Y-86584819D02*
X118961904Y-86632438D01*
X118961904Y-86632438D02*
X119009523Y-86680057D01*
X119009523Y-86680057D02*
X119057142Y-86775295D01*
X119057142Y-86775295D02*
X119057142Y-86918152D01*
X119057142Y-86918152D02*
X119009523Y-87013390D01*
X119009523Y-87013390D02*
X118961904Y-87061009D01*
X118961904Y-87061009D02*
X118866666Y-87108628D01*
X118866666Y-87108628D02*
X118485714Y-87108628D01*
X119914285Y-86918152D02*
X119914285Y-87584819D01*
X119676190Y-86537200D02*
X119438095Y-87251485D01*
X119438095Y-87251485D02*
X120057142Y-87251485D01*
X120628571Y-86584819D02*
X120723809Y-86584819D01*
X120723809Y-86584819D02*
X120819047Y-86632438D01*
X120819047Y-86632438D02*
X120866666Y-86680057D01*
X120866666Y-86680057D02*
X120914285Y-86775295D01*
X120914285Y-86775295D02*
X120961904Y-86965771D01*
X120961904Y-86965771D02*
X120961904Y-87203866D01*
X120961904Y-87203866D02*
X120914285Y-87394342D01*
X120914285Y-87394342D02*
X120866666Y-87489580D01*
X120866666Y-87489580D02*
X120819047Y-87537200D01*
X120819047Y-87537200D02*
X120723809Y-87584819D01*
X120723809Y-87584819D02*
X120628571Y-87584819D01*
X120628571Y-87584819D02*
X120533333Y-87537200D01*
X120533333Y-87537200D02*
X120485714Y-87489580D01*
X120485714Y-87489580D02*
X120438095Y-87394342D01*
X120438095Y-87394342D02*
X120390476Y-87203866D01*
X120390476Y-87203866D02*
X120390476Y-86965771D01*
X120390476Y-86965771D02*
X120438095Y-86775295D01*
X120438095Y-86775295D02*
X120485714Y-86680057D01*
X120485714Y-86680057D02*
X120533333Y-86632438D01*
X120533333Y-86632438D02*
X120628571Y-86584819D01*
X131159580Y-40942858D02*
X131207200Y-40990477D01*
X131207200Y-40990477D02*
X131254819Y-41133334D01*
X131254819Y-41133334D02*
X131254819Y-41228572D01*
X131254819Y-41228572D02*
X131207200Y-41371429D01*
X131207200Y-41371429D02*
X131111961Y-41466667D01*
X131111961Y-41466667D02*
X131016723Y-41514286D01*
X131016723Y-41514286D02*
X130826247Y-41561905D01*
X130826247Y-41561905D02*
X130683390Y-41561905D01*
X130683390Y-41561905D02*
X130492914Y-41514286D01*
X130492914Y-41514286D02*
X130397676Y-41466667D01*
X130397676Y-41466667D02*
X130302438Y-41371429D01*
X130302438Y-41371429D02*
X130254819Y-41228572D01*
X130254819Y-41228572D02*
X130254819Y-41133334D01*
X130254819Y-41133334D02*
X130302438Y-40990477D01*
X130302438Y-40990477D02*
X130350057Y-40942858D01*
X130254819Y-40609524D02*
X130254819Y-39990477D01*
X130254819Y-39990477D02*
X130635771Y-40323810D01*
X130635771Y-40323810D02*
X130635771Y-40180953D01*
X130635771Y-40180953D02*
X130683390Y-40085715D01*
X130683390Y-40085715D02*
X130731009Y-40038096D01*
X130731009Y-40038096D02*
X130826247Y-39990477D01*
X130826247Y-39990477D02*
X131064342Y-39990477D01*
X131064342Y-39990477D02*
X131159580Y-40038096D01*
X131159580Y-40038096D02*
X131207200Y-40085715D01*
X131207200Y-40085715D02*
X131254819Y-40180953D01*
X131254819Y-40180953D02*
X131254819Y-40466667D01*
X131254819Y-40466667D02*
X131207200Y-40561905D01*
X131207200Y-40561905D02*
X131159580Y-40609524D01*
X131254819Y-39038096D02*
X131254819Y-39609524D01*
X131254819Y-39323810D02*
X130254819Y-39323810D01*
X130254819Y-39323810D02*
X130397676Y-39419048D01*
X130397676Y-39419048D02*
X130492914Y-39514286D01*
X130492914Y-39514286D02*
X130540533Y-39609524D01*
X83354819Y-39714285D02*
X82354819Y-39714285D01*
X83354819Y-39142857D02*
X82783390Y-39571428D01*
X82354819Y-39142857D02*
X82926247Y-39714285D01*
X82450057Y-38761904D02*
X82402438Y-38714285D01*
X82402438Y-38714285D02*
X82354819Y-38619047D01*
X82354819Y-38619047D02*
X82354819Y-38380952D01*
X82354819Y-38380952D02*
X82402438Y-38285714D01*
X82402438Y-38285714D02*
X82450057Y-38238095D01*
X82450057Y-38238095D02*
X82545295Y-38190476D01*
X82545295Y-38190476D02*
X82640533Y-38190476D01*
X82640533Y-38190476D02*
X82783390Y-38238095D01*
X82783390Y-38238095D02*
X83354819Y-38809523D01*
X83354819Y-38809523D02*
X83354819Y-38190476D01*
X82354819Y-37571428D02*
X82354819Y-37476190D01*
X82354819Y-37476190D02*
X82402438Y-37380952D01*
X82402438Y-37380952D02*
X82450057Y-37333333D01*
X82450057Y-37333333D02*
X82545295Y-37285714D01*
X82545295Y-37285714D02*
X82735771Y-37238095D01*
X82735771Y-37238095D02*
X82973866Y-37238095D01*
X82973866Y-37238095D02*
X83164342Y-37285714D01*
X83164342Y-37285714D02*
X83259580Y-37333333D01*
X83259580Y-37333333D02*
X83307200Y-37380952D01*
X83307200Y-37380952D02*
X83354819Y-37476190D01*
X83354819Y-37476190D02*
X83354819Y-37571428D01*
X83354819Y-37571428D02*
X83307200Y-37666666D01*
X83307200Y-37666666D02*
X83259580Y-37714285D01*
X83259580Y-37714285D02*
X83164342Y-37761904D01*
X83164342Y-37761904D02*
X82973866Y-37809523D01*
X82973866Y-37809523D02*
X82735771Y-37809523D01*
X82735771Y-37809523D02*
X82545295Y-37761904D01*
X82545295Y-37761904D02*
X82450057Y-37714285D01*
X82450057Y-37714285D02*
X82402438Y-37666666D01*
X82402438Y-37666666D02*
X82354819Y-37571428D01*
X68785714Y-71354819D02*
X68785714Y-70354819D01*
X69357142Y-71354819D02*
X68928571Y-70783390D01*
X69357142Y-70354819D02*
X68785714Y-70926247D01*
X69738095Y-70450057D02*
X69785714Y-70402438D01*
X69785714Y-70402438D02*
X69880952Y-70354819D01*
X69880952Y-70354819D02*
X70119047Y-70354819D01*
X70119047Y-70354819D02*
X70214285Y-70402438D01*
X70214285Y-70402438D02*
X70261904Y-70450057D01*
X70261904Y-70450057D02*
X70309523Y-70545295D01*
X70309523Y-70545295D02*
X70309523Y-70640533D01*
X70309523Y-70640533D02*
X70261904Y-70783390D01*
X70261904Y-70783390D02*
X69690476Y-71354819D01*
X69690476Y-71354819D02*
X70309523Y-71354819D01*
X71261904Y-71354819D02*
X70690476Y-71354819D01*
X70976190Y-71354819D02*
X70976190Y-70354819D01*
X70976190Y-70354819D02*
X70880952Y-70497676D01*
X70880952Y-70497676D02*
X70785714Y-70592914D01*
X70785714Y-70592914D02*
X70690476Y-70640533D01*
X87240476Y-80204819D02*
X87240476Y-80919104D01*
X87240476Y-80919104D02*
X87192857Y-81061961D01*
X87192857Y-81061961D02*
X87097619Y-81157200D01*
X87097619Y-81157200D02*
X86954762Y-81204819D01*
X86954762Y-81204819D02*
X86859524Y-81204819D01*
X88240476Y-81204819D02*
X87669048Y-81204819D01*
X87954762Y-81204819D02*
X87954762Y-80204819D01*
X87954762Y-80204819D02*
X87859524Y-80347676D01*
X87859524Y-80347676D02*
X87764286Y-80442914D01*
X87764286Y-80442914D02*
X87669048Y-80490533D01*
X88859524Y-80204819D02*
X88954762Y-80204819D01*
X88954762Y-80204819D02*
X89050000Y-80252438D01*
X89050000Y-80252438D02*
X89097619Y-80300057D01*
X89097619Y-80300057D02*
X89145238Y-80395295D01*
X89145238Y-80395295D02*
X89192857Y-80585771D01*
X89192857Y-80585771D02*
X89192857Y-80823866D01*
X89192857Y-80823866D02*
X89145238Y-81014342D01*
X89145238Y-81014342D02*
X89097619Y-81109580D01*
X89097619Y-81109580D02*
X89050000Y-81157200D01*
X89050000Y-81157200D02*
X88954762Y-81204819D01*
X88954762Y-81204819D02*
X88859524Y-81204819D01*
X88859524Y-81204819D02*
X88764286Y-81157200D01*
X88764286Y-81157200D02*
X88716667Y-81109580D01*
X88716667Y-81109580D02*
X88669048Y-81014342D01*
X88669048Y-81014342D02*
X88621429Y-80823866D01*
X88621429Y-80823866D02*
X88621429Y-80585771D01*
X88621429Y-80585771D02*
X88669048Y-80395295D01*
X88669048Y-80395295D02*
X88716667Y-80300057D01*
X88716667Y-80300057D02*
X88764286Y-80252438D01*
X88764286Y-80252438D02*
X88859524Y-80204819D01*
X139990476Y-78154819D02*
X139990476Y-78869104D01*
X139990476Y-78869104D02*
X139942857Y-79011961D01*
X139942857Y-79011961D02*
X139847619Y-79107200D01*
X139847619Y-79107200D02*
X139704762Y-79154819D01*
X139704762Y-79154819D02*
X139609524Y-79154819D01*
X140990476Y-79154819D02*
X140419048Y-79154819D01*
X140704762Y-79154819D02*
X140704762Y-78154819D01*
X140704762Y-78154819D02*
X140609524Y-78297676D01*
X140609524Y-78297676D02*
X140514286Y-78392914D01*
X140514286Y-78392914D02*
X140419048Y-78440533D01*
X141371429Y-78250057D02*
X141419048Y-78202438D01*
X141419048Y-78202438D02*
X141514286Y-78154819D01*
X141514286Y-78154819D02*
X141752381Y-78154819D01*
X141752381Y-78154819D02*
X141847619Y-78202438D01*
X141847619Y-78202438D02*
X141895238Y-78250057D01*
X141895238Y-78250057D02*
X141942857Y-78345295D01*
X141942857Y-78345295D02*
X141942857Y-78440533D01*
X141942857Y-78440533D02*
X141895238Y-78583390D01*
X141895238Y-78583390D02*
X141323810Y-79154819D01*
X141323810Y-79154819D02*
X141942857Y-79154819D01*
X133928571Y-82614700D02*
X135071429Y-82614700D01*
X134500000Y-83186128D02*
X134500000Y-82043271D01*
X146928571Y-82614700D02*
X148071429Y-82614700D01*
X131275243Y-64142858D02*
X131322863Y-64190477D01*
X131322863Y-64190477D02*
X131370482Y-64333334D01*
X131370482Y-64333334D02*
X131370482Y-64428572D01*
X131370482Y-64428572D02*
X131322863Y-64571429D01*
X131322863Y-64571429D02*
X131227624Y-64666667D01*
X131227624Y-64666667D02*
X131132386Y-64714286D01*
X131132386Y-64714286D02*
X130941910Y-64761905D01*
X130941910Y-64761905D02*
X130799053Y-64761905D01*
X130799053Y-64761905D02*
X130608577Y-64714286D01*
X130608577Y-64714286D02*
X130513339Y-64666667D01*
X130513339Y-64666667D02*
X130418101Y-64571429D01*
X130418101Y-64571429D02*
X130370482Y-64428572D01*
X130370482Y-64428572D02*
X130370482Y-64333334D01*
X130370482Y-64333334D02*
X130418101Y-64190477D01*
X130418101Y-64190477D02*
X130465720Y-64142858D01*
X130370482Y-63809524D02*
X130370482Y-63190477D01*
X130370482Y-63190477D02*
X130751434Y-63523810D01*
X130751434Y-63523810D02*
X130751434Y-63380953D01*
X130751434Y-63380953D02*
X130799053Y-63285715D01*
X130799053Y-63285715D02*
X130846672Y-63238096D01*
X130846672Y-63238096D02*
X130941910Y-63190477D01*
X130941910Y-63190477D02*
X131180005Y-63190477D01*
X131180005Y-63190477D02*
X131275243Y-63238096D01*
X131275243Y-63238096D02*
X131322863Y-63285715D01*
X131322863Y-63285715D02*
X131370482Y-63380953D01*
X131370482Y-63380953D02*
X131370482Y-63666667D01*
X131370482Y-63666667D02*
X131322863Y-63761905D01*
X131322863Y-63761905D02*
X131275243Y-63809524D01*
X130370482Y-62571429D02*
X130370482Y-62476191D01*
X130370482Y-62476191D02*
X130418101Y-62380953D01*
X130418101Y-62380953D02*
X130465720Y-62333334D01*
X130465720Y-62333334D02*
X130560958Y-62285715D01*
X130560958Y-62285715D02*
X130751434Y-62238096D01*
X130751434Y-62238096D02*
X130989529Y-62238096D01*
X130989529Y-62238096D02*
X131180005Y-62285715D01*
X131180005Y-62285715D02*
X131275243Y-62333334D01*
X131275243Y-62333334D02*
X131322863Y-62380953D01*
X131322863Y-62380953D02*
X131370482Y-62476191D01*
X131370482Y-62476191D02*
X131370482Y-62571429D01*
X131370482Y-62571429D02*
X131322863Y-62666667D01*
X131322863Y-62666667D02*
X131275243Y-62714286D01*
X131275243Y-62714286D02*
X131180005Y-62761905D01*
X131180005Y-62761905D02*
X130989529Y-62809524D01*
X130989529Y-62809524D02*
X130751434Y-62809524D01*
X130751434Y-62809524D02*
X130560958Y-62761905D01*
X130560958Y-62761905D02*
X130465720Y-62714286D01*
X130465720Y-62714286D02*
X130418101Y-62666667D01*
X130418101Y-62666667D02*
X130370482Y-62571429D01*
X119057142Y-79584819D02*
X118723809Y-79108628D01*
X118485714Y-79584819D02*
X118485714Y-78584819D01*
X118485714Y-78584819D02*
X118866666Y-78584819D01*
X118866666Y-78584819D02*
X118961904Y-78632438D01*
X118961904Y-78632438D02*
X119009523Y-78680057D01*
X119009523Y-78680057D02*
X119057142Y-78775295D01*
X119057142Y-78775295D02*
X119057142Y-78918152D01*
X119057142Y-78918152D02*
X119009523Y-79013390D01*
X119009523Y-79013390D02*
X118961904Y-79061009D01*
X118961904Y-79061009D02*
X118866666Y-79108628D01*
X118866666Y-79108628D02*
X118485714Y-79108628D01*
X119914285Y-78918152D02*
X119914285Y-79584819D01*
X119676190Y-78537200D02*
X119438095Y-79251485D01*
X119438095Y-79251485D02*
X120057142Y-79251485D01*
X120961904Y-79584819D02*
X120390476Y-79584819D01*
X120676190Y-79584819D02*
X120676190Y-78584819D01*
X120676190Y-78584819D02*
X120580952Y-78727676D01*
X120580952Y-78727676D02*
X120485714Y-78822914D01*
X120485714Y-78822914D02*
X120390476Y-78870533D01*
X65512976Y-77404819D02*
X65512976Y-78119104D01*
X65512976Y-78119104D02*
X65465357Y-78261961D01*
X65465357Y-78261961D02*
X65370119Y-78357200D01*
X65370119Y-78357200D02*
X65227262Y-78404819D01*
X65227262Y-78404819D02*
X65132024Y-78404819D01*
X66512976Y-78404819D02*
X65941548Y-78404819D01*
X66227262Y-78404819D02*
X66227262Y-77404819D01*
X66227262Y-77404819D02*
X66132024Y-77547676D01*
X66132024Y-77547676D02*
X66036786Y-77642914D01*
X66036786Y-77642914D02*
X65941548Y-77690533D01*
X67465357Y-78404819D02*
X66893929Y-78404819D01*
X67179643Y-78404819D02*
X67179643Y-77404819D01*
X67179643Y-77404819D02*
X67084405Y-77547676D01*
X67084405Y-77547676D02*
X66989167Y-77642914D01*
X66989167Y-77642914D02*
X66893929Y-77690533D01*
D14*
%TO.C,G\u002A\u002A\u002A*%
G36*
X78229232Y-85508647D02*
G01*
X78261631Y-85520911D01*
X78269836Y-85527731D01*
X78288316Y-85544894D01*
X78316334Y-85571662D01*
X78353148Y-85607298D01*
X78398018Y-85651062D01*
X78450205Y-85702216D01*
X78508968Y-85760023D01*
X78573567Y-85823745D01*
X78643261Y-85892643D01*
X78717311Y-85965979D01*
X78794977Y-86043015D01*
X78875518Y-86123013D01*
X78958194Y-86205235D01*
X79042266Y-86288942D01*
X79126992Y-86373397D01*
X79211633Y-86457861D01*
X79295449Y-86541596D01*
X79377699Y-86623865D01*
X79457643Y-86703928D01*
X79534542Y-86781048D01*
X79607655Y-86854487D01*
X79676242Y-86923506D01*
X79739562Y-86987368D01*
X79796876Y-87045333D01*
X79847443Y-87096665D01*
X79890524Y-87140625D01*
X79925378Y-87176475D01*
X79951265Y-87203476D01*
X79967445Y-87220891D01*
X79973066Y-87227701D01*
X79991337Y-87277003D01*
X79995617Y-87327165D01*
X79986702Y-87375548D01*
X79965391Y-87419514D01*
X79932484Y-87456424D01*
X79896764Y-87479896D01*
X79856421Y-87500000D01*
X79420031Y-87500000D01*
X78983641Y-87500000D01*
X78016996Y-88466856D01*
X77893868Y-88590028D01*
X77781291Y-88702656D01*
X77678741Y-88805221D01*
X77585696Y-88898204D01*
X77501633Y-88982087D01*
X77426030Y-89057352D01*
X77358364Y-89124479D01*
X77298112Y-89183950D01*
X77244752Y-89236246D01*
X77197762Y-89281849D01*
X77156618Y-89321240D01*
X77120798Y-89354901D01*
X77089779Y-89383313D01*
X77063039Y-89406956D01*
X77040055Y-89426314D01*
X77020305Y-89441867D01*
X77003266Y-89454096D01*
X76988415Y-89463483D01*
X76975230Y-89470509D01*
X76963188Y-89475655D01*
X76951766Y-89479404D01*
X76940442Y-89482236D01*
X76928694Y-89484633D01*
X76915999Y-89487076D01*
X76907539Y-89488800D01*
X76882986Y-89492153D01*
X76845426Y-89494911D01*
X76797352Y-89497078D01*
X76741255Y-89498654D01*
X76679627Y-89499640D01*
X76614960Y-89500039D01*
X76549746Y-89499851D01*
X76486476Y-89499078D01*
X76427643Y-89497722D01*
X76375738Y-89495783D01*
X76333253Y-89493264D01*
X76302679Y-89490165D01*
X76292863Y-89488449D01*
X76245009Y-89475719D01*
X76205819Y-89459679D01*
X76168331Y-89437172D01*
X76148939Y-89423176D01*
X76101124Y-89379191D01*
X76059789Y-89325552D01*
X76028839Y-89267578D01*
X76022358Y-89250698D01*
X76017498Y-89236060D01*
X76013575Y-89221749D01*
X76010468Y-89205885D01*
X76008050Y-89186591D01*
X76006197Y-89161988D01*
X76004787Y-89130198D01*
X76003694Y-89089342D01*
X76002795Y-89037542D01*
X76001964Y-88972920D01*
X76001543Y-88935823D01*
X76001231Y-88900526D01*
X76367087Y-88900526D01*
X76367087Y-89132912D01*
X76597570Y-89132912D01*
X76655774Y-89132847D01*
X76708581Y-89132663D01*
X76754064Y-89132377D01*
X76790296Y-89132005D01*
X76815353Y-89131564D01*
X76827308Y-89131071D01*
X76828052Y-89130910D01*
X76822712Y-89125144D01*
X76807457Y-89109498D01*
X76783434Y-89085130D01*
X76751790Y-89053195D01*
X76713673Y-89014851D01*
X76670229Y-88971254D01*
X76622605Y-88923560D01*
X76597570Y-88898523D01*
X76367087Y-88668139D01*
X76367087Y-88900526D01*
X76001231Y-88900526D01*
X76000798Y-88851412D01*
X76000721Y-88780835D01*
X76001480Y-88722308D01*
X76003246Y-88674047D01*
X76003683Y-88668139D01*
X76006187Y-88634270D01*
X76010473Y-88601190D01*
X76016274Y-88573025D01*
X76023760Y-88547991D01*
X76033099Y-88524304D01*
X76042587Y-88503968D01*
X76046410Y-88496645D01*
X76051148Y-88488712D01*
X76057293Y-88479659D01*
X76065341Y-88468976D01*
X76075785Y-88456156D01*
X76089120Y-88440688D01*
X76105840Y-88422064D01*
X76116793Y-88410212D01*
X76623822Y-88410212D01*
X76856805Y-88638599D01*
X76906715Y-88687436D01*
X76953153Y-88732707D01*
X76994942Y-88773274D01*
X77030900Y-88808001D01*
X77059849Y-88835749D01*
X77080610Y-88855383D01*
X77092001Y-88865763D01*
X77093816Y-88867128D01*
X77100384Y-88861920D01*
X77116048Y-88847401D01*
X77138924Y-88825380D01*
X77167127Y-88797665D01*
X77191409Y-88773462D01*
X77284973Y-88679654D01*
X77052657Y-88447337D01*
X76820340Y-88215021D01*
X76722081Y-88312616D01*
X76623822Y-88410212D01*
X76116793Y-88410212D01*
X76126440Y-88399774D01*
X76151414Y-88373310D01*
X76181256Y-88342162D01*
X76216461Y-88305822D01*
X76257522Y-88263779D01*
X76304934Y-88215526D01*
X76359192Y-88160553D01*
X76420790Y-88098350D01*
X76490221Y-88028409D01*
X76564221Y-87954002D01*
X77080897Y-87954002D01*
X77311919Y-88183965D01*
X77361429Y-88233158D01*
X77407496Y-88278755D01*
X77448949Y-88319609D01*
X77484615Y-88354574D01*
X77513324Y-88382503D01*
X77533904Y-88402251D01*
X77545184Y-88412670D01*
X77546969Y-88414023D01*
X77553548Y-88408802D01*
X77569200Y-88394289D01*
X77592022Y-88372314D01*
X77620106Y-88344703D01*
X77642678Y-88322198D01*
X77673209Y-88291192D01*
X77699431Y-88263805D01*
X77719512Y-88242016D01*
X77731614Y-88227802D01*
X77734358Y-88223377D01*
X77729036Y-88216940D01*
X77714020Y-88200953D01*
X77690737Y-88176844D01*
X77660612Y-88146044D01*
X77625070Y-88109980D01*
X77585539Y-88070081D01*
X77543443Y-88027776D01*
X77500209Y-87984493D01*
X77457262Y-87941662D01*
X77416028Y-87900711D01*
X77377934Y-87863069D01*
X77344404Y-87830164D01*
X77316866Y-87803426D01*
X77296744Y-87784283D01*
X77289685Y-87777805D01*
X77272735Y-87762624D01*
X77176816Y-87858313D01*
X77080897Y-87954002D01*
X76564221Y-87954002D01*
X76567981Y-87950221D01*
X76654564Y-87863277D01*
X76750464Y-87767067D01*
X76856174Y-87661083D01*
X76972191Y-87544814D01*
X77016845Y-87500072D01*
X77535299Y-87500072D01*
X77765646Y-87730519D01*
X77815023Y-87779822D01*
X77860968Y-87825516D01*
X77902311Y-87866452D01*
X77937884Y-87901479D01*
X77966518Y-87929450D01*
X77987045Y-87949216D01*
X77998295Y-87959627D01*
X78000072Y-87960965D01*
X78006668Y-87955711D01*
X78022338Y-87941169D01*
X78045173Y-87919169D01*
X78073268Y-87891542D01*
X78095831Y-87869046D01*
X78126374Y-87837983D01*
X78152606Y-87810469D01*
X78172687Y-87788498D01*
X78184781Y-87774067D01*
X78187511Y-87769480D01*
X78182160Y-87762280D01*
X78167058Y-87745587D01*
X78143632Y-87720829D01*
X78113308Y-87689430D01*
X78077514Y-87652819D01*
X78037677Y-87612420D01*
X77995223Y-87569661D01*
X77951580Y-87525969D01*
X77908173Y-87482769D01*
X77866431Y-87441488D01*
X77827780Y-87403552D01*
X77793646Y-87370388D01*
X77765458Y-87343423D01*
X77744640Y-87324083D01*
X77732622Y-87313793D01*
X77730380Y-87312488D01*
X77722478Y-87317768D01*
X77705622Y-87332393D01*
X77681788Y-87354538D01*
X77652950Y-87382379D01*
X77628847Y-87406280D01*
X77535299Y-87500072D01*
X77016845Y-87500072D01*
X77034731Y-87482151D01*
X77469133Y-87046914D01*
X77988447Y-87046914D01*
X78218797Y-87277363D01*
X78268174Y-87326667D01*
X78314118Y-87372362D01*
X78355461Y-87413297D01*
X78391034Y-87448325D01*
X78419668Y-87476296D01*
X78440194Y-87496062D01*
X78451443Y-87506474D01*
X78453220Y-87507813D01*
X78459794Y-87502554D01*
X78475488Y-87487972D01*
X78498436Y-87465860D01*
X78526775Y-87438010D01*
X78552853Y-87412023D01*
X78648413Y-87316233D01*
X78415926Y-87083843D01*
X78183439Y-86851453D01*
X78085943Y-86949184D01*
X77988447Y-87046914D01*
X77469133Y-87046914D01*
X77995918Y-86519116D01*
X78366929Y-86519116D01*
X78673692Y-86825953D01*
X78980454Y-87132789D01*
X79175793Y-87132789D01*
X79371132Y-87132789D01*
X78871124Y-86632728D01*
X78371116Y-86132668D01*
X78369023Y-86325892D01*
X78366929Y-86519116D01*
X77995918Y-86519116D01*
X78000000Y-86515026D01*
X78000000Y-86079302D01*
X78000000Y-85643578D01*
X78019914Y-85603615D01*
X78048891Y-85561636D01*
X78087166Y-85530173D01*
X78131883Y-85510203D01*
X78180190Y-85502702D01*
X78229232Y-85508647D01*
G37*
D15*
%TO.C,R40*%
X113520000Y-90500000D02*
X113630000Y-90500000D01*
X113630000Y-88130000D02*
X113630000Y-92870000D01*
X113630000Y-92870000D02*
X125770000Y-92870000D01*
X125770000Y-88130000D02*
X113630000Y-88130000D01*
X125770000Y-92870000D02*
X125770000Y-88130000D01*
X125880000Y-90500000D02*
X125770000Y-90500000D01*
%TO.C,C31*%
X130942832Y-34065000D02*
X133142832Y-34065000D01*
X132042832Y-32965000D02*
X132042832Y-35165000D01*
X142842169Y-29219000D02*
X142842169Y-51381000D01*
X142882169Y-29220000D02*
X142882169Y-51380000D01*
X142922169Y-29220000D02*
X142922169Y-51380000D01*
X142962169Y-29220000D02*
X142962169Y-51380000D01*
X143002169Y-29221000D02*
X143002169Y-51379000D01*
X143042169Y-29221000D02*
X143042169Y-51379000D01*
X143082169Y-29222000D02*
X143082169Y-51378000D01*
X143122169Y-29223000D02*
X143122169Y-51377000D01*
X143162169Y-29224000D02*
X143162169Y-51376000D01*
X143202169Y-29225000D02*
X143202169Y-51375000D01*
X143242169Y-29227000D02*
X143242169Y-51373000D01*
X143282169Y-29228000D02*
X143282169Y-51372000D01*
X143322169Y-29230000D02*
X143322169Y-51370000D01*
X143362169Y-29232000D02*
X143362169Y-51368000D01*
X143402169Y-29234000D02*
X143402169Y-51366000D01*
X143442169Y-29236000D02*
X143442169Y-51364000D01*
X143482169Y-29238000D02*
X143482169Y-51362000D01*
X143522169Y-29240000D02*
X143522169Y-51360000D01*
X143563169Y-29243000D02*
X143563169Y-51357000D01*
X143603169Y-29246000D02*
X143603169Y-51354000D01*
X143643169Y-29248000D02*
X143643169Y-51352000D01*
X143683169Y-29251000D02*
X143683169Y-51349000D01*
X143723169Y-29254000D02*
X143723169Y-51346000D01*
X143763169Y-29258000D02*
X143763169Y-51342000D01*
X143803169Y-29261000D02*
X143803169Y-51339000D01*
X143843169Y-29265000D02*
X143843169Y-51335000D01*
X143883169Y-29268000D02*
X143883169Y-51332000D01*
X143923169Y-29272000D02*
X143923169Y-51328000D01*
X143963169Y-29276000D02*
X143963169Y-51324000D01*
X144003169Y-29280000D02*
X144003169Y-51320000D01*
X144043169Y-29284000D02*
X144043169Y-51316000D01*
X144083169Y-29289000D02*
X144083169Y-51311000D01*
X144123169Y-29293000D02*
X144123169Y-51307000D01*
X144163169Y-29298000D02*
X144163169Y-51302000D01*
X144203169Y-29303000D02*
X144203169Y-51297000D01*
X144243169Y-29308000D02*
X144243169Y-51292000D01*
X144283169Y-29313000D02*
X144283169Y-51287000D01*
X144323169Y-29318000D02*
X144323169Y-51282000D01*
X144363169Y-29324000D02*
X144363169Y-51276000D01*
X144403169Y-29329000D02*
X144403169Y-51271000D01*
X144443169Y-29335000D02*
X144443169Y-51265000D01*
X144483169Y-29341000D02*
X144483169Y-51259000D01*
X144523169Y-29347000D02*
X144523169Y-51253000D01*
X144563169Y-29353000D02*
X144563169Y-51247000D01*
X144603169Y-29360000D02*
X144603169Y-51240000D01*
X144643169Y-29366000D02*
X144643169Y-51234000D01*
X144683169Y-29373000D02*
X144683169Y-51227000D01*
X144723169Y-29380000D02*
X144723169Y-51220000D01*
X144763169Y-29387000D02*
X144763169Y-51213000D01*
X144803169Y-29394000D02*
X144803169Y-51206000D01*
X144843169Y-29401000D02*
X144843169Y-51199000D01*
X144883169Y-29408000D02*
X144883169Y-51192000D01*
X144923169Y-29416000D02*
X144923169Y-51184000D01*
X144963169Y-29423000D02*
X144963169Y-51177000D01*
X145003169Y-29431000D02*
X145003169Y-51169000D01*
X145043169Y-29439000D02*
X145043169Y-51161000D01*
X145083169Y-29447000D02*
X145083169Y-51153000D01*
X145123169Y-29456000D02*
X145123169Y-51144000D01*
X145163169Y-29464000D02*
X145163169Y-51136000D01*
X145203169Y-29473000D02*
X145203169Y-51127000D01*
X145243169Y-29482000D02*
X145243169Y-51118000D01*
X145283169Y-29491000D02*
X145283169Y-51109000D01*
X145323169Y-29500000D02*
X145323169Y-51100000D01*
X145363169Y-29509000D02*
X145363169Y-51091000D01*
X145403169Y-29518000D02*
X145403169Y-51082000D01*
X145443169Y-29528000D02*
X145443169Y-51072000D01*
X145483169Y-29537000D02*
X145483169Y-51063000D01*
X145523169Y-29547000D02*
X145523169Y-51053000D01*
X145563169Y-29557000D02*
X145563169Y-51043000D01*
X145603169Y-29567000D02*
X145603169Y-38060000D01*
X145603169Y-42540000D02*
X145603169Y-51033000D01*
X145643169Y-29578000D02*
X145643169Y-38060000D01*
X145643169Y-42540000D02*
X145643169Y-51022000D01*
X145683169Y-29588000D02*
X145683169Y-38060000D01*
X145683169Y-42540000D02*
X145683169Y-51012000D01*
X145723169Y-29599000D02*
X145723169Y-38060000D01*
X145723169Y-42540000D02*
X145723169Y-51001000D01*
X145763169Y-29610000D02*
X145763169Y-38060000D01*
X145763169Y-42540000D02*
X145763169Y-50990000D01*
X145803169Y-29621000D02*
X145803169Y-38060000D01*
X145803169Y-42540000D02*
X145803169Y-50979000D01*
X145843169Y-29632000D02*
X145843169Y-38060000D01*
X145843169Y-42540000D02*
X145843169Y-50968000D01*
X145883169Y-29643000D02*
X145883169Y-38060000D01*
X145883169Y-42540000D02*
X145883169Y-50957000D01*
X145923169Y-29655000D02*
X145923169Y-38060000D01*
X145923169Y-42540000D02*
X145923169Y-50945000D01*
X145963169Y-29666000D02*
X145963169Y-38060000D01*
X145963169Y-42540000D02*
X145963169Y-50934000D01*
X146003169Y-29678000D02*
X146003169Y-38060000D01*
X146003169Y-42540000D02*
X146003169Y-50922000D01*
X146043169Y-29690000D02*
X146043169Y-38060000D01*
X146043169Y-42540000D02*
X146043169Y-50910000D01*
X146083169Y-29702000D02*
X146083169Y-38060000D01*
X146083169Y-42540000D02*
X146083169Y-50898000D01*
X146123169Y-29714000D02*
X146123169Y-38060000D01*
X146123169Y-42540000D02*
X146123169Y-50886000D01*
X146163169Y-29727000D02*
X146163169Y-38060000D01*
X146163169Y-42540000D02*
X146163169Y-50873000D01*
X146203169Y-29739000D02*
X146203169Y-38060000D01*
X146203169Y-42540000D02*
X146203169Y-50861000D01*
X146243169Y-29752000D02*
X146243169Y-38060000D01*
X146243169Y-42540000D02*
X146243169Y-50848000D01*
X146283169Y-29765000D02*
X146283169Y-38060000D01*
X146283169Y-42540000D02*
X146283169Y-50835000D01*
X146323169Y-29778000D02*
X146323169Y-38060000D01*
X146323169Y-42540000D02*
X146323169Y-50822000D01*
X146363169Y-29791000D02*
X146363169Y-38060000D01*
X146363169Y-42540000D02*
X146363169Y-50809000D01*
X146403169Y-29805000D02*
X146403169Y-38060000D01*
X146403169Y-42540000D02*
X146403169Y-50795000D01*
X146443169Y-29818000D02*
X146443169Y-38060000D01*
X146443169Y-42540000D02*
X146443169Y-50782000D01*
X146483169Y-29832000D02*
X146483169Y-38060000D01*
X146483169Y-42540000D02*
X146483169Y-50768000D01*
X146523169Y-29846000D02*
X146523169Y-38060000D01*
X146523169Y-42540000D02*
X146523169Y-50754000D01*
X146563169Y-29860000D02*
X146563169Y-38060000D01*
X146563169Y-42540000D02*
X146563169Y-50740000D01*
X146603169Y-29874000D02*
X146603169Y-38060000D01*
X146603169Y-42540000D02*
X146603169Y-50726000D01*
X146643169Y-29889000D02*
X146643169Y-38060000D01*
X146643169Y-42540000D02*
X146643169Y-50711000D01*
X146683169Y-29904000D02*
X146683169Y-38060000D01*
X146683169Y-42540000D02*
X146683169Y-50696000D01*
X146723169Y-29918000D02*
X146723169Y-38060000D01*
X146723169Y-42540000D02*
X146723169Y-50682000D01*
X146763169Y-29933000D02*
X146763169Y-38060000D01*
X146763169Y-42540000D02*
X146763169Y-50667000D01*
X146803169Y-29949000D02*
X146803169Y-38060000D01*
X146803169Y-42540000D02*
X146803169Y-50651000D01*
X146843169Y-29964000D02*
X146843169Y-38060000D01*
X146843169Y-42540000D02*
X146843169Y-50636000D01*
X146883169Y-29979000D02*
X146883169Y-38060000D01*
X146883169Y-42540000D02*
X146883169Y-50621000D01*
X146923169Y-29995000D02*
X146923169Y-38060000D01*
X146923169Y-42540000D02*
X146923169Y-50605000D01*
X146963169Y-30011000D02*
X146963169Y-38060000D01*
X146963169Y-42540000D02*
X146963169Y-50589000D01*
X147003169Y-30027000D02*
X147003169Y-38060000D01*
X147003169Y-42540000D02*
X147003169Y-50573000D01*
X147043169Y-30043000D02*
X147043169Y-38060000D01*
X147043169Y-42540000D02*
X147043169Y-50557000D01*
X147083169Y-30060000D02*
X147083169Y-38060000D01*
X147083169Y-42540000D02*
X147083169Y-50540000D01*
X147123169Y-30076000D02*
X147123169Y-38060000D01*
X147123169Y-42540000D02*
X147123169Y-50524000D01*
X147163169Y-30093000D02*
X147163169Y-38060000D01*
X147163169Y-42540000D02*
X147163169Y-50507000D01*
X147203169Y-30110000D02*
X147203169Y-38060000D01*
X147203169Y-42540000D02*
X147203169Y-50490000D01*
X147243169Y-30127000D02*
X147243169Y-38060000D01*
X147243169Y-42540000D02*
X147243169Y-50473000D01*
X147283169Y-30144000D02*
X147283169Y-38060000D01*
X147283169Y-42540000D02*
X147283169Y-50456000D01*
X147323169Y-30162000D02*
X147323169Y-38060000D01*
X147323169Y-42540000D02*
X147323169Y-50438000D01*
X147363169Y-30180000D02*
X147363169Y-38060000D01*
X147363169Y-42540000D02*
X147363169Y-50420000D01*
X147403169Y-30197000D02*
X147403169Y-38060000D01*
X147403169Y-42540000D02*
X147403169Y-50403000D01*
X147443169Y-30216000D02*
X147443169Y-38060000D01*
X147443169Y-42540000D02*
X147443169Y-50384000D01*
X147483169Y-30234000D02*
X147483169Y-38060000D01*
X147483169Y-42540000D02*
X147483169Y-50366000D01*
X147523169Y-30252000D02*
X147523169Y-38060000D01*
X147523169Y-42540000D02*
X147523169Y-50348000D01*
X147563169Y-30271000D02*
X147563169Y-38060000D01*
X147563169Y-42540000D02*
X147563169Y-50329000D01*
X147603169Y-30290000D02*
X147603169Y-38060000D01*
X147603169Y-42540000D02*
X147603169Y-50310000D01*
X147643169Y-30309000D02*
X147643169Y-38060000D01*
X147643169Y-42540000D02*
X147643169Y-50291000D01*
X147683169Y-30328000D02*
X147683169Y-38060000D01*
X147683169Y-42540000D02*
X147683169Y-50272000D01*
X147723169Y-30348000D02*
X147723169Y-38060000D01*
X147723169Y-42540000D02*
X147723169Y-50252000D01*
X147763169Y-30367000D02*
X147763169Y-38060000D01*
X147763169Y-42540000D02*
X147763169Y-50233000D01*
X147803169Y-30387000D02*
X147803169Y-38060000D01*
X147803169Y-42540000D02*
X147803169Y-50213000D01*
X147843169Y-30407000D02*
X147843169Y-38060000D01*
X147843169Y-42540000D02*
X147843169Y-50193000D01*
X147883169Y-30427000D02*
X147883169Y-38060000D01*
X147883169Y-42540000D02*
X147883169Y-50173000D01*
X147923169Y-30448000D02*
X147923169Y-38060000D01*
X147923169Y-42540000D02*
X147923169Y-50152000D01*
X147963169Y-30468000D02*
X147963169Y-38060000D01*
X147963169Y-42540000D02*
X147963169Y-50132000D01*
X148003169Y-30489000D02*
X148003169Y-38060000D01*
X148003169Y-42540000D02*
X148003169Y-50111000D01*
X148043169Y-30510000D02*
X148043169Y-38060000D01*
X148043169Y-42540000D02*
X148043169Y-50090000D01*
X148083169Y-30532000D02*
X148083169Y-38060000D01*
X148083169Y-42540000D02*
X148083169Y-50068000D01*
X148123169Y-30553000D02*
X148123169Y-38060000D01*
X148123169Y-42540000D02*
X148123169Y-50047000D01*
X148163169Y-30575000D02*
X148163169Y-38060000D01*
X148163169Y-42540000D02*
X148163169Y-50025000D01*
X148203169Y-30597000D02*
X148203169Y-38060000D01*
X148203169Y-42540000D02*
X148203169Y-50003000D01*
X148243169Y-30619000D02*
X148243169Y-38060000D01*
X148243169Y-42540000D02*
X148243169Y-49981000D01*
X148283169Y-30641000D02*
X148283169Y-38060000D01*
X148283169Y-42540000D02*
X148283169Y-49959000D01*
X148323169Y-30664000D02*
X148323169Y-38060000D01*
X148323169Y-42540000D02*
X148323169Y-49936000D01*
X148363169Y-30686000D02*
X148363169Y-38060000D01*
X148363169Y-42540000D02*
X148363169Y-49914000D01*
X148403169Y-30709000D02*
X148403169Y-38060000D01*
X148403169Y-42540000D02*
X148403169Y-49891000D01*
X148443169Y-30733000D02*
X148443169Y-38060000D01*
X148443169Y-42540000D02*
X148443169Y-49867000D01*
X148483169Y-30756000D02*
X148483169Y-38060000D01*
X148483169Y-42540000D02*
X148483169Y-49844000D01*
X148523169Y-30780000D02*
X148523169Y-38060000D01*
X148523169Y-42540000D02*
X148523169Y-49820000D01*
X148563169Y-30803000D02*
X148563169Y-38060000D01*
X148563169Y-42540000D02*
X148563169Y-49797000D01*
X148603169Y-30828000D02*
X148603169Y-38060000D01*
X148603169Y-42540000D02*
X148603169Y-49772000D01*
X148643169Y-30852000D02*
X148643169Y-38060000D01*
X148643169Y-42540000D02*
X148643169Y-49748000D01*
X148683169Y-30876000D02*
X148683169Y-38060000D01*
X148683169Y-42540000D02*
X148683169Y-49724000D01*
X148723169Y-30901000D02*
X148723169Y-38060000D01*
X148723169Y-42540000D02*
X148723169Y-49699000D01*
X148763169Y-30926000D02*
X148763169Y-38060000D01*
X148763169Y-42540000D02*
X148763169Y-49674000D01*
X148803169Y-30952000D02*
X148803169Y-38060000D01*
X148803169Y-42540000D02*
X148803169Y-49648000D01*
X148843169Y-30977000D02*
X148843169Y-38060000D01*
X148843169Y-42540000D02*
X148843169Y-49623000D01*
X148883169Y-31003000D02*
X148883169Y-38060000D01*
X148883169Y-42540000D02*
X148883169Y-49597000D01*
X148923169Y-31029000D02*
X148923169Y-38060000D01*
X148923169Y-42540000D02*
X148923169Y-49571000D01*
X148963169Y-31055000D02*
X148963169Y-38060000D01*
X148963169Y-42540000D02*
X148963169Y-49545000D01*
X149003169Y-31082000D02*
X149003169Y-38060000D01*
X149003169Y-42540000D02*
X149003169Y-49518000D01*
X149043169Y-31108000D02*
X149043169Y-38060000D01*
X149043169Y-42540000D02*
X149043169Y-49492000D01*
X149083169Y-31135000D02*
X149083169Y-38060000D01*
X149083169Y-42540000D02*
X149083169Y-49465000D01*
X149123169Y-31163000D02*
X149123169Y-38060000D01*
X149123169Y-42540000D02*
X149123169Y-49437000D01*
X149163169Y-31190000D02*
X149163169Y-38060000D01*
X149163169Y-42540000D02*
X149163169Y-49410000D01*
X149203169Y-31218000D02*
X149203169Y-38060000D01*
X149203169Y-42540000D02*
X149203169Y-49382000D01*
X149243169Y-31246000D02*
X149243169Y-38060000D01*
X149243169Y-42540000D02*
X149243169Y-49354000D01*
X149283169Y-31274000D02*
X149283169Y-38060000D01*
X149283169Y-42540000D02*
X149283169Y-49326000D01*
X149323169Y-31303000D02*
X149323169Y-38060000D01*
X149323169Y-42540000D02*
X149323169Y-49297000D01*
X149363169Y-31332000D02*
X149363169Y-38060000D01*
X149363169Y-42540000D02*
X149363169Y-49268000D01*
X149403169Y-31361000D02*
X149403169Y-38060000D01*
X149403169Y-42540000D02*
X149403169Y-49239000D01*
X149443169Y-31390000D02*
X149443169Y-38060000D01*
X149443169Y-42540000D02*
X149443169Y-49210000D01*
X149483169Y-31420000D02*
X149483169Y-38060000D01*
X149483169Y-42540000D02*
X149483169Y-49180000D01*
X149523169Y-31450000D02*
X149523169Y-38060000D01*
X149523169Y-42540000D02*
X149523169Y-49150000D01*
X149563169Y-31480000D02*
X149563169Y-38060000D01*
X149563169Y-42540000D02*
X149563169Y-49120000D01*
X149603169Y-31510000D02*
X149603169Y-38060000D01*
X149603169Y-42540000D02*
X149603169Y-49090000D01*
X149643169Y-31541000D02*
X149643169Y-38060000D01*
X149643169Y-42540000D02*
X149643169Y-49059000D01*
X149683169Y-31572000D02*
X149683169Y-38060000D01*
X149683169Y-42540000D02*
X149683169Y-49028000D01*
X149723169Y-31603000D02*
X149723169Y-38060000D01*
X149723169Y-42540000D02*
X149723169Y-48997000D01*
X149763169Y-31635000D02*
X149763169Y-38060000D01*
X149763169Y-42540000D02*
X149763169Y-48965000D01*
X149803169Y-31667000D02*
X149803169Y-38060000D01*
X149803169Y-42540000D02*
X149803169Y-48933000D01*
X149843169Y-31699000D02*
X149843169Y-38060000D01*
X149843169Y-42540000D02*
X149843169Y-48901000D01*
X149883169Y-31732000D02*
X149883169Y-38060000D01*
X149883169Y-42540000D02*
X149883169Y-48868000D01*
X149923169Y-31765000D02*
X149923169Y-38060000D01*
X149923169Y-42540000D02*
X149923169Y-48835000D01*
X149963169Y-31798000D02*
X149963169Y-38060000D01*
X149963169Y-42540000D02*
X149963169Y-48802000D01*
X150003169Y-31831000D02*
X150003169Y-38060000D01*
X150003169Y-42540000D02*
X150003169Y-48769000D01*
X150043169Y-31865000D02*
X150043169Y-38060000D01*
X150043169Y-42540000D02*
X150043169Y-48735000D01*
X150083169Y-31899000D02*
X150083169Y-48701000D01*
X150123169Y-31934000D02*
X150123169Y-48666000D01*
X150163169Y-31969000D02*
X150163169Y-48631000D01*
X150203169Y-32004000D02*
X150203169Y-48596000D01*
X150243169Y-32039000D02*
X150243169Y-48561000D01*
X150283169Y-32075000D02*
X150283169Y-48525000D01*
X150323169Y-32111000D02*
X150323169Y-48489000D01*
X150363169Y-32148000D02*
X150363169Y-48452000D01*
X150403169Y-32185000D02*
X150403169Y-48415000D01*
X150443169Y-32222000D02*
X150443169Y-48378000D01*
X150483169Y-32260000D02*
X150483169Y-48340000D01*
X150523169Y-32298000D02*
X150523169Y-48302000D01*
X150563169Y-32336000D02*
X150563169Y-48264000D01*
X150603169Y-32375000D02*
X150603169Y-48225000D01*
X150643169Y-32414000D02*
X150643169Y-48186000D01*
X150683169Y-32454000D02*
X150683169Y-48146000D01*
X150723169Y-32493000D02*
X150723169Y-48107000D01*
X150763169Y-32534000D02*
X150763169Y-48066000D01*
X150803169Y-32575000D02*
X150803169Y-48025000D01*
X150843169Y-32616000D02*
X150843169Y-47984000D01*
X150883169Y-32658000D02*
X150883169Y-47942000D01*
X150923169Y-32700000D02*
X150923169Y-47900000D01*
X150963169Y-32742000D02*
X150963169Y-47858000D01*
X151003169Y-32785000D02*
X151003169Y-47815000D01*
X151042169Y-32829000D02*
X151042169Y-47771000D01*
X151082169Y-32872000D02*
X151082169Y-47728000D01*
X151122169Y-32917000D02*
X151122169Y-47683000D01*
X151162169Y-32962000D02*
X151162169Y-47638000D01*
X151202169Y-33007000D02*
X151202169Y-47593000D01*
X151242169Y-33053000D02*
X151242169Y-47547000D01*
X151282169Y-33099000D02*
X151282169Y-47501000D01*
X151322169Y-33146000D02*
X151322169Y-47454000D01*
X151362169Y-33194000D02*
X151362169Y-47406000D01*
X151402169Y-33242000D02*
X151402169Y-47358000D01*
X151442169Y-33290000D02*
X151442169Y-47310000D01*
X151482169Y-33339000D02*
X151482169Y-47261000D01*
X151522169Y-33389000D02*
X151522169Y-47211000D01*
X151562169Y-33439000D02*
X151562169Y-47161000D01*
X151602169Y-33490000D02*
X151602169Y-47110000D01*
X151642169Y-33541000D02*
X151642169Y-47059000D01*
X151682169Y-33593000D02*
X151682169Y-47007000D01*
X151722169Y-33646000D02*
X151722169Y-46954000D01*
X151762169Y-33700000D02*
X151762169Y-46900000D01*
X151802169Y-33754000D02*
X151802169Y-46846000D01*
X151842169Y-33808000D02*
X151842169Y-46792000D01*
X151882169Y-33864000D02*
X151882169Y-46736000D01*
X151922169Y-33920000D02*
X151922169Y-46680000D01*
X151962169Y-33977000D02*
X151962169Y-46623000D01*
X152002169Y-34035000D02*
X152002169Y-46565000D01*
X152042169Y-34093000D02*
X152042169Y-46507000D01*
X152082169Y-34153000D02*
X152082169Y-46447000D01*
X152122169Y-34213000D02*
X152122169Y-46387000D01*
X152162169Y-34274000D02*
X152162169Y-46326000D01*
X152202169Y-34336000D02*
X152202169Y-46264000D01*
X152242169Y-34399000D02*
X152242169Y-46201000D01*
X152282169Y-34462000D02*
X152282169Y-46138000D01*
X152322169Y-34527000D02*
X152322169Y-46073000D01*
X152362169Y-34593000D02*
X152362169Y-46007000D01*
X152402169Y-34660000D02*
X152402169Y-45940000D01*
X152442169Y-34728000D02*
X152442169Y-45872000D01*
X152482169Y-34797000D02*
X152482169Y-45803000D01*
X152522169Y-34867000D02*
X152522169Y-45733000D01*
X152562169Y-34938000D02*
X152562169Y-45662000D01*
X152602169Y-35011000D02*
X152602169Y-45589000D01*
X152642169Y-35085000D02*
X152642169Y-45515000D01*
X152682169Y-35160000D02*
X152682169Y-45440000D01*
X152722169Y-35237000D02*
X152722169Y-45363000D01*
X152762169Y-35315000D02*
X152762169Y-45285000D01*
X152802169Y-35395000D02*
X152802169Y-45205000D01*
X152842169Y-35476000D02*
X152842169Y-45124000D01*
X152882169Y-35559000D02*
X152882169Y-45041000D01*
X152922169Y-35644000D02*
X152922169Y-44956000D01*
X152962169Y-35731000D02*
X152962169Y-44869000D01*
X153002169Y-35820000D02*
X153002169Y-44780000D01*
X153042169Y-35911000D02*
X153042169Y-44689000D01*
X153082169Y-36004000D02*
X153082169Y-44596000D01*
X153122169Y-36100000D02*
X153122169Y-44500000D01*
X153162169Y-36198000D02*
X153162169Y-44402000D01*
X153202169Y-36299000D02*
X153202169Y-44301000D01*
X153242169Y-36403000D02*
X153242169Y-44197000D01*
X153282169Y-36511000D02*
X153282169Y-44089000D01*
X153322169Y-36621000D02*
X153322169Y-43979000D01*
X153362169Y-36736000D02*
X153362169Y-43864000D01*
X153402169Y-36855000D02*
X153402169Y-43745000D01*
X153442169Y-36979000D02*
X153442169Y-43621000D01*
X153482169Y-37108000D02*
X153482169Y-43492000D01*
X153522169Y-37242000D02*
X153522169Y-43358000D01*
X153562169Y-37384000D02*
X153562169Y-43216000D01*
X153602169Y-37533000D02*
X153602169Y-43067000D01*
X153642169Y-37691000D02*
X153642169Y-42909000D01*
X153682169Y-37860000D02*
X153682169Y-42740000D01*
X153722169Y-38042000D02*
X153722169Y-42558000D01*
X153762169Y-38240000D02*
X153762169Y-42360000D01*
X153802169Y-38460000D02*
X153802169Y-42140000D01*
X153842169Y-38710000D02*
X153842169Y-41890000D01*
X153882169Y-39008000D02*
X153882169Y-41592000D01*
X153922169Y-39397000D02*
X153922169Y-41203000D01*
X153962169Y-40260000D02*
X153962169Y-40340000D01*
X153962169Y-40300000D02*
G75*
G02*
X131722169Y-40300000I-11120000J0D01*
G01*
X131722169Y-40300000D02*
G75*
G02*
X153962169Y-40300000I11120000J0D01*
G01*
D14*
%TO.C,G\u002A\u002A\u002A*%
G36*
X83229232Y-22508647D02*
G01*
X83261631Y-22520911D01*
X83269836Y-22527731D01*
X83288316Y-22544894D01*
X83316334Y-22571662D01*
X83353148Y-22607298D01*
X83398018Y-22651062D01*
X83450205Y-22702216D01*
X83508968Y-22760023D01*
X83573567Y-22823745D01*
X83643261Y-22892643D01*
X83717311Y-22965979D01*
X83794977Y-23043015D01*
X83875518Y-23123013D01*
X83958194Y-23205235D01*
X84042266Y-23288942D01*
X84126992Y-23373397D01*
X84211633Y-23457861D01*
X84295449Y-23541596D01*
X84377699Y-23623865D01*
X84457643Y-23703928D01*
X84534542Y-23781048D01*
X84607655Y-23854487D01*
X84676242Y-23923506D01*
X84739562Y-23987368D01*
X84796876Y-24045333D01*
X84847443Y-24096665D01*
X84890524Y-24140625D01*
X84925378Y-24176475D01*
X84951265Y-24203476D01*
X84967445Y-24220891D01*
X84973066Y-24227701D01*
X84991337Y-24277003D01*
X84995617Y-24327165D01*
X84986702Y-24375548D01*
X84965391Y-24419514D01*
X84932484Y-24456424D01*
X84896764Y-24479896D01*
X84856421Y-24500000D01*
X84420031Y-24500000D01*
X83983641Y-24500000D01*
X83016996Y-25466856D01*
X82893868Y-25590028D01*
X82781291Y-25702656D01*
X82678741Y-25805221D01*
X82585696Y-25898204D01*
X82501633Y-25982087D01*
X82426030Y-26057352D01*
X82358364Y-26124479D01*
X82298112Y-26183950D01*
X82244752Y-26236246D01*
X82197762Y-26281849D01*
X82156618Y-26321240D01*
X82120798Y-26354901D01*
X82089779Y-26383313D01*
X82063039Y-26406956D01*
X82040055Y-26426314D01*
X82020305Y-26441867D01*
X82003266Y-26454096D01*
X81988415Y-26463483D01*
X81975230Y-26470509D01*
X81963188Y-26475655D01*
X81951766Y-26479404D01*
X81940442Y-26482236D01*
X81928694Y-26484633D01*
X81915999Y-26487076D01*
X81907539Y-26488800D01*
X81882986Y-26492153D01*
X81845426Y-26494911D01*
X81797352Y-26497078D01*
X81741255Y-26498654D01*
X81679627Y-26499640D01*
X81614960Y-26500039D01*
X81549746Y-26499851D01*
X81486476Y-26499078D01*
X81427643Y-26497722D01*
X81375738Y-26495783D01*
X81333253Y-26493264D01*
X81302679Y-26490165D01*
X81292863Y-26488449D01*
X81245009Y-26475719D01*
X81205819Y-26459679D01*
X81168331Y-26437172D01*
X81148939Y-26423176D01*
X81101124Y-26379191D01*
X81059789Y-26325552D01*
X81028839Y-26267578D01*
X81022358Y-26250698D01*
X81017498Y-26236060D01*
X81013575Y-26221749D01*
X81010468Y-26205885D01*
X81008050Y-26186591D01*
X81006197Y-26161988D01*
X81004787Y-26130198D01*
X81003694Y-26089342D01*
X81002795Y-26037542D01*
X81001964Y-25972920D01*
X81001543Y-25935823D01*
X81001231Y-25900526D01*
X81367087Y-25900526D01*
X81367087Y-26132912D01*
X81597570Y-26132912D01*
X81655774Y-26132847D01*
X81708581Y-26132663D01*
X81754064Y-26132377D01*
X81790296Y-26132005D01*
X81815353Y-26131564D01*
X81827308Y-26131071D01*
X81828052Y-26130910D01*
X81822712Y-26125144D01*
X81807457Y-26109498D01*
X81783434Y-26085130D01*
X81751790Y-26053195D01*
X81713673Y-26014851D01*
X81670229Y-25971254D01*
X81622605Y-25923560D01*
X81597570Y-25898523D01*
X81367087Y-25668139D01*
X81367087Y-25900526D01*
X81001231Y-25900526D01*
X81000798Y-25851412D01*
X81000721Y-25780835D01*
X81001480Y-25722308D01*
X81003246Y-25674047D01*
X81003683Y-25668139D01*
X81006187Y-25634270D01*
X81010473Y-25601190D01*
X81016274Y-25573025D01*
X81023760Y-25547991D01*
X81033099Y-25524304D01*
X81042587Y-25503968D01*
X81046410Y-25496645D01*
X81051148Y-25488712D01*
X81057293Y-25479659D01*
X81065341Y-25468976D01*
X81075785Y-25456156D01*
X81089120Y-25440688D01*
X81105840Y-25422064D01*
X81116793Y-25410212D01*
X81623822Y-25410212D01*
X81856805Y-25638599D01*
X81906715Y-25687436D01*
X81953153Y-25732707D01*
X81994942Y-25773274D01*
X82030900Y-25808001D01*
X82059849Y-25835749D01*
X82080610Y-25855383D01*
X82092001Y-25865763D01*
X82093816Y-25867128D01*
X82100384Y-25861920D01*
X82116048Y-25847401D01*
X82138924Y-25825380D01*
X82167127Y-25797665D01*
X82191409Y-25773462D01*
X82284973Y-25679654D01*
X82052657Y-25447337D01*
X81820340Y-25215021D01*
X81722081Y-25312616D01*
X81623822Y-25410212D01*
X81116793Y-25410212D01*
X81126440Y-25399774D01*
X81151414Y-25373310D01*
X81181256Y-25342162D01*
X81216461Y-25305822D01*
X81257522Y-25263779D01*
X81304934Y-25215526D01*
X81359192Y-25160553D01*
X81420790Y-25098350D01*
X81490221Y-25028409D01*
X81564221Y-24954002D01*
X82080897Y-24954002D01*
X82311919Y-25183965D01*
X82361429Y-25233158D01*
X82407496Y-25278755D01*
X82448949Y-25319609D01*
X82484615Y-25354574D01*
X82513324Y-25382503D01*
X82533904Y-25402251D01*
X82545184Y-25412670D01*
X82546969Y-25414023D01*
X82553548Y-25408802D01*
X82569200Y-25394289D01*
X82592022Y-25372314D01*
X82620106Y-25344703D01*
X82642678Y-25322198D01*
X82673209Y-25291192D01*
X82699431Y-25263805D01*
X82719512Y-25242016D01*
X82731614Y-25227802D01*
X82734358Y-25223377D01*
X82729036Y-25216940D01*
X82714020Y-25200953D01*
X82690737Y-25176844D01*
X82660612Y-25146044D01*
X82625070Y-25109980D01*
X82585539Y-25070081D01*
X82543443Y-25027776D01*
X82500209Y-24984493D01*
X82457262Y-24941662D01*
X82416028Y-24900711D01*
X82377934Y-24863069D01*
X82344404Y-24830164D01*
X82316866Y-24803426D01*
X82296744Y-24784283D01*
X82289685Y-24777805D01*
X82272735Y-24762624D01*
X82176816Y-24858313D01*
X82080897Y-24954002D01*
X81564221Y-24954002D01*
X81567981Y-24950221D01*
X81654564Y-24863277D01*
X81750464Y-24767067D01*
X81856174Y-24661083D01*
X81972191Y-24544814D01*
X82016845Y-24500072D01*
X82535299Y-24500072D01*
X82765646Y-24730519D01*
X82815023Y-24779822D01*
X82860968Y-24825516D01*
X82902311Y-24866452D01*
X82937884Y-24901479D01*
X82966518Y-24929450D01*
X82987045Y-24949216D01*
X82998295Y-24959627D01*
X83000072Y-24960965D01*
X83006668Y-24955711D01*
X83022338Y-24941169D01*
X83045173Y-24919169D01*
X83073268Y-24891542D01*
X83095831Y-24869046D01*
X83126374Y-24837983D01*
X83152606Y-24810469D01*
X83172687Y-24788498D01*
X83184781Y-24774067D01*
X83187511Y-24769480D01*
X83182160Y-24762280D01*
X83167058Y-24745587D01*
X83143632Y-24720829D01*
X83113308Y-24689430D01*
X83077514Y-24652819D01*
X83037677Y-24612420D01*
X82995223Y-24569661D01*
X82951580Y-24525969D01*
X82908173Y-24482769D01*
X82866431Y-24441488D01*
X82827780Y-24403552D01*
X82793646Y-24370388D01*
X82765458Y-24343423D01*
X82744640Y-24324083D01*
X82732622Y-24313793D01*
X82730380Y-24312488D01*
X82722478Y-24317768D01*
X82705622Y-24332393D01*
X82681788Y-24354538D01*
X82652950Y-24382379D01*
X82628847Y-24406280D01*
X82535299Y-24500072D01*
X82016845Y-24500072D01*
X82034731Y-24482151D01*
X82469133Y-24046914D01*
X82988447Y-24046914D01*
X83218797Y-24277363D01*
X83268174Y-24326667D01*
X83314118Y-24372362D01*
X83355461Y-24413297D01*
X83391034Y-24448325D01*
X83419668Y-24476296D01*
X83440194Y-24496062D01*
X83451443Y-24506474D01*
X83453220Y-24507813D01*
X83459794Y-24502554D01*
X83475488Y-24487972D01*
X83498436Y-24465860D01*
X83526775Y-24438010D01*
X83552853Y-24412023D01*
X83648413Y-24316233D01*
X83415926Y-24083843D01*
X83183439Y-23851453D01*
X83085943Y-23949184D01*
X82988447Y-24046914D01*
X82469133Y-24046914D01*
X82995918Y-23519116D01*
X83366929Y-23519116D01*
X83673692Y-23825953D01*
X83980454Y-24132789D01*
X84175793Y-24132789D01*
X84371132Y-24132789D01*
X83871124Y-23632728D01*
X83371116Y-23132668D01*
X83369023Y-23325892D01*
X83366929Y-23519116D01*
X82995918Y-23519116D01*
X83000000Y-23515026D01*
X83000000Y-23079302D01*
X83000000Y-22643578D01*
X83019914Y-22603615D01*
X83048891Y-22561636D01*
X83087166Y-22530173D01*
X83131883Y-22510203D01*
X83180190Y-22502702D01*
X83229232Y-22508647D01*
G37*
D15*
%TO.C,K20*%
X62350000Y-30800000D02*
X81550000Y-30800000D01*
X62350000Y-46200000D02*
X62350000Y-30800000D01*
X65850000Y-34200000D02*
X65850000Y-36500000D01*
X65850000Y-42800000D02*
X65850000Y-40500000D01*
X69050000Y-38500000D02*
X64550000Y-41200000D01*
X70550000Y-34800000D02*
X77450000Y-34800000D01*
X70550000Y-38500000D02*
X69050000Y-38500000D01*
X70550000Y-38500000D02*
X70550000Y-34800000D01*
X71550000Y-37000000D02*
X76550000Y-37000000D01*
X71550000Y-37000000D02*
X76550000Y-40000000D01*
X71550000Y-40000000D02*
X71550000Y-37000000D01*
X74050000Y-37000000D02*
X74050000Y-32500000D01*
X74050000Y-44500000D02*
X74050000Y-40000000D01*
X74050000Y-44500000D02*
X76350000Y-44500000D01*
X76350000Y-32500000D02*
X74050000Y-32500000D01*
X76550000Y-37000000D02*
X76550000Y-40000000D01*
X76550000Y-40000000D02*
X71550000Y-40000000D01*
X77450000Y-38500000D02*
X77450000Y-34800000D01*
X77450000Y-38500000D02*
X78350000Y-38500000D01*
X81550000Y-37300000D02*
X81550000Y-30800000D01*
X81550000Y-46200000D02*
X62350000Y-46200000D01*
X81550000Y-46200000D02*
X81550000Y-39700000D01*
%TO.C,K21*%
X62300000Y-69700000D02*
X62300000Y-50500000D01*
X64000000Y-55700000D02*
X64000000Y-58000000D01*
X65700000Y-66200000D02*
X68000000Y-66200000D01*
X66300000Y-61500000D02*
X66300000Y-54600000D01*
X68500000Y-55500000D02*
X71500000Y-55500000D01*
X68500000Y-58000000D02*
X64000000Y-58000000D01*
X68500000Y-60500000D02*
X68500000Y-55500000D01*
X68500000Y-60500000D02*
X71500000Y-55500000D01*
X68800000Y-50500000D02*
X62300000Y-50500000D01*
X70000000Y-54600000D02*
X66300000Y-54600000D01*
X70000000Y-54600000D02*
X70000000Y-53700000D01*
X70000000Y-61500000D02*
X66300000Y-61500000D01*
X70000000Y-61500000D02*
X70000000Y-63000000D01*
X70000000Y-63000000D02*
X72700000Y-67500000D01*
X71500000Y-55500000D02*
X71500000Y-60500000D01*
X71500000Y-60500000D02*
X68500000Y-60500000D01*
X74300000Y-66200000D02*
X72000000Y-66200000D01*
X76000000Y-58000000D02*
X71500000Y-58000000D01*
X76000000Y-58000000D02*
X76000000Y-55700000D01*
X77700000Y-50500000D02*
X71200000Y-50500000D01*
X77700000Y-50500000D02*
X77700000Y-69700000D01*
X77700000Y-69700000D02*
X62300000Y-69700000D01*
%TO.C,J10*%
X81450000Y-81550000D02*
X81450000Y-82800000D01*
X81740000Y-81840000D02*
X81740000Y-87810000D01*
X81740000Y-87810000D02*
X94360000Y-87810000D01*
X81750000Y-81850000D02*
X81750000Y-82600000D01*
X81750000Y-82600000D02*
X83550000Y-82600000D01*
X81750000Y-84100000D02*
X82500000Y-84100000D01*
X82500000Y-84100000D02*
X82500000Y-87050000D01*
X82500000Y-87050000D02*
X88050000Y-87050000D01*
X82700000Y-81550000D02*
X81450000Y-81550000D01*
X83550000Y-81850000D02*
X81750000Y-81850000D01*
X83550000Y-82600000D02*
X83550000Y-81850000D01*
X85050000Y-81850000D02*
X85050000Y-82600000D01*
X85050000Y-82600000D02*
X91050000Y-82600000D01*
X91050000Y-81850000D02*
X85050000Y-81850000D01*
X91050000Y-82600000D02*
X91050000Y-81850000D01*
X92550000Y-81850000D02*
X92550000Y-82600000D01*
X92550000Y-82600000D02*
X94350000Y-82600000D01*
X93600000Y-84100000D02*
X93600000Y-87050000D01*
X93600000Y-87050000D02*
X88050000Y-87050000D01*
X94350000Y-81850000D02*
X92550000Y-81850000D01*
X94350000Y-82600000D02*
X94350000Y-81850000D01*
X94350000Y-84100000D02*
X93600000Y-84100000D01*
X94360000Y-81840000D02*
X81740000Y-81840000D01*
X94360000Y-87810000D02*
X94360000Y-81840000D01*
%TO.C,J12*%
X135790000Y-85210000D02*
X135790000Y-79790000D01*
X144510000Y-79790000D02*
X135790000Y-79790000D01*
X144510000Y-85210000D02*
X135790000Y-85210000D01*
X146210000Y-81090000D02*
X144510000Y-79790000D01*
X146210000Y-83910000D02*
X144510000Y-85210000D01*
X146210000Y-83910000D02*
X146210000Y-81090000D01*
D14*
%TO.C,G\u002A\u002A\u002A*%
G36*
X142229232Y-22508647D02*
G01*
X142261631Y-22520911D01*
X142269836Y-22527731D01*
X142288316Y-22544894D01*
X142316334Y-22571662D01*
X142353148Y-22607298D01*
X142398018Y-22651062D01*
X142450205Y-22702216D01*
X142508968Y-22760023D01*
X142573567Y-22823745D01*
X142643261Y-22892643D01*
X142717311Y-22965979D01*
X142794977Y-23043015D01*
X142875518Y-23123013D01*
X142958194Y-23205235D01*
X143042266Y-23288942D01*
X143126992Y-23373397D01*
X143211633Y-23457861D01*
X143295449Y-23541596D01*
X143377699Y-23623865D01*
X143457643Y-23703928D01*
X143534542Y-23781048D01*
X143607655Y-23854487D01*
X143676242Y-23923506D01*
X143739562Y-23987368D01*
X143796876Y-24045333D01*
X143847443Y-24096665D01*
X143890524Y-24140625D01*
X143925378Y-24176475D01*
X143951265Y-24203476D01*
X143967445Y-24220891D01*
X143973066Y-24227701D01*
X143991337Y-24277003D01*
X143995617Y-24327165D01*
X143986702Y-24375548D01*
X143965391Y-24419514D01*
X143932484Y-24456424D01*
X143896764Y-24479896D01*
X143856421Y-24500000D01*
X143420031Y-24500000D01*
X142983641Y-24500000D01*
X142016996Y-25466856D01*
X141893868Y-25590028D01*
X141781291Y-25702656D01*
X141678741Y-25805221D01*
X141585696Y-25898204D01*
X141501633Y-25982087D01*
X141426030Y-26057352D01*
X141358364Y-26124479D01*
X141298112Y-26183950D01*
X141244752Y-26236246D01*
X141197762Y-26281849D01*
X141156618Y-26321240D01*
X141120798Y-26354901D01*
X141089779Y-26383313D01*
X141063039Y-26406956D01*
X141040055Y-26426314D01*
X141020305Y-26441867D01*
X141003266Y-26454096D01*
X140988415Y-26463483D01*
X140975230Y-26470509D01*
X140963188Y-26475655D01*
X140951766Y-26479404D01*
X140940442Y-26482236D01*
X140928694Y-26484633D01*
X140915999Y-26487076D01*
X140907539Y-26488800D01*
X140882986Y-26492153D01*
X140845426Y-26494911D01*
X140797352Y-26497078D01*
X140741255Y-26498654D01*
X140679627Y-26499640D01*
X140614960Y-26500039D01*
X140549746Y-26499851D01*
X140486476Y-26499078D01*
X140427643Y-26497722D01*
X140375738Y-26495783D01*
X140333253Y-26493264D01*
X140302679Y-26490165D01*
X140292863Y-26488449D01*
X140245009Y-26475719D01*
X140205819Y-26459679D01*
X140168331Y-26437172D01*
X140148939Y-26423176D01*
X140101124Y-26379191D01*
X140059789Y-26325552D01*
X140028839Y-26267578D01*
X140022358Y-26250698D01*
X140017498Y-26236060D01*
X140013575Y-26221749D01*
X140010468Y-26205885D01*
X140008050Y-26186591D01*
X140006197Y-26161988D01*
X140004787Y-26130198D01*
X140003694Y-26089342D01*
X140002795Y-26037542D01*
X140001964Y-25972920D01*
X140001543Y-25935823D01*
X140001231Y-25900526D01*
X140367087Y-25900526D01*
X140367087Y-26132912D01*
X140597570Y-26132912D01*
X140655774Y-26132847D01*
X140708581Y-26132663D01*
X140754064Y-26132377D01*
X140790296Y-26132005D01*
X140815353Y-26131564D01*
X140827308Y-26131071D01*
X140828052Y-26130910D01*
X140822712Y-26125144D01*
X140807457Y-26109498D01*
X140783434Y-26085130D01*
X140751790Y-26053195D01*
X140713673Y-26014851D01*
X140670229Y-25971254D01*
X140622605Y-25923560D01*
X140597570Y-25898523D01*
X140367087Y-25668139D01*
X140367087Y-25900526D01*
X140001231Y-25900526D01*
X140000798Y-25851412D01*
X140000721Y-25780835D01*
X140001480Y-25722308D01*
X140003246Y-25674047D01*
X140003683Y-25668139D01*
X140006187Y-25634270D01*
X140010473Y-25601190D01*
X140016274Y-25573025D01*
X140023760Y-25547991D01*
X140033099Y-25524304D01*
X140042587Y-25503968D01*
X140046410Y-25496645D01*
X140051148Y-25488712D01*
X140057293Y-25479659D01*
X140065341Y-25468976D01*
X140075785Y-25456156D01*
X140089120Y-25440688D01*
X140105840Y-25422064D01*
X140116793Y-25410212D01*
X140623822Y-25410212D01*
X140856805Y-25638599D01*
X140906715Y-25687436D01*
X140953153Y-25732707D01*
X140994942Y-25773274D01*
X141030900Y-25808001D01*
X141059849Y-25835749D01*
X141080610Y-25855383D01*
X141092001Y-25865763D01*
X141093816Y-25867128D01*
X141100384Y-25861920D01*
X141116048Y-25847401D01*
X141138924Y-25825380D01*
X141167127Y-25797665D01*
X141191409Y-25773462D01*
X141284973Y-25679654D01*
X141052657Y-25447337D01*
X140820340Y-25215021D01*
X140722081Y-25312616D01*
X140623822Y-25410212D01*
X140116793Y-25410212D01*
X140126440Y-25399774D01*
X140151414Y-25373310D01*
X140181256Y-25342162D01*
X140216461Y-25305822D01*
X140257522Y-25263779D01*
X140304934Y-25215526D01*
X140359192Y-25160553D01*
X140420790Y-25098350D01*
X140490221Y-25028409D01*
X140564221Y-24954002D01*
X141080897Y-24954002D01*
X141311919Y-25183965D01*
X141361429Y-25233158D01*
X141407496Y-25278755D01*
X141448949Y-25319609D01*
X141484615Y-25354574D01*
X141513324Y-25382503D01*
X141533904Y-25402251D01*
X141545184Y-25412670D01*
X141546969Y-25414023D01*
X141553548Y-25408802D01*
X141569200Y-25394289D01*
X141592022Y-25372314D01*
X141620106Y-25344703D01*
X141642678Y-25322198D01*
X141673209Y-25291192D01*
X141699431Y-25263805D01*
X141719512Y-25242016D01*
X141731614Y-25227802D01*
X141734358Y-25223377D01*
X141729036Y-25216940D01*
X141714020Y-25200953D01*
X141690737Y-25176844D01*
X141660612Y-25146044D01*
X141625070Y-25109980D01*
X141585539Y-25070081D01*
X141543443Y-25027776D01*
X141500209Y-24984493D01*
X141457262Y-24941662D01*
X141416028Y-24900711D01*
X141377934Y-24863069D01*
X141344404Y-24830164D01*
X141316866Y-24803426D01*
X141296744Y-24784283D01*
X141289685Y-24777805D01*
X141272735Y-24762624D01*
X141176816Y-24858313D01*
X141080897Y-24954002D01*
X140564221Y-24954002D01*
X140567981Y-24950221D01*
X140654564Y-24863277D01*
X140750464Y-24767067D01*
X140856174Y-24661083D01*
X140972191Y-24544814D01*
X141016845Y-24500072D01*
X141535299Y-24500072D01*
X141765646Y-24730519D01*
X141815023Y-24779822D01*
X141860968Y-24825516D01*
X141902311Y-24866452D01*
X141937884Y-24901479D01*
X141966518Y-24929450D01*
X141987045Y-24949216D01*
X141998295Y-24959627D01*
X142000072Y-24960965D01*
X142006668Y-24955711D01*
X142022338Y-24941169D01*
X142045173Y-24919169D01*
X142073268Y-24891542D01*
X142095831Y-24869046D01*
X142126374Y-24837983D01*
X142152606Y-24810469D01*
X142172687Y-24788498D01*
X142184781Y-24774067D01*
X142187511Y-24769480D01*
X142182160Y-24762280D01*
X142167058Y-24745587D01*
X142143632Y-24720829D01*
X142113308Y-24689430D01*
X142077514Y-24652819D01*
X142037677Y-24612420D01*
X141995223Y-24569661D01*
X141951580Y-24525969D01*
X141908173Y-24482769D01*
X141866431Y-24441488D01*
X141827780Y-24403552D01*
X141793646Y-24370388D01*
X141765458Y-24343423D01*
X141744640Y-24324083D01*
X141732622Y-24313793D01*
X141730380Y-24312488D01*
X141722478Y-24317768D01*
X141705622Y-24332393D01*
X141681788Y-24354538D01*
X141652950Y-24382379D01*
X141628847Y-24406280D01*
X141535299Y-24500072D01*
X141016845Y-24500072D01*
X141034731Y-24482151D01*
X141469133Y-24046914D01*
X141988447Y-24046914D01*
X142218797Y-24277363D01*
X142268174Y-24326667D01*
X142314118Y-24372362D01*
X142355461Y-24413297D01*
X142391034Y-24448325D01*
X142419668Y-24476296D01*
X142440194Y-24496062D01*
X142451443Y-24506474D01*
X142453220Y-24507813D01*
X142459794Y-24502554D01*
X142475488Y-24487972D01*
X142498436Y-24465860D01*
X142526775Y-24438010D01*
X142552853Y-24412023D01*
X142648413Y-24316233D01*
X142415926Y-24083843D01*
X142183439Y-23851453D01*
X142085943Y-23949184D01*
X141988447Y-24046914D01*
X141469133Y-24046914D01*
X141995918Y-23519116D01*
X142366929Y-23519116D01*
X142673692Y-23825953D01*
X142980454Y-24132789D01*
X143175793Y-24132789D01*
X143371132Y-24132789D01*
X142871124Y-23632728D01*
X142371116Y-23132668D01*
X142369023Y-23325892D01*
X142366929Y-23519116D01*
X141995918Y-23519116D01*
X142000000Y-23515026D01*
X142000000Y-23079302D01*
X142000000Y-22643578D01*
X142019914Y-22603615D01*
X142048891Y-22561636D01*
X142087166Y-22530173D01*
X142131883Y-22510203D01*
X142180190Y-22502702D01*
X142229232Y-22508647D01*
G37*
D15*
%TO.C,C30*%
X131100663Y-57265000D02*
X133300663Y-57265000D01*
X132200663Y-56165000D02*
X132200663Y-58365000D01*
X143000000Y-52419000D02*
X143000000Y-74581000D01*
X143040000Y-52420000D02*
X143040000Y-74580000D01*
X143080000Y-52420000D02*
X143080000Y-74580000D01*
X143120000Y-52420000D02*
X143120000Y-74580000D01*
X143160000Y-52421000D02*
X143160000Y-74579000D01*
X143200000Y-52421000D02*
X143200000Y-74579000D01*
X143240000Y-52422000D02*
X143240000Y-74578000D01*
X143280000Y-52423000D02*
X143280000Y-74577000D01*
X143320000Y-52424000D02*
X143320000Y-74576000D01*
X143360000Y-52425000D02*
X143360000Y-74575000D01*
X143400000Y-52427000D02*
X143400000Y-74573000D01*
X143440000Y-52428000D02*
X143440000Y-74572000D01*
X143480000Y-52430000D02*
X143480000Y-74570000D01*
X143520000Y-52432000D02*
X143520000Y-74568000D01*
X143560000Y-52434000D02*
X143560000Y-74566000D01*
X143600000Y-52436000D02*
X143600000Y-74564000D01*
X143640000Y-52438000D02*
X143640000Y-74562000D01*
X143680000Y-52440000D02*
X143680000Y-74560000D01*
X143721000Y-52443000D02*
X143721000Y-74557000D01*
X143761000Y-52446000D02*
X143761000Y-74554000D01*
X143801000Y-52448000D02*
X143801000Y-74552000D01*
X143841000Y-52451000D02*
X143841000Y-74549000D01*
X143881000Y-52454000D02*
X143881000Y-74546000D01*
X143921000Y-52458000D02*
X143921000Y-74542000D01*
X143961000Y-52461000D02*
X143961000Y-74539000D01*
X144001000Y-52465000D02*
X144001000Y-74535000D01*
X144041000Y-52468000D02*
X144041000Y-74532000D01*
X144081000Y-52472000D02*
X144081000Y-74528000D01*
X144121000Y-52476000D02*
X144121000Y-74524000D01*
X144161000Y-52480000D02*
X144161000Y-74520000D01*
X144201000Y-52484000D02*
X144201000Y-74516000D01*
X144241000Y-52489000D02*
X144241000Y-74511000D01*
X144281000Y-52493000D02*
X144281000Y-74507000D01*
X144321000Y-52498000D02*
X144321000Y-74502000D01*
X144361000Y-52503000D02*
X144361000Y-74497000D01*
X144401000Y-52508000D02*
X144401000Y-74492000D01*
X144441000Y-52513000D02*
X144441000Y-74487000D01*
X144481000Y-52518000D02*
X144481000Y-74482000D01*
X144521000Y-52524000D02*
X144521000Y-74476000D01*
X144561000Y-52529000D02*
X144561000Y-74471000D01*
X144601000Y-52535000D02*
X144601000Y-74465000D01*
X144641000Y-52541000D02*
X144641000Y-74459000D01*
X144681000Y-52547000D02*
X144681000Y-74453000D01*
X144721000Y-52553000D02*
X144721000Y-74447000D01*
X144761000Y-52560000D02*
X144761000Y-74440000D01*
X144801000Y-52566000D02*
X144801000Y-74434000D01*
X144841000Y-52573000D02*
X144841000Y-74427000D01*
X144881000Y-52580000D02*
X144881000Y-74420000D01*
X144921000Y-52587000D02*
X144921000Y-74413000D01*
X144961000Y-52594000D02*
X144961000Y-74406000D01*
X145001000Y-52601000D02*
X145001000Y-74399000D01*
X145041000Y-52608000D02*
X145041000Y-74392000D01*
X145081000Y-52616000D02*
X145081000Y-74384000D01*
X145121000Y-52623000D02*
X145121000Y-74377000D01*
X145161000Y-52631000D02*
X145161000Y-74369000D01*
X145201000Y-52639000D02*
X145201000Y-74361000D01*
X145241000Y-52647000D02*
X145241000Y-74353000D01*
X145281000Y-52656000D02*
X145281000Y-74344000D01*
X145321000Y-52664000D02*
X145321000Y-74336000D01*
X145361000Y-52673000D02*
X145361000Y-74327000D01*
X145401000Y-52682000D02*
X145401000Y-74318000D01*
X145441000Y-52691000D02*
X145441000Y-74309000D01*
X145481000Y-52700000D02*
X145481000Y-74300000D01*
X145521000Y-52709000D02*
X145521000Y-74291000D01*
X145561000Y-52718000D02*
X145561000Y-74282000D01*
X145601000Y-52728000D02*
X145601000Y-74272000D01*
X145641000Y-52737000D02*
X145641000Y-74263000D01*
X145681000Y-52747000D02*
X145681000Y-74253000D01*
X145721000Y-52757000D02*
X145721000Y-74243000D01*
X145761000Y-52767000D02*
X145761000Y-61260000D01*
X145761000Y-65740000D02*
X145761000Y-74233000D01*
X145801000Y-52778000D02*
X145801000Y-61260000D01*
X145801000Y-65740000D02*
X145801000Y-74222000D01*
X145841000Y-52788000D02*
X145841000Y-61260000D01*
X145841000Y-65740000D02*
X145841000Y-74212000D01*
X145881000Y-52799000D02*
X145881000Y-61260000D01*
X145881000Y-65740000D02*
X145881000Y-74201000D01*
X145921000Y-52810000D02*
X145921000Y-61260000D01*
X145921000Y-65740000D02*
X145921000Y-74190000D01*
X145961000Y-52821000D02*
X145961000Y-61260000D01*
X145961000Y-65740000D02*
X145961000Y-74179000D01*
X146001000Y-52832000D02*
X146001000Y-61260000D01*
X146001000Y-65740000D02*
X146001000Y-74168000D01*
X146041000Y-52843000D02*
X146041000Y-61260000D01*
X146041000Y-65740000D02*
X146041000Y-74157000D01*
X146081000Y-52855000D02*
X146081000Y-61260000D01*
X146081000Y-65740000D02*
X146081000Y-74145000D01*
X146121000Y-52866000D02*
X146121000Y-61260000D01*
X146121000Y-65740000D02*
X146121000Y-74134000D01*
X146161000Y-52878000D02*
X146161000Y-61260000D01*
X146161000Y-65740000D02*
X146161000Y-74122000D01*
X146201000Y-52890000D02*
X146201000Y-61260000D01*
X146201000Y-65740000D02*
X146201000Y-74110000D01*
X146241000Y-52902000D02*
X146241000Y-61260000D01*
X146241000Y-65740000D02*
X146241000Y-74098000D01*
X146281000Y-52914000D02*
X146281000Y-61260000D01*
X146281000Y-65740000D02*
X146281000Y-74086000D01*
X146321000Y-52927000D02*
X146321000Y-61260000D01*
X146321000Y-65740000D02*
X146321000Y-74073000D01*
X146361000Y-52939000D02*
X146361000Y-61260000D01*
X146361000Y-65740000D02*
X146361000Y-74061000D01*
X146401000Y-52952000D02*
X146401000Y-61260000D01*
X146401000Y-65740000D02*
X146401000Y-74048000D01*
X146441000Y-52965000D02*
X146441000Y-61260000D01*
X146441000Y-65740000D02*
X146441000Y-74035000D01*
X146481000Y-52978000D02*
X146481000Y-61260000D01*
X146481000Y-65740000D02*
X146481000Y-74022000D01*
X146521000Y-52991000D02*
X146521000Y-61260000D01*
X146521000Y-65740000D02*
X146521000Y-74009000D01*
X146561000Y-53005000D02*
X146561000Y-61260000D01*
X146561000Y-65740000D02*
X146561000Y-73995000D01*
X146601000Y-53018000D02*
X146601000Y-61260000D01*
X146601000Y-65740000D02*
X146601000Y-73982000D01*
X146641000Y-53032000D02*
X146641000Y-61260000D01*
X146641000Y-65740000D02*
X146641000Y-73968000D01*
X146681000Y-53046000D02*
X146681000Y-61260000D01*
X146681000Y-65740000D02*
X146681000Y-73954000D01*
X146721000Y-53060000D02*
X146721000Y-61260000D01*
X146721000Y-65740000D02*
X146721000Y-73940000D01*
X146761000Y-53074000D02*
X146761000Y-61260000D01*
X146761000Y-65740000D02*
X146761000Y-73926000D01*
X146801000Y-53089000D02*
X146801000Y-61260000D01*
X146801000Y-65740000D02*
X146801000Y-73911000D01*
X146841000Y-53104000D02*
X146841000Y-61260000D01*
X146841000Y-65740000D02*
X146841000Y-73896000D01*
X146881000Y-53118000D02*
X146881000Y-61260000D01*
X146881000Y-65740000D02*
X146881000Y-73882000D01*
X146921000Y-53133000D02*
X146921000Y-61260000D01*
X146921000Y-65740000D02*
X146921000Y-73867000D01*
X146961000Y-53149000D02*
X146961000Y-61260000D01*
X146961000Y-65740000D02*
X146961000Y-73851000D01*
X147001000Y-53164000D02*
X147001000Y-61260000D01*
X147001000Y-65740000D02*
X147001000Y-73836000D01*
X147041000Y-53179000D02*
X147041000Y-61260000D01*
X147041000Y-65740000D02*
X147041000Y-73821000D01*
X147081000Y-53195000D02*
X147081000Y-61260000D01*
X147081000Y-65740000D02*
X147081000Y-73805000D01*
X147121000Y-53211000D02*
X147121000Y-61260000D01*
X147121000Y-65740000D02*
X147121000Y-73789000D01*
X147161000Y-53227000D02*
X147161000Y-61260000D01*
X147161000Y-65740000D02*
X147161000Y-73773000D01*
X147201000Y-53243000D02*
X147201000Y-61260000D01*
X147201000Y-65740000D02*
X147201000Y-73757000D01*
X147241000Y-53260000D02*
X147241000Y-61260000D01*
X147241000Y-65740000D02*
X147241000Y-73740000D01*
X147281000Y-53276000D02*
X147281000Y-61260000D01*
X147281000Y-65740000D02*
X147281000Y-73724000D01*
X147321000Y-53293000D02*
X147321000Y-61260000D01*
X147321000Y-65740000D02*
X147321000Y-73707000D01*
X147361000Y-53310000D02*
X147361000Y-61260000D01*
X147361000Y-65740000D02*
X147361000Y-73690000D01*
X147401000Y-53327000D02*
X147401000Y-61260000D01*
X147401000Y-65740000D02*
X147401000Y-73673000D01*
X147441000Y-53344000D02*
X147441000Y-61260000D01*
X147441000Y-65740000D02*
X147441000Y-73656000D01*
X147481000Y-53362000D02*
X147481000Y-61260000D01*
X147481000Y-65740000D02*
X147481000Y-73638000D01*
X147521000Y-53380000D02*
X147521000Y-61260000D01*
X147521000Y-65740000D02*
X147521000Y-73620000D01*
X147561000Y-53397000D02*
X147561000Y-61260000D01*
X147561000Y-65740000D02*
X147561000Y-73603000D01*
X147601000Y-53416000D02*
X147601000Y-61260000D01*
X147601000Y-65740000D02*
X147601000Y-73584000D01*
X147641000Y-53434000D02*
X147641000Y-61260000D01*
X147641000Y-65740000D02*
X147641000Y-73566000D01*
X147681000Y-53452000D02*
X147681000Y-61260000D01*
X147681000Y-65740000D02*
X147681000Y-73548000D01*
X147721000Y-53471000D02*
X147721000Y-61260000D01*
X147721000Y-65740000D02*
X147721000Y-73529000D01*
X147761000Y-53490000D02*
X147761000Y-61260000D01*
X147761000Y-65740000D02*
X147761000Y-73510000D01*
X147801000Y-53509000D02*
X147801000Y-61260000D01*
X147801000Y-65740000D02*
X147801000Y-73491000D01*
X147841000Y-53528000D02*
X147841000Y-61260000D01*
X147841000Y-65740000D02*
X147841000Y-73472000D01*
X147881000Y-53548000D02*
X147881000Y-61260000D01*
X147881000Y-65740000D02*
X147881000Y-73452000D01*
X147921000Y-53567000D02*
X147921000Y-61260000D01*
X147921000Y-65740000D02*
X147921000Y-73433000D01*
X147961000Y-53587000D02*
X147961000Y-61260000D01*
X147961000Y-65740000D02*
X147961000Y-73413000D01*
X148001000Y-53607000D02*
X148001000Y-61260000D01*
X148001000Y-65740000D02*
X148001000Y-73393000D01*
X148041000Y-53627000D02*
X148041000Y-61260000D01*
X148041000Y-65740000D02*
X148041000Y-73373000D01*
X148081000Y-53648000D02*
X148081000Y-61260000D01*
X148081000Y-65740000D02*
X148081000Y-73352000D01*
X148121000Y-53668000D02*
X148121000Y-61260000D01*
X148121000Y-65740000D02*
X148121000Y-73332000D01*
X148161000Y-53689000D02*
X148161000Y-61260000D01*
X148161000Y-65740000D02*
X148161000Y-73311000D01*
X148201000Y-53710000D02*
X148201000Y-61260000D01*
X148201000Y-65740000D02*
X148201000Y-73290000D01*
X148241000Y-53732000D02*
X148241000Y-61260000D01*
X148241000Y-65740000D02*
X148241000Y-73268000D01*
X148281000Y-53753000D02*
X148281000Y-61260000D01*
X148281000Y-65740000D02*
X148281000Y-73247000D01*
X148321000Y-53775000D02*
X148321000Y-61260000D01*
X148321000Y-65740000D02*
X148321000Y-73225000D01*
X148361000Y-53797000D02*
X148361000Y-61260000D01*
X148361000Y-65740000D02*
X148361000Y-73203000D01*
X148401000Y-53819000D02*
X148401000Y-61260000D01*
X148401000Y-65740000D02*
X148401000Y-73181000D01*
X148441000Y-53841000D02*
X148441000Y-61260000D01*
X148441000Y-65740000D02*
X148441000Y-73159000D01*
X148481000Y-53864000D02*
X148481000Y-61260000D01*
X148481000Y-65740000D02*
X148481000Y-73136000D01*
X148521000Y-53886000D02*
X148521000Y-61260000D01*
X148521000Y-65740000D02*
X148521000Y-73114000D01*
X148561000Y-53909000D02*
X148561000Y-61260000D01*
X148561000Y-65740000D02*
X148561000Y-73091000D01*
X148601000Y-53933000D02*
X148601000Y-61260000D01*
X148601000Y-65740000D02*
X148601000Y-73067000D01*
X148641000Y-53956000D02*
X148641000Y-61260000D01*
X148641000Y-65740000D02*
X148641000Y-73044000D01*
X148681000Y-53980000D02*
X148681000Y-61260000D01*
X148681000Y-65740000D02*
X148681000Y-73020000D01*
X148721000Y-54003000D02*
X148721000Y-61260000D01*
X148721000Y-65740000D02*
X148721000Y-72997000D01*
X148761000Y-54028000D02*
X148761000Y-61260000D01*
X148761000Y-65740000D02*
X148761000Y-72972000D01*
X148801000Y-54052000D02*
X148801000Y-61260000D01*
X148801000Y-65740000D02*
X148801000Y-72948000D01*
X148841000Y-54076000D02*
X148841000Y-61260000D01*
X148841000Y-65740000D02*
X148841000Y-72924000D01*
X148881000Y-54101000D02*
X148881000Y-61260000D01*
X148881000Y-65740000D02*
X148881000Y-72899000D01*
X148921000Y-54126000D02*
X148921000Y-61260000D01*
X148921000Y-65740000D02*
X148921000Y-72874000D01*
X148961000Y-54152000D02*
X148961000Y-61260000D01*
X148961000Y-65740000D02*
X148961000Y-72848000D01*
X149001000Y-54177000D02*
X149001000Y-61260000D01*
X149001000Y-65740000D02*
X149001000Y-72823000D01*
X149041000Y-54203000D02*
X149041000Y-61260000D01*
X149041000Y-65740000D02*
X149041000Y-72797000D01*
X149081000Y-54229000D02*
X149081000Y-61260000D01*
X149081000Y-65740000D02*
X149081000Y-72771000D01*
X149121000Y-54255000D02*
X149121000Y-61260000D01*
X149121000Y-65740000D02*
X149121000Y-72745000D01*
X149161000Y-54282000D02*
X149161000Y-61260000D01*
X149161000Y-65740000D02*
X149161000Y-72718000D01*
X149201000Y-54308000D02*
X149201000Y-61260000D01*
X149201000Y-65740000D02*
X149201000Y-72692000D01*
X149241000Y-54335000D02*
X149241000Y-61260000D01*
X149241000Y-65740000D02*
X149241000Y-72665000D01*
X149281000Y-54363000D02*
X149281000Y-61260000D01*
X149281000Y-65740000D02*
X149281000Y-72637000D01*
X149321000Y-54390000D02*
X149321000Y-61260000D01*
X149321000Y-65740000D02*
X149321000Y-72610000D01*
X149361000Y-54418000D02*
X149361000Y-61260000D01*
X149361000Y-65740000D02*
X149361000Y-72582000D01*
X149401000Y-54446000D02*
X149401000Y-61260000D01*
X149401000Y-65740000D02*
X149401000Y-72554000D01*
X149441000Y-54474000D02*
X149441000Y-61260000D01*
X149441000Y-65740000D02*
X149441000Y-72526000D01*
X149481000Y-54503000D02*
X149481000Y-61260000D01*
X149481000Y-65740000D02*
X149481000Y-72497000D01*
X149521000Y-54532000D02*
X149521000Y-61260000D01*
X149521000Y-65740000D02*
X149521000Y-72468000D01*
X149561000Y-54561000D02*
X149561000Y-61260000D01*
X149561000Y-65740000D02*
X149561000Y-72439000D01*
X149601000Y-54590000D02*
X149601000Y-61260000D01*
X149601000Y-65740000D02*
X149601000Y-72410000D01*
X149641000Y-54620000D02*
X149641000Y-61260000D01*
X149641000Y-65740000D02*
X149641000Y-72380000D01*
X149681000Y-54650000D02*
X149681000Y-61260000D01*
X149681000Y-65740000D02*
X149681000Y-72350000D01*
X149721000Y-54680000D02*
X149721000Y-61260000D01*
X149721000Y-65740000D02*
X149721000Y-72320000D01*
X149761000Y-54710000D02*
X149761000Y-61260000D01*
X149761000Y-65740000D02*
X149761000Y-72290000D01*
X149801000Y-54741000D02*
X149801000Y-61260000D01*
X149801000Y-65740000D02*
X149801000Y-72259000D01*
X149841000Y-54772000D02*
X149841000Y-61260000D01*
X149841000Y-65740000D02*
X149841000Y-72228000D01*
X149881000Y-54803000D02*
X149881000Y-61260000D01*
X149881000Y-65740000D02*
X149881000Y-72197000D01*
X149921000Y-54835000D02*
X149921000Y-61260000D01*
X149921000Y-65740000D02*
X149921000Y-72165000D01*
X149961000Y-54867000D02*
X149961000Y-61260000D01*
X149961000Y-65740000D02*
X149961000Y-72133000D01*
X150001000Y-54899000D02*
X150001000Y-61260000D01*
X150001000Y-65740000D02*
X150001000Y-72101000D01*
X150041000Y-54932000D02*
X150041000Y-61260000D01*
X150041000Y-65740000D02*
X150041000Y-72068000D01*
X150081000Y-54965000D02*
X150081000Y-61260000D01*
X150081000Y-65740000D02*
X150081000Y-72035000D01*
X150121000Y-54998000D02*
X150121000Y-61260000D01*
X150121000Y-65740000D02*
X150121000Y-72002000D01*
X150161000Y-55031000D02*
X150161000Y-61260000D01*
X150161000Y-65740000D02*
X150161000Y-71969000D01*
X150201000Y-55065000D02*
X150201000Y-61260000D01*
X150201000Y-65740000D02*
X150201000Y-71935000D01*
X150241000Y-55099000D02*
X150241000Y-71901000D01*
X150281000Y-55134000D02*
X150281000Y-71866000D01*
X150321000Y-55169000D02*
X150321000Y-71831000D01*
X150361000Y-55204000D02*
X150361000Y-71796000D01*
X150401000Y-55239000D02*
X150401000Y-71761000D01*
X150441000Y-55275000D02*
X150441000Y-71725000D01*
X150481000Y-55311000D02*
X150481000Y-71689000D01*
X150521000Y-55348000D02*
X150521000Y-71652000D01*
X150561000Y-55385000D02*
X150561000Y-71615000D01*
X150601000Y-55422000D02*
X150601000Y-71578000D01*
X150641000Y-55460000D02*
X150641000Y-71540000D01*
X150681000Y-55498000D02*
X150681000Y-71502000D01*
X150721000Y-55536000D02*
X150721000Y-71464000D01*
X150761000Y-55575000D02*
X150761000Y-71425000D01*
X150801000Y-55614000D02*
X150801000Y-71386000D01*
X150841000Y-55654000D02*
X150841000Y-71346000D01*
X150881000Y-55693000D02*
X150881000Y-71307000D01*
X150921000Y-55734000D02*
X150921000Y-71266000D01*
X150961000Y-55775000D02*
X150961000Y-71225000D01*
X151001000Y-55816000D02*
X151001000Y-71184000D01*
X151041000Y-55858000D02*
X151041000Y-71142000D01*
X151081000Y-55900000D02*
X151081000Y-71100000D01*
X151121000Y-55942000D02*
X151121000Y-71058000D01*
X151161000Y-55985000D02*
X151161000Y-71015000D01*
X151200000Y-56029000D02*
X151200000Y-70971000D01*
X151240000Y-56072000D02*
X151240000Y-70928000D01*
X151280000Y-56117000D02*
X151280000Y-70883000D01*
X151320000Y-56162000D02*
X151320000Y-70838000D01*
X151360000Y-56207000D02*
X151360000Y-70793000D01*
X151400000Y-56253000D02*
X151400000Y-70747000D01*
X151440000Y-56299000D02*
X151440000Y-70701000D01*
X151480000Y-56346000D02*
X151480000Y-70654000D01*
X151520000Y-56394000D02*
X151520000Y-70606000D01*
X151560000Y-56442000D02*
X151560000Y-70558000D01*
X151600000Y-56490000D02*
X151600000Y-70510000D01*
X151640000Y-56539000D02*
X151640000Y-70461000D01*
X151680000Y-56589000D02*
X151680000Y-70411000D01*
X151720000Y-56639000D02*
X151720000Y-70361000D01*
X151760000Y-56690000D02*
X151760000Y-70310000D01*
X151800000Y-56741000D02*
X151800000Y-70259000D01*
X151840000Y-56793000D02*
X151840000Y-70207000D01*
X151880000Y-56846000D02*
X151880000Y-70154000D01*
X151920000Y-56900000D02*
X151920000Y-70100000D01*
X151960000Y-56954000D02*
X151960000Y-70046000D01*
X152000000Y-57008000D02*
X152000000Y-69992000D01*
X152040000Y-57064000D02*
X152040000Y-69936000D01*
X152080000Y-57120000D02*
X152080000Y-69880000D01*
X152120000Y-57177000D02*
X152120000Y-69823000D01*
X152160000Y-57235000D02*
X152160000Y-69765000D01*
X152200000Y-57293000D02*
X152200000Y-69707000D01*
X152240000Y-57353000D02*
X152240000Y-69647000D01*
X152280000Y-57413000D02*
X152280000Y-69587000D01*
X152320000Y-57474000D02*
X152320000Y-69526000D01*
X152360000Y-57536000D02*
X152360000Y-69464000D01*
X152400000Y-57599000D02*
X152400000Y-69401000D01*
X152440000Y-57662000D02*
X152440000Y-69338000D01*
X152480000Y-57727000D02*
X152480000Y-69273000D01*
X152520000Y-57793000D02*
X152520000Y-69207000D01*
X152560000Y-57860000D02*
X152560000Y-69140000D01*
X152600000Y-57928000D02*
X152600000Y-69072000D01*
X152640000Y-57997000D02*
X152640000Y-69003000D01*
X152680000Y-58067000D02*
X152680000Y-68933000D01*
X152720000Y-58138000D02*
X152720000Y-68862000D01*
X152760000Y-58211000D02*
X152760000Y-68789000D01*
X152800000Y-58285000D02*
X152800000Y-68715000D01*
X152840000Y-58360000D02*
X152840000Y-68640000D01*
X152880000Y-58437000D02*
X152880000Y-68563000D01*
X152920000Y-58515000D02*
X152920000Y-68485000D01*
X152960000Y-58595000D02*
X152960000Y-68405000D01*
X153000000Y-58676000D02*
X153000000Y-68324000D01*
X153040000Y-58759000D02*
X153040000Y-68241000D01*
X153080000Y-58844000D02*
X153080000Y-68156000D01*
X153120000Y-58931000D02*
X153120000Y-68069000D01*
X153160000Y-59020000D02*
X153160000Y-67980000D01*
X153200000Y-59111000D02*
X153200000Y-67889000D01*
X153240000Y-59204000D02*
X153240000Y-67796000D01*
X153280000Y-59300000D02*
X153280000Y-67700000D01*
X153320000Y-59398000D02*
X153320000Y-67602000D01*
X153360000Y-59499000D02*
X153360000Y-67501000D01*
X153400000Y-59603000D02*
X153400000Y-67397000D01*
X153440000Y-59711000D02*
X153440000Y-67289000D01*
X153480000Y-59821000D02*
X153480000Y-67179000D01*
X153520000Y-59936000D02*
X153520000Y-67064000D01*
X153560000Y-60055000D02*
X153560000Y-66945000D01*
X153600000Y-60179000D02*
X153600000Y-66821000D01*
X153640000Y-60308000D02*
X153640000Y-66692000D01*
X153680000Y-60442000D02*
X153680000Y-66558000D01*
X153720000Y-60584000D02*
X153720000Y-66416000D01*
X153760000Y-60733000D02*
X153760000Y-66267000D01*
X153800000Y-60891000D02*
X153800000Y-66109000D01*
X153840000Y-61060000D02*
X153840000Y-65940000D01*
X153880000Y-61242000D02*
X153880000Y-65758000D01*
X153920000Y-61440000D02*
X153920000Y-65560000D01*
X153960000Y-61660000D02*
X153960000Y-65340000D01*
X154000000Y-61910000D02*
X154000000Y-65090000D01*
X154040000Y-62208000D02*
X154040000Y-64792000D01*
X154080000Y-62597000D02*
X154080000Y-64403000D01*
X154120000Y-63460000D02*
X154120000Y-63540000D01*
X154120000Y-63500000D02*
G75*
G02*
X131880000Y-63500000I-11120000J0D01*
G01*
X131880000Y-63500000D02*
G75*
G02*
X154120000Y-63500000I11120000J0D01*
G01*
D14*
%TO.C,G\u002A\u002A\u002A*%
G36*
X142229232Y-91008647D02*
G01*
X142261631Y-91020911D01*
X142269836Y-91027731D01*
X142288316Y-91044894D01*
X142316334Y-91071662D01*
X142353148Y-91107298D01*
X142398018Y-91151062D01*
X142450205Y-91202216D01*
X142508968Y-91260023D01*
X142573567Y-91323745D01*
X142643261Y-91392643D01*
X142717311Y-91465979D01*
X142794977Y-91543015D01*
X142875518Y-91623013D01*
X142958194Y-91705235D01*
X143042266Y-91788942D01*
X143126992Y-91873397D01*
X143211633Y-91957861D01*
X143295449Y-92041596D01*
X143377699Y-92123865D01*
X143457643Y-92203928D01*
X143534542Y-92281048D01*
X143607655Y-92354487D01*
X143676242Y-92423506D01*
X143739562Y-92487368D01*
X143796876Y-92545333D01*
X143847443Y-92596665D01*
X143890524Y-92640625D01*
X143925378Y-92676475D01*
X143951265Y-92703476D01*
X143967445Y-92720891D01*
X143973066Y-92727701D01*
X143991337Y-92777003D01*
X143995617Y-92827165D01*
X143986702Y-92875548D01*
X143965391Y-92919514D01*
X143932484Y-92956424D01*
X143896764Y-92979896D01*
X143856421Y-93000000D01*
X143420031Y-93000000D01*
X142983641Y-93000000D01*
X142016996Y-93966856D01*
X141893868Y-94090028D01*
X141781291Y-94202656D01*
X141678741Y-94305221D01*
X141585696Y-94398204D01*
X141501633Y-94482087D01*
X141426030Y-94557352D01*
X141358364Y-94624479D01*
X141298112Y-94683950D01*
X141244752Y-94736246D01*
X141197762Y-94781849D01*
X141156618Y-94821240D01*
X141120798Y-94854901D01*
X141089779Y-94883313D01*
X141063039Y-94906956D01*
X141040055Y-94926314D01*
X141020305Y-94941867D01*
X141003266Y-94954096D01*
X140988415Y-94963483D01*
X140975230Y-94970509D01*
X140963188Y-94975655D01*
X140951766Y-94979404D01*
X140940442Y-94982236D01*
X140928694Y-94984633D01*
X140915999Y-94987076D01*
X140907539Y-94988800D01*
X140882986Y-94992153D01*
X140845426Y-94994911D01*
X140797352Y-94997078D01*
X140741255Y-94998654D01*
X140679627Y-94999640D01*
X140614960Y-95000039D01*
X140549746Y-94999851D01*
X140486476Y-94999078D01*
X140427643Y-94997722D01*
X140375738Y-94995783D01*
X140333253Y-94993264D01*
X140302679Y-94990165D01*
X140292863Y-94988449D01*
X140245009Y-94975719D01*
X140205819Y-94959679D01*
X140168331Y-94937172D01*
X140148939Y-94923176D01*
X140101124Y-94879191D01*
X140059789Y-94825552D01*
X140028839Y-94767578D01*
X140022358Y-94750698D01*
X140017498Y-94736060D01*
X140013575Y-94721749D01*
X140010468Y-94705885D01*
X140008050Y-94686591D01*
X140006197Y-94661988D01*
X140004787Y-94630198D01*
X140003694Y-94589342D01*
X140002795Y-94537542D01*
X140001964Y-94472920D01*
X140001543Y-94435823D01*
X140001231Y-94400526D01*
X140367087Y-94400526D01*
X140367087Y-94632912D01*
X140597570Y-94632912D01*
X140655774Y-94632847D01*
X140708581Y-94632663D01*
X140754064Y-94632377D01*
X140790296Y-94632005D01*
X140815353Y-94631564D01*
X140827308Y-94631071D01*
X140828052Y-94630910D01*
X140822712Y-94625144D01*
X140807457Y-94609498D01*
X140783434Y-94585130D01*
X140751790Y-94553195D01*
X140713673Y-94514851D01*
X140670229Y-94471254D01*
X140622605Y-94423560D01*
X140597570Y-94398523D01*
X140367087Y-94168139D01*
X140367087Y-94400526D01*
X140001231Y-94400526D01*
X140000798Y-94351412D01*
X140000721Y-94280835D01*
X140001480Y-94222308D01*
X140003246Y-94174047D01*
X140003683Y-94168139D01*
X140006187Y-94134270D01*
X140010473Y-94101190D01*
X140016274Y-94073025D01*
X140023760Y-94047991D01*
X140033099Y-94024304D01*
X140042587Y-94003968D01*
X140046410Y-93996645D01*
X140051148Y-93988712D01*
X140057293Y-93979659D01*
X140065341Y-93968976D01*
X140075785Y-93956156D01*
X140089120Y-93940688D01*
X140105840Y-93922064D01*
X140116793Y-93910212D01*
X140623822Y-93910212D01*
X140856805Y-94138599D01*
X140906715Y-94187436D01*
X140953153Y-94232707D01*
X140994942Y-94273274D01*
X141030900Y-94308001D01*
X141059849Y-94335749D01*
X141080610Y-94355383D01*
X141092001Y-94365763D01*
X141093816Y-94367128D01*
X141100384Y-94361920D01*
X141116048Y-94347401D01*
X141138924Y-94325380D01*
X141167127Y-94297665D01*
X141191409Y-94273462D01*
X141284973Y-94179654D01*
X141052657Y-93947337D01*
X140820340Y-93715021D01*
X140722081Y-93812616D01*
X140623822Y-93910212D01*
X140116793Y-93910212D01*
X140126440Y-93899774D01*
X140151414Y-93873310D01*
X140181256Y-93842162D01*
X140216461Y-93805822D01*
X140257522Y-93763779D01*
X140304934Y-93715526D01*
X140359192Y-93660553D01*
X140420790Y-93598350D01*
X140490221Y-93528409D01*
X140564221Y-93454002D01*
X141080897Y-93454002D01*
X141311919Y-93683965D01*
X141361429Y-93733158D01*
X141407496Y-93778755D01*
X141448949Y-93819609D01*
X141484615Y-93854574D01*
X141513324Y-93882503D01*
X141533904Y-93902251D01*
X141545184Y-93912670D01*
X141546969Y-93914023D01*
X141553548Y-93908802D01*
X141569200Y-93894289D01*
X141592022Y-93872314D01*
X141620106Y-93844703D01*
X141642678Y-93822198D01*
X141673209Y-93791192D01*
X141699431Y-93763805D01*
X141719512Y-93742016D01*
X141731614Y-93727802D01*
X141734358Y-93723377D01*
X141729036Y-93716940D01*
X141714020Y-93700953D01*
X141690737Y-93676844D01*
X141660612Y-93646044D01*
X141625070Y-93609980D01*
X141585539Y-93570081D01*
X141543443Y-93527776D01*
X141500209Y-93484493D01*
X141457262Y-93441662D01*
X141416028Y-93400711D01*
X141377934Y-93363069D01*
X141344404Y-93330164D01*
X141316866Y-93303426D01*
X141296744Y-93284283D01*
X141289685Y-93277805D01*
X141272735Y-93262624D01*
X141176816Y-93358313D01*
X141080897Y-93454002D01*
X140564221Y-93454002D01*
X140567981Y-93450221D01*
X140654564Y-93363277D01*
X140750464Y-93267067D01*
X140856174Y-93161083D01*
X140972191Y-93044814D01*
X141016845Y-93000072D01*
X141535299Y-93000072D01*
X141765646Y-93230519D01*
X141815023Y-93279822D01*
X141860968Y-93325516D01*
X141902311Y-93366452D01*
X141937884Y-93401479D01*
X141966518Y-93429450D01*
X141987045Y-93449216D01*
X141998295Y-93459627D01*
X142000072Y-93460965D01*
X142006668Y-93455711D01*
X142022338Y-93441169D01*
X142045173Y-93419169D01*
X142073268Y-93391542D01*
X142095831Y-93369046D01*
X142126374Y-93337983D01*
X142152606Y-93310469D01*
X142172687Y-93288498D01*
X142184781Y-93274067D01*
X142187511Y-93269480D01*
X142182160Y-93262280D01*
X142167058Y-93245587D01*
X142143632Y-93220829D01*
X142113308Y-93189430D01*
X142077514Y-93152819D01*
X142037677Y-93112420D01*
X141995223Y-93069661D01*
X141951580Y-93025969D01*
X141908173Y-92982769D01*
X141866431Y-92941488D01*
X141827780Y-92903552D01*
X141793646Y-92870388D01*
X141765458Y-92843423D01*
X141744640Y-92824083D01*
X141732622Y-92813793D01*
X141730380Y-92812488D01*
X141722478Y-92817768D01*
X141705622Y-92832393D01*
X141681788Y-92854538D01*
X141652950Y-92882379D01*
X141628847Y-92906280D01*
X141535299Y-93000072D01*
X141016845Y-93000072D01*
X141034731Y-92982151D01*
X141469133Y-92546914D01*
X141988447Y-92546914D01*
X142218797Y-92777363D01*
X142268174Y-92826667D01*
X142314118Y-92872362D01*
X142355461Y-92913297D01*
X142391034Y-92948325D01*
X142419668Y-92976296D01*
X142440194Y-92996062D01*
X142451443Y-93006474D01*
X142453220Y-93007813D01*
X142459794Y-93002554D01*
X142475488Y-92987972D01*
X142498436Y-92965860D01*
X142526775Y-92938010D01*
X142552853Y-92912023D01*
X142648413Y-92816233D01*
X142415926Y-92583843D01*
X142183439Y-92351453D01*
X142085943Y-92449184D01*
X141988447Y-92546914D01*
X141469133Y-92546914D01*
X141995918Y-92019116D01*
X142366929Y-92019116D01*
X142673692Y-92325953D01*
X142980454Y-92632789D01*
X143175793Y-92632789D01*
X143371132Y-92632789D01*
X142871124Y-92132728D01*
X142371116Y-91632668D01*
X142369023Y-91825892D01*
X142366929Y-92019116D01*
X141995918Y-92019116D01*
X142000000Y-92015026D01*
X142000000Y-91579302D01*
X142000000Y-91143578D01*
X142019914Y-91103615D01*
X142048891Y-91061636D01*
X142087166Y-91030173D01*
X142131883Y-91010203D01*
X142180190Y-91002702D01*
X142229232Y-91008647D01*
G37*
D15*
%TO.C,R41*%
X113520000Y-82500000D02*
X113630000Y-82500000D01*
X113630000Y-80130000D02*
X113630000Y-84870000D01*
X113630000Y-84870000D02*
X125770000Y-84870000D01*
X125770000Y-80130000D02*
X113630000Y-80130000D01*
X125770000Y-84870000D02*
X125770000Y-80130000D01*
X125880000Y-82500000D02*
X125770000Y-82500000D01*
%TO.C,J11*%
X57522500Y-82550000D02*
X58122500Y-82850000D01*
X57522500Y-83150000D02*
X57522500Y-82550000D01*
X58122500Y-82850000D02*
X57522500Y-83150000D01*
X58322500Y-80740000D02*
X59522500Y-80740000D01*
X58322500Y-87760000D02*
X58322500Y-80740000D01*
X59522500Y-79040000D02*
X73122500Y-79040000D01*
X59522500Y-80740000D02*
X59522500Y-79040000D01*
X73122500Y-79040000D02*
X73122500Y-80740000D01*
X73122500Y-80740000D02*
X74322500Y-80740000D01*
X74322500Y-80740000D02*
X74322500Y-87760000D01*
X74322500Y-87760000D02*
X58322500Y-87760000D01*
%TD*%
M02*
