%TF.GenerationSoftware,KiCad,Pcbnew,8.0.7-8.0.7-0~ubuntu22.04.1*%
%TF.CreationDate,2024-12-28T20:57:26+00:00*%
%TF.ProjectId,power-board,706f7765-722d-4626-9f61-72642e6b6963,1.0.0*%
%TF.SameCoordinates,Original*%
%TF.FileFunction,Plated,1,2,PTH,Drill*%
%TF.FilePolarity,Positive*%
%FSLAX46Y46*%
G04 Gerber Fmt 4.6, Leading zero omitted, Abs format (unit mm)*
G04 Created by KiCad (PCBNEW 8.0.7-8.0.7-0~ubuntu22.04.1) date 2024-12-28 20:57:26*
%MOMM*%
%LPD*%
G01*
G04 APERTURE LIST*
%TA.AperFunction,ComponentDrill*%
%ADD10C,0.950000*%
%TD*%
%TA.AperFunction,ComponentDrill*%
%ADD11C,1.000000*%
%TD*%
%TA.AperFunction,ComponentDrill*%
%ADD12C,1.100000*%
%TD*%
%TA.AperFunction,ComponentDrill*%
%ADD13C,1.200000*%
%TD*%
%TA.AperFunction,ComponentDrill*%
%ADD14C,1.300000*%
%TD*%
%TA.AperFunction,ComponentDrill*%
%ADD15C,1.500000*%
%TD*%
%TA.AperFunction,ComponentDrill*%
%ADD16C,1.700000*%
%TD*%
%TA.AperFunction,ComponentDrill*%
%ADD17C,2.000000*%
%TD*%
%TA.AperFunction,ComponentDrill*%
%ADD18C,2.700000*%
%TD*%
G04 APERTURE END LIST*
D10*
%TO.C,J10*%
X84300000Y-84300000D03*
X86800000Y-84300000D03*
X89300000Y-84300000D03*
X91800000Y-84300000D03*
D11*
%TO.C,Q41*%
X79250000Y-74500000D03*
X81790000Y-74500000D03*
X84330000Y-74500000D03*
%TO.C,Q43*%
X104500000Y-74500000D03*
X107040000Y-74500000D03*
X109580000Y-74500000D03*
D12*
%TO.C,D32*%
X88000000Y-45500000D03*
X90540000Y-45500000D03*
X93080000Y-45500000D03*
%TO.C,D30*%
X99000000Y-45500000D03*
X101540000Y-45500000D03*
X104080000Y-45500000D03*
%TO.C,D31*%
X110000000Y-45500000D03*
X112540000Y-45500000D03*
X115080000Y-45500000D03*
%TO.C,D33*%
X121000000Y-45500000D03*
X123540000Y-45500000D03*
X126080000Y-45500000D03*
D13*
%TO.C,R41*%
X112080000Y-82500000D03*
%TO.C,R40*%
X112080000Y-90500000D03*
%TO.C,R41*%
X127320000Y-82500000D03*
%TO.C,R40*%
X127320000Y-90500000D03*
D14*
%TO.C,K21*%
X64000000Y-54000000D03*
X64000000Y-66200000D03*
%TO.C,K20*%
X65850000Y-32500000D03*
X65850000Y-44500000D03*
%TO.C,K21*%
X70000000Y-52000000D03*
X76000000Y-54000000D03*
X76000000Y-66200000D03*
%TO.C,K20*%
X78050000Y-32500000D03*
X78050000Y-44500000D03*
X80050000Y-38500000D03*
D15*
%TO.C,Q40*%
X88900000Y-75500000D03*
X94350000Y-75500000D03*
X99800000Y-75500000D03*
%TO.C,Q42*%
X114200000Y-75500000D03*
X119650000Y-75500000D03*
X125100000Y-75500000D03*
D16*
%TO.C,J11*%
X60382500Y-82850000D03*
X64342500Y-82850000D03*
X68302500Y-82850000D03*
X72262500Y-82850000D03*
D17*
%TO.C,C31*%
X137842169Y-40300000D03*
%TO.C,C30*%
X138000000Y-63500000D03*
%TO.C,C31*%
X147842169Y-40300000D03*
%TO.C,C30*%
X148000000Y-63500000D03*
D18*
%TO.C,J12*%
X138500000Y-82500000D03*
X143500000Y-82500000D03*
M02*
