%TF.GenerationSoftware,KiCad,Pcbnew,8.0.7-8.0.7-0~ubuntu22.04.1*%
%TF.CreationDate,2024-12-28T20:57:26+00:00*%
%TF.ProjectId,power-board,706f7765-722d-4626-9f61-72642e6b6963,1.0.0*%
%TF.SameCoordinates,Original*%
%TF.FileFunction,Soldermask,Bot*%
%TF.FilePolarity,Negative*%
%FSLAX46Y46*%
G04 Gerber Fmt 4.6, Leading zero omitted, Abs format (unit mm)*
G04 Created by KiCad (PCBNEW 8.0.7-8.0.7-0~ubuntu22.04.1) date 2024-12-28 20:57:26*
%MOMM*%
%LPD*%
G01*
G04 APERTURE LIST*
G04 APERTURE END LIST*
G36*
X112294976Y-89280808D02*
G01*
X112503421Y-89336661D01*
X112699000Y-89427861D01*
X112875771Y-89551637D01*
X113028363Y-89704229D01*
X113152139Y-89881000D01*
X113243339Y-90076579D01*
X113299192Y-90285024D01*
X113318000Y-90500000D01*
X113299192Y-90714976D01*
X113243339Y-90923421D01*
X113152139Y-91119000D01*
X113028363Y-91295771D01*
X112875771Y-91448363D01*
X112699000Y-91572139D01*
X112503421Y-91663339D01*
X112294976Y-91719192D01*
X112080000Y-91738000D01*
X111865024Y-91719192D01*
X111656579Y-91663339D01*
X111461000Y-91572139D01*
X111284229Y-91448363D01*
X111131637Y-91295771D01*
X111007861Y-91119000D01*
X110916661Y-90923421D01*
X110860808Y-90714976D01*
X110842000Y-90500000D01*
X110860808Y-90285024D01*
X110916661Y-90076579D01*
X111007861Y-89881000D01*
X111131637Y-89704229D01*
X111284229Y-89551637D01*
X111461000Y-89427861D01*
X111656579Y-89336661D01*
X111865024Y-89280808D01*
X112080000Y-89262000D01*
X112294976Y-89280808D01*
G37*
G36*
X127534976Y-89280808D02*
G01*
X127743421Y-89336661D01*
X127939000Y-89427861D01*
X128115771Y-89551637D01*
X128268363Y-89704229D01*
X128392139Y-89881000D01*
X128483339Y-90076579D01*
X128539192Y-90285024D01*
X128558000Y-90500000D01*
X128539192Y-90714976D01*
X128483339Y-90923421D01*
X128392139Y-91119000D01*
X128268363Y-91295771D01*
X128115771Y-91448363D01*
X127939000Y-91572139D01*
X127743421Y-91663339D01*
X127534976Y-91719192D01*
X127320000Y-91738000D01*
X127105024Y-91719192D01*
X126896579Y-91663339D01*
X126701000Y-91572139D01*
X126524229Y-91448363D01*
X126371637Y-91295771D01*
X126247861Y-91119000D01*
X126156661Y-90923421D01*
X126100808Y-90714976D01*
X126082000Y-90500000D01*
X126100808Y-90285024D01*
X126156661Y-90076579D01*
X126247861Y-89881000D01*
X126371637Y-89704229D01*
X126524229Y-89551637D01*
X126701000Y-89427861D01*
X126896579Y-89336661D01*
X127105024Y-89280808D01*
X127320000Y-89262000D01*
X127534976Y-89280808D01*
G37*
G36*
X84965938Y-83294650D02*
G01*
X84970653Y-83296732D01*
X84973326Y-83297084D01*
X85006770Y-83312679D01*
X85062759Y-83337401D01*
X85137599Y-83412241D01*
X85162330Y-83468251D01*
X85177915Y-83501673D01*
X85178266Y-83504343D01*
X85180350Y-83509062D01*
X85188000Y-83575000D01*
X85188000Y-85025000D01*
X85180350Y-85090938D01*
X85178266Y-85095656D01*
X85177915Y-85098326D01*
X85162338Y-85131730D01*
X85137599Y-85187759D01*
X85062759Y-85262599D01*
X85006730Y-85287338D01*
X84973326Y-85302915D01*
X84970656Y-85303266D01*
X84965938Y-85305350D01*
X84900000Y-85313000D01*
X83700000Y-85313000D01*
X83634062Y-85305350D01*
X83629343Y-85303266D01*
X83626673Y-85302915D01*
X83593251Y-85287330D01*
X83537241Y-85262599D01*
X83462401Y-85187759D01*
X83437679Y-85131770D01*
X83422084Y-85098326D01*
X83421732Y-85095653D01*
X83419650Y-85090938D01*
X83412000Y-85025000D01*
X83412000Y-83575000D01*
X83419650Y-83509062D01*
X83421732Y-83504346D01*
X83422084Y-83501673D01*
X83437687Y-83468210D01*
X83462401Y-83412241D01*
X83537241Y-83337401D01*
X83593210Y-83312687D01*
X83626673Y-83297084D01*
X83629346Y-83296732D01*
X83634062Y-83294650D01*
X83700000Y-83287000D01*
X84900000Y-83287000D01*
X84965938Y-83294650D01*
G37*
G36*
X87057773Y-83325237D02*
G01*
X87218600Y-83391854D01*
X87363341Y-83488567D01*
X87486433Y-83611659D01*
X87583146Y-83756400D01*
X87649763Y-83917227D01*
X87683724Y-84087961D01*
X87688000Y-84175000D01*
X87688000Y-84425000D01*
X87683724Y-84512039D01*
X87649763Y-84682773D01*
X87583146Y-84843600D01*
X87486433Y-84988341D01*
X87363341Y-85111433D01*
X87218600Y-85208146D01*
X87057773Y-85274763D01*
X86887039Y-85308724D01*
X86712961Y-85308724D01*
X86542227Y-85274763D01*
X86381400Y-85208146D01*
X86236659Y-85111433D01*
X86113567Y-84988341D01*
X86016854Y-84843600D01*
X85950237Y-84682773D01*
X85916276Y-84512039D01*
X85912000Y-84425000D01*
X85912000Y-84175000D01*
X85916276Y-84087961D01*
X85950237Y-83917227D01*
X86016854Y-83756400D01*
X86113567Y-83611659D01*
X86236659Y-83488567D01*
X86381400Y-83391854D01*
X86542227Y-83325237D01*
X86712961Y-83291276D01*
X86887039Y-83291276D01*
X87057773Y-83325237D01*
G37*
G36*
X89557773Y-83325237D02*
G01*
X89718600Y-83391854D01*
X89863341Y-83488567D01*
X89986433Y-83611659D01*
X90083146Y-83756400D01*
X90149763Y-83917227D01*
X90183724Y-84087961D01*
X90188000Y-84175000D01*
X90188000Y-84425000D01*
X90183724Y-84512039D01*
X90149763Y-84682773D01*
X90083146Y-84843600D01*
X89986433Y-84988341D01*
X89863341Y-85111433D01*
X89718600Y-85208146D01*
X89557773Y-85274763D01*
X89387039Y-85308724D01*
X89212961Y-85308724D01*
X89042227Y-85274763D01*
X88881400Y-85208146D01*
X88736659Y-85111433D01*
X88613567Y-84988341D01*
X88516854Y-84843600D01*
X88450237Y-84682773D01*
X88416276Y-84512039D01*
X88412000Y-84425000D01*
X88412000Y-84175000D01*
X88416276Y-84087961D01*
X88450237Y-83917227D01*
X88516854Y-83756400D01*
X88613567Y-83611659D01*
X88736659Y-83488567D01*
X88881400Y-83391854D01*
X89042227Y-83325237D01*
X89212961Y-83291276D01*
X89387039Y-83291276D01*
X89557773Y-83325237D01*
G37*
G36*
X92057773Y-83325237D02*
G01*
X92218600Y-83391854D01*
X92363341Y-83488567D01*
X92486433Y-83611659D01*
X92583146Y-83756400D01*
X92649763Y-83917227D01*
X92683724Y-84087961D01*
X92688000Y-84175000D01*
X92688000Y-84425000D01*
X92683724Y-84512039D01*
X92649763Y-84682773D01*
X92583146Y-84843600D01*
X92486433Y-84988341D01*
X92363341Y-85111433D01*
X92218600Y-85208146D01*
X92057773Y-85274763D01*
X91887039Y-85308724D01*
X91712961Y-85308724D01*
X91542227Y-85274763D01*
X91381400Y-85208146D01*
X91236659Y-85111433D01*
X91113567Y-84988341D01*
X91016854Y-84843600D01*
X90950237Y-84682773D01*
X90916276Y-84512039D01*
X90912000Y-84425000D01*
X90912000Y-84175000D01*
X90916276Y-84087961D01*
X90950237Y-83917227D01*
X91016854Y-83756400D01*
X91113567Y-83611659D01*
X91236659Y-83488567D01*
X91381400Y-83391854D01*
X91542227Y-83325237D01*
X91712961Y-83291276D01*
X91887039Y-83291276D01*
X92057773Y-83325237D01*
G37*
G36*
X138914643Y-80504627D02*
G01*
X139182485Y-80579672D01*
X139437613Y-80690490D01*
X139675274Y-80835015D01*
X139891043Y-81010556D01*
X140080900Y-81213843D01*
X140241307Y-81441088D01*
X140369277Y-81688059D01*
X140462425Y-81950154D01*
X140519018Y-82222492D01*
X140538000Y-82500000D01*
X140519018Y-82777508D01*
X140462425Y-83049846D01*
X140369277Y-83311941D01*
X140241307Y-83558912D01*
X140080900Y-83786157D01*
X139891043Y-83989444D01*
X139675274Y-84164985D01*
X139437613Y-84309510D01*
X139182485Y-84420328D01*
X138914643Y-84495373D01*
X138639078Y-84533249D01*
X138360922Y-84533249D01*
X138085357Y-84495373D01*
X137817515Y-84420328D01*
X137562387Y-84309510D01*
X137324726Y-84164985D01*
X137108957Y-83989444D01*
X136919100Y-83786157D01*
X136758693Y-83558912D01*
X136630723Y-83311941D01*
X136537575Y-83049846D01*
X136480982Y-82777508D01*
X136462000Y-82500000D01*
X136480982Y-82222492D01*
X136537575Y-81950154D01*
X136630723Y-81688059D01*
X136758693Y-81441088D01*
X136919100Y-81213843D01*
X137108957Y-81010556D01*
X137324726Y-80835015D01*
X137562387Y-80690490D01*
X137817515Y-80579672D01*
X138085357Y-80504627D01*
X138360922Y-80466751D01*
X138639078Y-80466751D01*
X138914643Y-80504627D01*
G37*
G36*
X145414542Y-80564893D02*
G01*
X145426870Y-80573130D01*
X145435107Y-80585458D01*
X145438000Y-80600000D01*
X145438000Y-84400000D01*
X145435107Y-84414542D01*
X145426870Y-84426870D01*
X145414542Y-84435107D01*
X145400000Y-84438000D01*
X141600000Y-84438000D01*
X141585458Y-84435107D01*
X141573130Y-84426870D01*
X141564893Y-84414542D01*
X141562000Y-84400000D01*
X141562000Y-80600000D01*
X141564893Y-80585458D01*
X141573130Y-80573130D01*
X141585458Y-80564893D01*
X141600000Y-80562000D01*
X145400000Y-80562000D01*
X145414542Y-80564893D01*
G37*
G36*
X61548437Y-81469650D02*
G01*
X61553153Y-81471732D01*
X61555823Y-81472084D01*
X61589222Y-81487658D01*
X61645259Y-81512401D01*
X61720099Y-81587241D01*
X61744851Y-81643299D01*
X61760415Y-81676676D01*
X61760766Y-81679343D01*
X61762850Y-81684063D01*
X61770499Y-81750002D01*
X61770499Y-81753267D01*
X61770500Y-81753275D01*
X61770500Y-82923353D01*
X61770500Y-83949999D01*
X61762850Y-84015937D01*
X61760766Y-84020656D01*
X61760415Y-84023323D01*
X61744859Y-84056681D01*
X61720099Y-84112759D01*
X61645259Y-84187599D01*
X61589181Y-84212359D01*
X61555823Y-84227915D01*
X61553156Y-84228266D01*
X61548437Y-84230350D01*
X61482498Y-84237999D01*
X61479231Y-84237999D01*
X61479224Y-84238000D01*
X59285776Y-84238000D01*
X59285775Y-84237999D01*
X59282501Y-84238000D01*
X59216563Y-84230350D01*
X59211843Y-84228266D01*
X59209176Y-84227915D01*
X59175799Y-84212351D01*
X59119741Y-84187599D01*
X59044901Y-84112759D01*
X59020158Y-84056722D01*
X59004584Y-84023323D01*
X59004232Y-84020653D01*
X59002150Y-84015937D01*
X58994501Y-83949998D01*
X58994500Y-83946731D01*
X58994500Y-83946724D01*
X58994500Y-81753275D01*
X58994500Y-81753274D01*
X58994500Y-81750001D01*
X59002150Y-81684063D01*
X59004232Y-81679346D01*
X59004584Y-81676676D01*
X59020166Y-81643258D01*
X59044901Y-81587241D01*
X59119741Y-81512401D01*
X59175758Y-81487666D01*
X59209176Y-81472084D01*
X59211846Y-81471732D01*
X59216563Y-81469650D01*
X59282502Y-81462001D01*
X59285768Y-81462000D01*
X59285776Y-81462000D01*
X61479224Y-81462000D01*
X61482499Y-81462000D01*
X61548437Y-81469650D01*
G37*
G36*
X64683234Y-81504472D02*
G01*
X64900053Y-81578907D01*
X65101664Y-81688013D01*
X65282567Y-81828815D01*
X65437827Y-81997473D01*
X65563210Y-82189385D01*
X65655294Y-82399317D01*
X65711569Y-82621543D01*
X65730500Y-82850000D01*
X65711569Y-83078457D01*
X65655294Y-83300683D01*
X65563210Y-83510615D01*
X65437827Y-83702527D01*
X65282567Y-83871185D01*
X65101664Y-84011987D01*
X64900053Y-84121093D01*
X64683234Y-84195528D01*
X64457120Y-84233259D01*
X64227880Y-84233259D01*
X64001766Y-84195528D01*
X63784947Y-84121093D01*
X63583336Y-84011987D01*
X63402433Y-83871185D01*
X63247173Y-83702527D01*
X63121790Y-83510615D01*
X63029706Y-83300683D01*
X62973431Y-83078457D01*
X62954500Y-82850000D01*
X62973431Y-82621543D01*
X63029706Y-82399317D01*
X63121790Y-82189385D01*
X63247173Y-81997473D01*
X63402433Y-81828815D01*
X63583336Y-81688013D01*
X63784947Y-81578907D01*
X64001766Y-81504472D01*
X64227880Y-81466741D01*
X64457120Y-81466741D01*
X64683234Y-81504472D01*
G37*
G36*
X68643234Y-81504472D02*
G01*
X68860053Y-81578907D01*
X69061664Y-81688013D01*
X69242567Y-81828815D01*
X69397827Y-81997473D01*
X69523210Y-82189385D01*
X69615294Y-82399317D01*
X69671569Y-82621543D01*
X69690500Y-82850000D01*
X69671569Y-83078457D01*
X69615294Y-83300683D01*
X69523210Y-83510615D01*
X69397827Y-83702527D01*
X69242567Y-83871185D01*
X69061664Y-84011987D01*
X68860053Y-84121093D01*
X68643234Y-84195528D01*
X68417120Y-84233259D01*
X68187880Y-84233259D01*
X67961766Y-84195528D01*
X67744947Y-84121093D01*
X67543336Y-84011987D01*
X67362433Y-83871185D01*
X67207173Y-83702527D01*
X67081790Y-83510615D01*
X66989706Y-83300683D01*
X66933431Y-83078457D01*
X66914500Y-82850000D01*
X66933431Y-82621543D01*
X66989706Y-82399317D01*
X67081790Y-82189385D01*
X67207173Y-81997473D01*
X67362433Y-81828815D01*
X67543336Y-81688013D01*
X67744947Y-81578907D01*
X67961766Y-81504472D01*
X68187880Y-81466741D01*
X68417120Y-81466741D01*
X68643234Y-81504472D01*
G37*
G36*
X72603234Y-81504472D02*
G01*
X72820053Y-81578907D01*
X73021664Y-81688013D01*
X73202567Y-81828815D01*
X73357827Y-81997473D01*
X73483210Y-82189385D01*
X73575294Y-82399317D01*
X73631569Y-82621543D01*
X73650500Y-82850000D01*
X73631569Y-83078457D01*
X73575294Y-83300683D01*
X73483210Y-83510615D01*
X73357827Y-83702527D01*
X73202567Y-83871185D01*
X73021664Y-84011987D01*
X72820053Y-84121093D01*
X72603234Y-84195528D01*
X72377120Y-84233259D01*
X72147880Y-84233259D01*
X71921766Y-84195528D01*
X71704947Y-84121093D01*
X71503336Y-84011987D01*
X71322433Y-83871185D01*
X71167173Y-83702527D01*
X71041790Y-83510615D01*
X70949706Y-83300683D01*
X70893431Y-83078457D01*
X70874500Y-82850000D01*
X70893431Y-82621543D01*
X70949706Y-82399317D01*
X71041790Y-82189385D01*
X71167173Y-81997473D01*
X71322433Y-81828815D01*
X71503336Y-81688013D01*
X71704947Y-81578907D01*
X71921766Y-81504472D01*
X72147880Y-81466741D01*
X72377120Y-81466741D01*
X72603234Y-81504472D01*
G37*
G36*
X112294976Y-81280808D02*
G01*
X112503421Y-81336661D01*
X112699000Y-81427861D01*
X112875771Y-81551637D01*
X113028363Y-81704229D01*
X113152139Y-81881000D01*
X113243339Y-82076579D01*
X113299192Y-82285024D01*
X113318000Y-82500000D01*
X113299192Y-82714976D01*
X113243339Y-82923421D01*
X113152139Y-83119000D01*
X113028363Y-83295771D01*
X112875771Y-83448363D01*
X112699000Y-83572139D01*
X112503421Y-83663339D01*
X112294976Y-83719192D01*
X112080000Y-83738000D01*
X111865024Y-83719192D01*
X111656579Y-83663339D01*
X111461000Y-83572139D01*
X111284229Y-83448363D01*
X111131637Y-83295771D01*
X111007861Y-83119000D01*
X110916661Y-82923421D01*
X110860808Y-82714976D01*
X110842000Y-82500000D01*
X110860808Y-82285024D01*
X110916661Y-82076579D01*
X111007861Y-81881000D01*
X111131637Y-81704229D01*
X111284229Y-81551637D01*
X111461000Y-81427861D01*
X111656579Y-81336661D01*
X111865024Y-81280808D01*
X112080000Y-81262000D01*
X112294976Y-81280808D01*
G37*
G36*
X127534976Y-81280808D02*
G01*
X127743421Y-81336661D01*
X127939000Y-81427861D01*
X128115771Y-81551637D01*
X128268363Y-81704229D01*
X128392139Y-81881000D01*
X128483339Y-82076579D01*
X128539192Y-82285024D01*
X128558000Y-82500000D01*
X128539192Y-82714976D01*
X128483339Y-82923421D01*
X128392139Y-83119000D01*
X128268363Y-83295771D01*
X128115771Y-83448363D01*
X127939000Y-83572139D01*
X127743421Y-83663339D01*
X127534976Y-83719192D01*
X127320000Y-83738000D01*
X127105024Y-83719192D01*
X126896579Y-83663339D01*
X126701000Y-83572139D01*
X126524229Y-83448363D01*
X126371637Y-83295771D01*
X126247861Y-83119000D01*
X126156661Y-82923421D01*
X126100808Y-82714976D01*
X126082000Y-82500000D01*
X126100808Y-82285024D01*
X126156661Y-82076579D01*
X126247861Y-81881000D01*
X126371637Y-81704229D01*
X126524229Y-81551637D01*
X126701000Y-81427861D01*
X126896579Y-81336661D01*
X127105024Y-81280808D01*
X127320000Y-81262000D01*
X127534976Y-81280808D01*
G37*
G36*
X90164542Y-73214893D02*
G01*
X90176870Y-73223130D01*
X90185107Y-73235458D01*
X90188000Y-73250000D01*
X90188000Y-77750000D01*
X90185107Y-77764542D01*
X90176870Y-77776870D01*
X90164542Y-77785107D01*
X90150000Y-77788000D01*
X87650000Y-77788000D01*
X87635458Y-77785107D01*
X87623130Y-77776870D01*
X87614893Y-77764542D01*
X87612000Y-77750000D01*
X87612000Y-73250000D01*
X87614893Y-73235458D01*
X87623130Y-73223130D01*
X87635458Y-73214893D01*
X87650000Y-73212000D01*
X90150000Y-73212000D01*
X90164542Y-73214893D01*
G37*
G36*
X115464542Y-73214893D02*
G01*
X115476870Y-73223130D01*
X115485107Y-73235458D01*
X115488000Y-73250000D01*
X115488000Y-77750000D01*
X115485107Y-77764542D01*
X115476870Y-77776870D01*
X115464542Y-77785107D01*
X115450000Y-77788000D01*
X112950000Y-77788000D01*
X112935458Y-77785107D01*
X112923130Y-77776870D01*
X112914893Y-77764542D01*
X112912000Y-77750000D01*
X112912000Y-73250000D01*
X112914893Y-73235458D01*
X112923130Y-73223130D01*
X112935458Y-73214893D01*
X112950000Y-73212000D01*
X115450000Y-73212000D01*
X115464542Y-73214893D01*
G37*
G36*
X94650678Y-73247588D02*
G01*
X94842896Y-73310043D01*
X95022978Y-73401799D01*
X95186489Y-73520597D01*
X95329403Y-73663511D01*
X95448201Y-73827022D01*
X95539957Y-74007104D01*
X95602412Y-74199322D01*
X95634030Y-74398945D01*
X95638000Y-74500000D01*
X95638000Y-76500000D01*
X95634030Y-76601055D01*
X95602412Y-76800678D01*
X95539957Y-76992896D01*
X95448201Y-77172978D01*
X95329403Y-77336489D01*
X95186489Y-77479403D01*
X95022978Y-77598201D01*
X94842896Y-77689957D01*
X94650678Y-77752412D01*
X94451055Y-77784030D01*
X94248945Y-77784030D01*
X94049322Y-77752412D01*
X93857104Y-77689957D01*
X93677022Y-77598201D01*
X93513511Y-77479403D01*
X93370597Y-77336489D01*
X93251799Y-77172978D01*
X93160043Y-76992896D01*
X93097588Y-76800678D01*
X93065970Y-76601055D01*
X93062000Y-76500000D01*
X93062000Y-74500000D01*
X93065970Y-74398945D01*
X93097588Y-74199322D01*
X93160043Y-74007104D01*
X93251799Y-73827022D01*
X93370597Y-73663511D01*
X93513511Y-73520597D01*
X93677022Y-73401799D01*
X93857104Y-73310043D01*
X94049322Y-73247588D01*
X94248945Y-73215970D01*
X94451055Y-73215970D01*
X94650678Y-73247588D01*
G37*
G36*
X100100678Y-73247588D02*
G01*
X100292896Y-73310043D01*
X100472978Y-73401799D01*
X100636489Y-73520597D01*
X100779403Y-73663511D01*
X100898201Y-73827022D01*
X100989957Y-74007104D01*
X101052412Y-74199322D01*
X101084030Y-74398945D01*
X101088000Y-74500000D01*
X101088000Y-76500000D01*
X101084030Y-76601055D01*
X101052412Y-76800678D01*
X100989957Y-76992896D01*
X100898201Y-77172978D01*
X100779403Y-77336489D01*
X100636489Y-77479403D01*
X100472978Y-77598201D01*
X100292896Y-77689957D01*
X100100678Y-77752412D01*
X99901055Y-77784030D01*
X99698945Y-77784030D01*
X99499322Y-77752412D01*
X99307104Y-77689957D01*
X99127022Y-77598201D01*
X98963511Y-77479403D01*
X98820597Y-77336489D01*
X98701799Y-77172978D01*
X98610043Y-76992896D01*
X98547588Y-76800678D01*
X98515970Y-76601055D01*
X98512000Y-76500000D01*
X98512000Y-74500000D01*
X98515970Y-74398945D01*
X98547588Y-74199322D01*
X98610043Y-74007104D01*
X98701799Y-73827022D01*
X98820597Y-73663511D01*
X98963511Y-73520597D01*
X99127022Y-73401799D01*
X99307104Y-73310043D01*
X99499322Y-73247588D01*
X99698945Y-73215970D01*
X99901055Y-73215970D01*
X100100678Y-73247588D01*
G37*
G36*
X119950678Y-73247588D02*
G01*
X120142896Y-73310043D01*
X120322978Y-73401799D01*
X120486489Y-73520597D01*
X120629403Y-73663511D01*
X120748201Y-73827022D01*
X120839957Y-74007104D01*
X120902412Y-74199322D01*
X120934030Y-74398945D01*
X120938000Y-74500000D01*
X120938000Y-76500000D01*
X120934030Y-76601055D01*
X120902412Y-76800678D01*
X120839957Y-76992896D01*
X120748201Y-77172978D01*
X120629403Y-77336489D01*
X120486489Y-77479403D01*
X120322978Y-77598201D01*
X120142896Y-77689957D01*
X119950678Y-77752412D01*
X119751055Y-77784030D01*
X119548945Y-77784030D01*
X119349322Y-77752412D01*
X119157104Y-77689957D01*
X118977022Y-77598201D01*
X118813511Y-77479403D01*
X118670597Y-77336489D01*
X118551799Y-77172978D01*
X118460043Y-76992896D01*
X118397588Y-76800678D01*
X118365970Y-76601055D01*
X118362000Y-76500000D01*
X118362000Y-74500000D01*
X118365970Y-74398945D01*
X118397588Y-74199322D01*
X118460043Y-74007104D01*
X118551799Y-73827022D01*
X118670597Y-73663511D01*
X118813511Y-73520597D01*
X118977022Y-73401799D01*
X119157104Y-73310043D01*
X119349322Y-73247588D01*
X119548945Y-73215970D01*
X119751055Y-73215970D01*
X119950678Y-73247588D01*
G37*
G36*
X125400678Y-73247588D02*
G01*
X125592896Y-73310043D01*
X125772978Y-73401799D01*
X125936489Y-73520597D01*
X126079403Y-73663511D01*
X126198201Y-73827022D01*
X126289957Y-74007104D01*
X126352412Y-74199322D01*
X126384030Y-74398945D01*
X126388000Y-74500000D01*
X126388000Y-76500000D01*
X126384030Y-76601055D01*
X126352412Y-76800678D01*
X126289957Y-76992896D01*
X126198201Y-77172978D01*
X126079403Y-77336489D01*
X125936489Y-77479403D01*
X125772978Y-77598201D01*
X125592896Y-77689957D01*
X125400678Y-77752412D01*
X125201055Y-77784030D01*
X124998945Y-77784030D01*
X124799322Y-77752412D01*
X124607104Y-77689957D01*
X124427022Y-77598201D01*
X124263511Y-77479403D01*
X124120597Y-77336489D01*
X124001799Y-77172978D01*
X123910043Y-76992896D01*
X123847588Y-76800678D01*
X123815970Y-76601055D01*
X123812000Y-76500000D01*
X123812000Y-74500000D01*
X123815970Y-74398945D01*
X123847588Y-74199322D01*
X123910043Y-74007104D01*
X124001799Y-73827022D01*
X124120597Y-73663511D01*
X124263511Y-73520597D01*
X124427022Y-73401799D01*
X124607104Y-73310043D01*
X124799322Y-73247588D01*
X124998945Y-73215970D01*
X125201055Y-73215970D01*
X125400678Y-73247588D01*
G37*
G36*
X80164542Y-73564893D02*
G01*
X80176870Y-73573130D01*
X80185107Y-73585458D01*
X80188000Y-73600000D01*
X80188000Y-75400000D01*
X80185107Y-75414542D01*
X80176870Y-75426870D01*
X80164542Y-75435107D01*
X80150000Y-75438000D01*
X78350000Y-75438000D01*
X78335458Y-75435107D01*
X78323130Y-75426870D01*
X78314893Y-75414542D01*
X78312000Y-75400000D01*
X78312000Y-73600000D01*
X78314893Y-73585458D01*
X78323130Y-73573130D01*
X78335458Y-73564893D01*
X78350000Y-73562000D01*
X80150000Y-73562000D01*
X80164542Y-73564893D01*
G37*
G36*
X105414542Y-73564893D02*
G01*
X105426870Y-73573130D01*
X105435107Y-73585458D01*
X105438000Y-73600000D01*
X105438000Y-75400000D01*
X105435107Y-75414542D01*
X105426870Y-75426870D01*
X105414542Y-75435107D01*
X105400000Y-75438000D01*
X103600000Y-75438000D01*
X103585458Y-75435107D01*
X103573130Y-75426870D01*
X103564893Y-75414542D01*
X103562000Y-75400000D01*
X103562000Y-73600000D01*
X103564893Y-73585458D01*
X103573130Y-73573130D01*
X103585458Y-73564893D01*
X103600000Y-73562000D01*
X105400000Y-73562000D01*
X105414542Y-73564893D01*
G37*
G36*
X81839719Y-73567138D02*
G01*
X81888048Y-73567138D01*
X81929779Y-73576008D01*
X81972946Y-73580260D01*
X82027183Y-73596712D01*
X82079858Y-73607909D01*
X82113560Y-73622914D01*
X82148866Y-73633624D01*
X82204967Y-73663611D01*
X82259000Y-73687668D01*
X82284124Y-73705922D01*
X82310988Y-73720281D01*
X82365788Y-73765254D01*
X82417645Y-73802930D01*
X82434480Y-73821627D01*
X82453095Y-73836904D01*
X82503115Y-73897854D01*
X82548858Y-73948657D01*
X82558469Y-73965304D01*
X82569718Y-73979011D01*
X82611336Y-74056872D01*
X82646906Y-74118481D01*
X82650996Y-74131070D01*
X82656375Y-74141133D01*
X82686031Y-74238897D01*
X82707502Y-74304979D01*
X82708257Y-74312170D01*
X82709739Y-74317053D01*
X82724154Y-74463408D01*
X82728000Y-74500000D01*
X82724153Y-74536594D01*
X82709739Y-74682946D01*
X82708258Y-74687828D01*
X82707502Y-74695021D01*
X82686026Y-74761116D01*
X82656375Y-74858866D01*
X82650997Y-74868926D01*
X82646906Y-74881519D01*
X82611329Y-74943139D01*
X82569718Y-75020988D01*
X82558471Y-75034692D01*
X82548858Y-75051343D01*
X82503105Y-75102156D01*
X82453095Y-75163095D01*
X82434483Y-75178368D01*
X82417645Y-75197070D01*
X82365778Y-75234753D01*
X82310988Y-75279718D01*
X82284129Y-75294074D01*
X82259000Y-75312332D01*
X82204956Y-75336393D01*
X82148866Y-75366375D01*
X82113567Y-75377082D01*
X82079858Y-75392091D01*
X82027172Y-75403289D01*
X81972946Y-75419739D01*
X81929787Y-75423989D01*
X81888048Y-75432862D01*
X81839709Y-75432862D01*
X81790000Y-75437758D01*
X81740291Y-75432862D01*
X81691952Y-75432862D01*
X81650212Y-75423989D01*
X81607053Y-75419739D01*
X81552824Y-75403289D01*
X81500142Y-75392091D01*
X81466434Y-75377083D01*
X81431133Y-75366375D01*
X81375037Y-75336391D01*
X81321000Y-75312332D01*
X81295872Y-75294076D01*
X81269011Y-75279718D01*
X81214213Y-75234747D01*
X81162355Y-75197070D01*
X81145519Y-75178371D01*
X81126904Y-75163095D01*
X81076882Y-75102143D01*
X81031142Y-75051343D01*
X81021531Y-75034696D01*
X81010281Y-75020988D01*
X80968657Y-74943116D01*
X80933094Y-74881519D01*
X80929004Y-74868931D01*
X80923624Y-74858866D01*
X80893958Y-74761070D01*
X80872498Y-74695021D01*
X80871742Y-74687833D01*
X80870260Y-74682946D01*
X80855830Y-74536442D01*
X80852000Y-74500000D01*
X80855830Y-74463560D01*
X80870260Y-74317053D01*
X80871742Y-74312165D01*
X80872498Y-74304979D01*
X80893953Y-74238943D01*
X80923624Y-74141133D01*
X80929004Y-74131066D01*
X80933094Y-74118481D01*
X80968649Y-74056896D01*
X81010281Y-73979011D01*
X81021533Y-73965300D01*
X81031142Y-73948657D01*
X81076873Y-73897866D01*
X81126904Y-73836904D01*
X81145522Y-73821624D01*
X81162355Y-73802930D01*
X81214202Y-73765260D01*
X81269011Y-73720281D01*
X81295878Y-73705920D01*
X81321000Y-73687668D01*
X81375026Y-73663613D01*
X81431133Y-73633624D01*
X81466441Y-73622913D01*
X81500142Y-73607909D01*
X81552813Y-73596713D01*
X81607053Y-73580260D01*
X81650221Y-73576008D01*
X81691952Y-73567138D01*
X81740281Y-73567138D01*
X81790000Y-73562241D01*
X81839719Y-73567138D01*
G37*
G36*
X84379719Y-73567138D02*
G01*
X84428048Y-73567138D01*
X84469779Y-73576008D01*
X84512946Y-73580260D01*
X84567183Y-73596712D01*
X84619858Y-73607909D01*
X84653560Y-73622914D01*
X84688866Y-73633624D01*
X84744967Y-73663611D01*
X84799000Y-73687668D01*
X84824124Y-73705922D01*
X84850988Y-73720281D01*
X84905788Y-73765254D01*
X84957645Y-73802930D01*
X84974480Y-73821627D01*
X84993095Y-73836904D01*
X85043115Y-73897854D01*
X85088858Y-73948657D01*
X85098469Y-73965304D01*
X85109718Y-73979011D01*
X85151336Y-74056872D01*
X85186906Y-74118481D01*
X85190996Y-74131070D01*
X85196375Y-74141133D01*
X85226031Y-74238897D01*
X85247502Y-74304979D01*
X85248257Y-74312170D01*
X85249739Y-74317053D01*
X85264154Y-74463408D01*
X85268000Y-74500000D01*
X85264153Y-74536594D01*
X85249739Y-74682946D01*
X85248258Y-74687828D01*
X85247502Y-74695021D01*
X85226026Y-74761116D01*
X85196375Y-74858866D01*
X85190997Y-74868926D01*
X85186906Y-74881519D01*
X85151329Y-74943139D01*
X85109718Y-75020988D01*
X85098471Y-75034692D01*
X85088858Y-75051343D01*
X85043105Y-75102156D01*
X84993095Y-75163095D01*
X84974483Y-75178368D01*
X84957645Y-75197070D01*
X84905778Y-75234753D01*
X84850988Y-75279718D01*
X84824129Y-75294074D01*
X84799000Y-75312332D01*
X84744956Y-75336393D01*
X84688866Y-75366375D01*
X84653567Y-75377082D01*
X84619858Y-75392091D01*
X84567172Y-75403289D01*
X84512946Y-75419739D01*
X84469787Y-75423989D01*
X84428048Y-75432862D01*
X84379709Y-75432862D01*
X84330000Y-75437758D01*
X84280291Y-75432862D01*
X84231952Y-75432862D01*
X84190212Y-75423989D01*
X84147053Y-75419739D01*
X84092824Y-75403289D01*
X84040142Y-75392091D01*
X84006434Y-75377083D01*
X83971133Y-75366375D01*
X83915037Y-75336391D01*
X83861000Y-75312332D01*
X83835872Y-75294076D01*
X83809011Y-75279718D01*
X83754213Y-75234747D01*
X83702355Y-75197070D01*
X83685519Y-75178371D01*
X83666904Y-75163095D01*
X83616882Y-75102143D01*
X83571142Y-75051343D01*
X83561531Y-75034696D01*
X83550281Y-75020988D01*
X83508657Y-74943116D01*
X83473094Y-74881519D01*
X83469004Y-74868931D01*
X83463624Y-74858866D01*
X83433958Y-74761070D01*
X83412498Y-74695021D01*
X83411742Y-74687833D01*
X83410260Y-74682946D01*
X83395830Y-74536442D01*
X83392000Y-74500000D01*
X83395830Y-74463560D01*
X83410260Y-74317053D01*
X83411742Y-74312165D01*
X83412498Y-74304979D01*
X83433953Y-74238943D01*
X83463624Y-74141133D01*
X83469004Y-74131066D01*
X83473094Y-74118481D01*
X83508649Y-74056896D01*
X83550281Y-73979011D01*
X83561533Y-73965300D01*
X83571142Y-73948657D01*
X83616873Y-73897866D01*
X83666904Y-73836904D01*
X83685522Y-73821624D01*
X83702355Y-73802930D01*
X83754202Y-73765260D01*
X83809011Y-73720281D01*
X83835878Y-73705920D01*
X83861000Y-73687668D01*
X83915026Y-73663613D01*
X83971133Y-73633624D01*
X84006441Y-73622913D01*
X84040142Y-73607909D01*
X84092813Y-73596713D01*
X84147053Y-73580260D01*
X84190221Y-73576008D01*
X84231952Y-73567138D01*
X84280281Y-73567138D01*
X84330000Y-73562241D01*
X84379719Y-73567138D01*
G37*
G36*
X107089719Y-73567138D02*
G01*
X107138048Y-73567138D01*
X107179779Y-73576008D01*
X107222946Y-73580260D01*
X107277183Y-73596712D01*
X107329858Y-73607909D01*
X107363560Y-73622914D01*
X107398866Y-73633624D01*
X107454967Y-73663611D01*
X107509000Y-73687668D01*
X107534124Y-73705922D01*
X107560988Y-73720281D01*
X107615788Y-73765254D01*
X107667645Y-73802930D01*
X107684480Y-73821627D01*
X107703095Y-73836904D01*
X107753115Y-73897854D01*
X107798858Y-73948657D01*
X107808469Y-73965304D01*
X107819718Y-73979011D01*
X107861336Y-74056872D01*
X107896906Y-74118481D01*
X107900996Y-74131070D01*
X107906375Y-74141133D01*
X107936031Y-74238897D01*
X107957502Y-74304979D01*
X107958257Y-74312170D01*
X107959739Y-74317053D01*
X107974154Y-74463408D01*
X107978000Y-74500000D01*
X107974153Y-74536594D01*
X107959739Y-74682946D01*
X107958258Y-74687828D01*
X107957502Y-74695021D01*
X107936026Y-74761116D01*
X107906375Y-74858866D01*
X107900997Y-74868926D01*
X107896906Y-74881519D01*
X107861329Y-74943139D01*
X107819718Y-75020988D01*
X107808471Y-75034692D01*
X107798858Y-75051343D01*
X107753105Y-75102156D01*
X107703095Y-75163095D01*
X107684483Y-75178368D01*
X107667645Y-75197070D01*
X107615778Y-75234753D01*
X107560988Y-75279718D01*
X107534129Y-75294074D01*
X107509000Y-75312332D01*
X107454956Y-75336393D01*
X107398866Y-75366375D01*
X107363567Y-75377082D01*
X107329858Y-75392091D01*
X107277172Y-75403289D01*
X107222946Y-75419739D01*
X107179787Y-75423989D01*
X107138048Y-75432862D01*
X107089709Y-75432862D01*
X107040000Y-75437758D01*
X106990291Y-75432862D01*
X106941952Y-75432862D01*
X106900212Y-75423989D01*
X106857053Y-75419739D01*
X106802824Y-75403289D01*
X106750142Y-75392091D01*
X106716434Y-75377083D01*
X106681133Y-75366375D01*
X106625037Y-75336391D01*
X106571000Y-75312332D01*
X106545872Y-75294076D01*
X106519011Y-75279718D01*
X106464213Y-75234747D01*
X106412355Y-75197070D01*
X106395519Y-75178371D01*
X106376904Y-75163095D01*
X106326882Y-75102143D01*
X106281142Y-75051343D01*
X106271531Y-75034696D01*
X106260281Y-75020988D01*
X106218657Y-74943116D01*
X106183094Y-74881519D01*
X106179004Y-74868931D01*
X106173624Y-74858866D01*
X106143958Y-74761070D01*
X106122498Y-74695021D01*
X106121742Y-74687833D01*
X106120260Y-74682946D01*
X106105830Y-74536442D01*
X106102000Y-74500000D01*
X106105830Y-74463560D01*
X106120260Y-74317053D01*
X106121742Y-74312165D01*
X106122498Y-74304979D01*
X106143953Y-74238943D01*
X106173624Y-74141133D01*
X106179004Y-74131066D01*
X106183094Y-74118481D01*
X106218649Y-74056896D01*
X106260281Y-73979011D01*
X106271533Y-73965300D01*
X106281142Y-73948657D01*
X106326873Y-73897866D01*
X106376904Y-73836904D01*
X106395522Y-73821624D01*
X106412355Y-73802930D01*
X106464202Y-73765260D01*
X106519011Y-73720281D01*
X106545878Y-73705920D01*
X106571000Y-73687668D01*
X106625026Y-73663613D01*
X106681133Y-73633624D01*
X106716441Y-73622913D01*
X106750142Y-73607909D01*
X106802813Y-73596713D01*
X106857053Y-73580260D01*
X106900221Y-73576008D01*
X106941952Y-73567138D01*
X106990281Y-73567138D01*
X107040000Y-73562241D01*
X107089719Y-73567138D01*
G37*
G36*
X109629719Y-73567138D02*
G01*
X109678048Y-73567138D01*
X109719779Y-73576008D01*
X109762946Y-73580260D01*
X109817183Y-73596712D01*
X109869858Y-73607909D01*
X109903560Y-73622914D01*
X109938866Y-73633624D01*
X109994967Y-73663611D01*
X110049000Y-73687668D01*
X110074124Y-73705922D01*
X110100988Y-73720281D01*
X110155788Y-73765254D01*
X110207645Y-73802930D01*
X110224480Y-73821627D01*
X110243095Y-73836904D01*
X110293115Y-73897854D01*
X110338858Y-73948657D01*
X110348469Y-73965304D01*
X110359718Y-73979011D01*
X110401336Y-74056872D01*
X110436906Y-74118481D01*
X110440996Y-74131070D01*
X110446375Y-74141133D01*
X110476031Y-74238897D01*
X110497502Y-74304979D01*
X110498257Y-74312170D01*
X110499739Y-74317053D01*
X110514154Y-74463408D01*
X110518000Y-74500000D01*
X110514153Y-74536594D01*
X110499739Y-74682946D01*
X110498258Y-74687828D01*
X110497502Y-74695021D01*
X110476026Y-74761116D01*
X110446375Y-74858866D01*
X110440997Y-74868926D01*
X110436906Y-74881519D01*
X110401329Y-74943139D01*
X110359718Y-75020988D01*
X110348471Y-75034692D01*
X110338858Y-75051343D01*
X110293105Y-75102156D01*
X110243095Y-75163095D01*
X110224483Y-75178368D01*
X110207645Y-75197070D01*
X110155778Y-75234753D01*
X110100988Y-75279718D01*
X110074129Y-75294074D01*
X110049000Y-75312332D01*
X109994956Y-75336393D01*
X109938866Y-75366375D01*
X109903567Y-75377082D01*
X109869858Y-75392091D01*
X109817172Y-75403289D01*
X109762946Y-75419739D01*
X109719787Y-75423989D01*
X109678048Y-75432862D01*
X109629709Y-75432862D01*
X109580000Y-75437758D01*
X109530291Y-75432862D01*
X109481952Y-75432862D01*
X109440212Y-75423989D01*
X109397053Y-75419739D01*
X109342824Y-75403289D01*
X109290142Y-75392091D01*
X109256434Y-75377083D01*
X109221133Y-75366375D01*
X109165037Y-75336391D01*
X109111000Y-75312332D01*
X109085872Y-75294076D01*
X109059011Y-75279718D01*
X109004213Y-75234747D01*
X108952355Y-75197070D01*
X108935519Y-75178371D01*
X108916904Y-75163095D01*
X108866882Y-75102143D01*
X108821142Y-75051343D01*
X108811531Y-75034696D01*
X108800281Y-75020988D01*
X108758657Y-74943116D01*
X108723094Y-74881519D01*
X108719004Y-74868931D01*
X108713624Y-74858866D01*
X108683958Y-74761070D01*
X108662498Y-74695021D01*
X108661742Y-74687833D01*
X108660260Y-74682946D01*
X108645830Y-74536442D01*
X108642000Y-74500000D01*
X108645830Y-74463560D01*
X108660260Y-74317053D01*
X108661742Y-74312165D01*
X108662498Y-74304979D01*
X108683953Y-74238943D01*
X108713624Y-74141133D01*
X108719004Y-74131066D01*
X108723094Y-74118481D01*
X108758649Y-74056896D01*
X108800281Y-73979011D01*
X108811533Y-73965300D01*
X108821142Y-73948657D01*
X108866873Y-73897866D01*
X108916904Y-73836904D01*
X108935522Y-73821624D01*
X108952355Y-73802930D01*
X109004202Y-73765260D01*
X109059011Y-73720281D01*
X109085878Y-73705920D01*
X109111000Y-73687668D01*
X109165026Y-73663613D01*
X109221133Y-73633624D01*
X109256441Y-73622913D01*
X109290142Y-73607909D01*
X109342813Y-73596713D01*
X109397053Y-73580260D01*
X109440221Y-73576008D01*
X109481952Y-73567138D01*
X109530281Y-73567138D01*
X109580000Y-73562241D01*
X109629719Y-73567138D01*
G37*
G36*
X64240596Y-64680935D02*
G01*
X64475268Y-64737275D01*
X64698237Y-64829632D01*
X64904014Y-64955732D01*
X65087530Y-65112470D01*
X65244268Y-65295986D01*
X65370368Y-65501763D01*
X65462725Y-65724732D01*
X65519065Y-65959404D01*
X65538000Y-66200000D01*
X65519065Y-66440596D01*
X65462725Y-66675268D01*
X65370368Y-66898237D01*
X65244268Y-67104014D01*
X65087530Y-67287530D01*
X64904014Y-67444268D01*
X64698237Y-67570368D01*
X64475268Y-67662725D01*
X64240596Y-67719065D01*
X64000000Y-67738000D01*
X63759404Y-67719065D01*
X63524732Y-67662725D01*
X63301763Y-67570368D01*
X63095986Y-67444268D01*
X62912470Y-67287530D01*
X62755732Y-67104014D01*
X62629632Y-66898237D01*
X62537275Y-66675268D01*
X62480935Y-66440596D01*
X62462000Y-66200000D01*
X62480935Y-65959404D01*
X62537275Y-65724732D01*
X62629632Y-65501763D01*
X62755732Y-65295986D01*
X62912470Y-65112470D01*
X63095986Y-64955732D01*
X63301763Y-64829632D01*
X63524732Y-64737275D01*
X63759404Y-64680935D01*
X64000000Y-64662000D01*
X64240596Y-64680935D01*
G37*
G36*
X76240596Y-64680935D02*
G01*
X76475268Y-64737275D01*
X76698237Y-64829632D01*
X76904014Y-64955732D01*
X77087530Y-65112470D01*
X77244268Y-65295986D01*
X77370368Y-65501763D01*
X77462725Y-65724732D01*
X77519065Y-65959404D01*
X77538000Y-66200000D01*
X77519065Y-66440596D01*
X77462725Y-66675268D01*
X77370368Y-66898237D01*
X77244268Y-67104014D01*
X77087530Y-67287530D01*
X76904014Y-67444268D01*
X76698237Y-67570368D01*
X76475268Y-67662725D01*
X76240596Y-67719065D01*
X76000000Y-67738000D01*
X75759404Y-67719065D01*
X75524732Y-67662725D01*
X75301763Y-67570368D01*
X75095986Y-67444268D01*
X74912470Y-67287530D01*
X74755732Y-67104014D01*
X74629632Y-66898237D01*
X74537275Y-66675268D01*
X74480935Y-66440596D01*
X74462000Y-66200000D01*
X74480935Y-65959404D01*
X74537275Y-65724732D01*
X74629632Y-65501763D01*
X74755732Y-65295986D01*
X74912470Y-65112470D01*
X75095986Y-64955732D01*
X75301763Y-64829632D01*
X75524732Y-64737275D01*
X75759404Y-64680935D01*
X76000000Y-64662000D01*
X76240596Y-64680935D01*
G37*
G36*
X81871289Y-60867008D02*
G01*
X81949362Y-60867008D01*
X82021086Y-60876068D01*
X82095912Y-60880595D01*
X82182448Y-60896453D01*
X82265574Y-60906955D01*
X82329963Y-60923487D01*
X82397362Y-60935839D01*
X82487670Y-60963979D01*
X82574285Y-60986219D01*
X82630632Y-61008528D01*
X82689955Y-61027014D01*
X82782344Y-61068595D01*
X82870628Y-61103549D01*
X82918570Y-61129905D01*
X82969426Y-61152794D01*
X83062003Y-61208758D01*
X83149928Y-61257096D01*
X83189389Y-61285766D01*
X83231697Y-61311342D01*
X83322408Y-61382409D01*
X83407782Y-61444437D01*
X83439004Y-61473756D01*
X83472938Y-61500342D01*
X83559595Y-61586999D01*
X83640122Y-61662619D01*
X83663623Y-61691027D01*
X83689657Y-61717061D01*
X83770047Y-61819671D01*
X83843285Y-61908201D01*
X83859827Y-61934268D01*
X83878657Y-61958302D01*
X83950497Y-62077141D01*
X84014066Y-62177309D01*
X84024657Y-62199816D01*
X84037205Y-62220573D01*
X84098243Y-62356194D01*
X84149773Y-62465700D01*
X84155601Y-62483639D01*
X84162985Y-62500044D01*
X84211054Y-62654306D01*
X84248264Y-62768825D01*
X84250669Y-62781436D01*
X84254160Y-62792637D01*
X84287238Y-62973137D01*
X84307987Y-63081904D01*
X84308413Y-63088681D01*
X84309404Y-63094087D01*
X84325615Y-63362095D01*
X84328000Y-63400000D01*
X84325615Y-63437907D01*
X84309404Y-63705912D01*
X84308413Y-63711316D01*
X84307987Y-63718096D01*
X84287234Y-63826886D01*
X84254160Y-64007362D01*
X84250670Y-64018561D01*
X84248264Y-64031175D01*
X84211047Y-64145717D01*
X84162985Y-64299955D01*
X84155602Y-64316357D01*
X84149773Y-64334300D01*
X84098233Y-64443827D01*
X84037205Y-64579426D01*
X84024659Y-64600179D01*
X84014066Y-64622691D01*
X83950485Y-64722878D01*
X83878657Y-64841697D01*
X83859831Y-64865726D01*
X83843285Y-64891799D01*
X83770032Y-64980345D01*
X83689657Y-65082938D01*
X83663628Y-65108966D01*
X83640122Y-65137381D01*
X83559579Y-65213015D01*
X83472938Y-65299657D01*
X83439010Y-65326237D01*
X83407782Y-65355563D01*
X83322390Y-65417603D01*
X83231697Y-65488657D01*
X83189397Y-65514227D01*
X83149928Y-65542904D01*
X83061985Y-65591251D01*
X82969426Y-65647205D01*
X82918580Y-65670088D01*
X82870628Y-65696451D01*
X82782325Y-65731412D01*
X82689955Y-65772985D01*
X82630644Y-65791466D01*
X82574285Y-65813781D01*
X82487651Y-65836024D01*
X82397362Y-65864160D01*
X82329976Y-65876509D01*
X82265574Y-65893045D01*
X82182431Y-65903548D01*
X82095912Y-65919404D01*
X82021101Y-65923929D01*
X81949362Y-65932992D01*
X81871272Y-65932992D01*
X81790000Y-65937908D01*
X81708727Y-65932992D01*
X81630638Y-65932992D01*
X81558898Y-65923929D01*
X81484087Y-65919404D01*
X81397565Y-65903548D01*
X81314426Y-65893045D01*
X81250025Y-65876509D01*
X81182637Y-65864160D01*
X81092342Y-65836023D01*
X81005715Y-65813781D01*
X80949358Y-65791468D01*
X80890044Y-65772985D01*
X80797665Y-65731408D01*
X80709372Y-65696451D01*
X80661423Y-65670091D01*
X80610573Y-65647205D01*
X80518003Y-65591244D01*
X80430072Y-65542904D01*
X80390607Y-65514231D01*
X80348302Y-65488657D01*
X80257595Y-65417593D01*
X80172218Y-65355563D01*
X80140994Y-65326242D01*
X80107061Y-65299657D01*
X80020404Y-65213000D01*
X79939878Y-65137381D01*
X79916376Y-65108972D01*
X79890342Y-65082938D01*
X79809948Y-64980323D01*
X79736715Y-64891799D01*
X79720173Y-64865733D01*
X79701342Y-64841697D01*
X79629493Y-64722845D01*
X79565934Y-64622691D01*
X79555344Y-64600186D01*
X79542794Y-64579426D01*
X79481743Y-64443778D01*
X79430227Y-64334300D01*
X79424399Y-64316365D01*
X79417014Y-64299955D01*
X79368928Y-64145641D01*
X79331736Y-64031175D01*
X79329331Y-64018569D01*
X79325839Y-64007362D01*
X79292740Y-63826753D01*
X79272013Y-63718096D01*
X79271587Y-63711325D01*
X79270595Y-63705912D01*
X79254359Y-63437495D01*
X79252000Y-63400000D01*
X79254358Y-63362507D01*
X79270595Y-63094087D01*
X79271587Y-63088673D01*
X79272013Y-63081904D01*
X79292735Y-62973270D01*
X79325839Y-62792637D01*
X79329331Y-62781427D01*
X79331736Y-62768825D01*
X79368920Y-62654381D01*
X79417014Y-62500044D01*
X79424400Y-62483631D01*
X79430227Y-62465700D01*
X79481733Y-62356243D01*
X79542794Y-62220573D01*
X79555346Y-62199808D01*
X79565934Y-62177309D01*
X79629480Y-62077174D01*
X79701342Y-61958302D01*
X79720176Y-61934261D01*
X79736715Y-61908201D01*
X79809933Y-61819694D01*
X79890342Y-61717061D01*
X79916381Y-61691021D01*
X79939878Y-61662619D01*
X80020387Y-61587015D01*
X80107061Y-61500342D01*
X80141000Y-61473751D01*
X80172218Y-61444437D01*
X80257577Y-61382419D01*
X80348302Y-61311342D01*
X80390615Y-61285762D01*
X80430072Y-61257096D01*
X80517985Y-61208765D01*
X80610573Y-61152794D01*
X80661433Y-61129903D01*
X80709372Y-61103549D01*
X80797647Y-61068598D01*
X80890044Y-61027014D01*
X80949370Y-61008527D01*
X81005715Y-60986219D01*
X81092324Y-60963981D01*
X81182637Y-60935839D01*
X81250039Y-60923486D01*
X81314426Y-60906955D01*
X81397548Y-60896454D01*
X81484087Y-60880595D01*
X81558913Y-60876068D01*
X81630638Y-60867008D01*
X81708711Y-60867008D01*
X81790000Y-60862091D01*
X81871289Y-60867008D01*
G37*
G36*
X107121289Y-60867008D02*
G01*
X107199362Y-60867008D01*
X107271086Y-60876068D01*
X107345912Y-60880595D01*
X107432448Y-60896453D01*
X107515574Y-60906955D01*
X107579963Y-60923487D01*
X107647362Y-60935839D01*
X107737670Y-60963979D01*
X107824285Y-60986219D01*
X107880632Y-61008528D01*
X107939955Y-61027014D01*
X108032344Y-61068595D01*
X108120628Y-61103549D01*
X108168570Y-61129905D01*
X108219426Y-61152794D01*
X108312003Y-61208758D01*
X108399928Y-61257096D01*
X108439389Y-61285766D01*
X108481697Y-61311342D01*
X108572408Y-61382409D01*
X108657782Y-61444437D01*
X108689004Y-61473756D01*
X108722938Y-61500342D01*
X108809595Y-61586999D01*
X108890122Y-61662619D01*
X108913623Y-61691027D01*
X108939657Y-61717061D01*
X109020047Y-61819671D01*
X109093285Y-61908201D01*
X109109827Y-61934268D01*
X109128657Y-61958302D01*
X109200497Y-62077141D01*
X109264066Y-62177309D01*
X109274657Y-62199816D01*
X109287205Y-62220573D01*
X109348243Y-62356194D01*
X109399773Y-62465700D01*
X109405601Y-62483639D01*
X109412985Y-62500044D01*
X109461054Y-62654306D01*
X109498264Y-62768825D01*
X109500669Y-62781436D01*
X109504160Y-62792637D01*
X109537238Y-62973137D01*
X109557987Y-63081904D01*
X109558413Y-63088681D01*
X109559404Y-63094087D01*
X109575615Y-63362095D01*
X109578000Y-63400000D01*
X109575615Y-63437907D01*
X109559404Y-63705912D01*
X109558413Y-63711316D01*
X109557987Y-63718096D01*
X109537234Y-63826886D01*
X109504160Y-64007362D01*
X109500670Y-64018561D01*
X109498264Y-64031175D01*
X109461047Y-64145717D01*
X109412985Y-64299955D01*
X109405602Y-64316357D01*
X109399773Y-64334300D01*
X109348233Y-64443827D01*
X109287205Y-64579426D01*
X109274659Y-64600179D01*
X109264066Y-64622691D01*
X109200485Y-64722878D01*
X109128657Y-64841697D01*
X109109831Y-64865726D01*
X109093285Y-64891799D01*
X109020032Y-64980345D01*
X108939657Y-65082938D01*
X108913628Y-65108966D01*
X108890122Y-65137381D01*
X108809579Y-65213015D01*
X108722938Y-65299657D01*
X108689010Y-65326237D01*
X108657782Y-65355563D01*
X108572390Y-65417603D01*
X108481697Y-65488657D01*
X108439397Y-65514227D01*
X108399928Y-65542904D01*
X108311985Y-65591251D01*
X108219426Y-65647205D01*
X108168580Y-65670088D01*
X108120628Y-65696451D01*
X108032325Y-65731412D01*
X107939955Y-65772985D01*
X107880644Y-65791466D01*
X107824285Y-65813781D01*
X107737651Y-65836024D01*
X107647362Y-65864160D01*
X107579976Y-65876509D01*
X107515574Y-65893045D01*
X107432431Y-65903548D01*
X107345912Y-65919404D01*
X107271101Y-65923929D01*
X107199362Y-65932992D01*
X107121272Y-65932992D01*
X107040000Y-65937908D01*
X106958727Y-65932992D01*
X106880638Y-65932992D01*
X106808898Y-65923929D01*
X106734087Y-65919404D01*
X106647565Y-65903548D01*
X106564426Y-65893045D01*
X106500025Y-65876509D01*
X106432637Y-65864160D01*
X106342342Y-65836023D01*
X106255715Y-65813781D01*
X106199358Y-65791468D01*
X106140044Y-65772985D01*
X106047665Y-65731408D01*
X105959372Y-65696451D01*
X105911423Y-65670091D01*
X105860573Y-65647205D01*
X105768003Y-65591244D01*
X105680072Y-65542904D01*
X105640607Y-65514231D01*
X105598302Y-65488657D01*
X105507595Y-65417593D01*
X105422218Y-65355563D01*
X105390994Y-65326242D01*
X105357061Y-65299657D01*
X105270404Y-65213000D01*
X105189878Y-65137381D01*
X105166376Y-65108972D01*
X105140342Y-65082938D01*
X105059948Y-64980323D01*
X104986715Y-64891799D01*
X104970173Y-64865733D01*
X104951342Y-64841697D01*
X104879493Y-64722845D01*
X104815934Y-64622691D01*
X104805344Y-64600186D01*
X104792794Y-64579426D01*
X104731743Y-64443778D01*
X104680227Y-64334300D01*
X104674399Y-64316365D01*
X104667014Y-64299955D01*
X104618928Y-64145641D01*
X104581736Y-64031175D01*
X104579331Y-64018569D01*
X104575839Y-64007362D01*
X104542740Y-63826753D01*
X104522013Y-63718096D01*
X104521587Y-63711325D01*
X104520595Y-63705912D01*
X104504359Y-63437495D01*
X104502000Y-63400000D01*
X104504358Y-63362507D01*
X104520595Y-63094087D01*
X104521587Y-63088673D01*
X104522013Y-63081904D01*
X104542735Y-62973270D01*
X104575839Y-62792637D01*
X104579331Y-62781427D01*
X104581736Y-62768825D01*
X104618920Y-62654381D01*
X104667014Y-62500044D01*
X104674400Y-62483631D01*
X104680227Y-62465700D01*
X104731733Y-62356243D01*
X104792794Y-62220573D01*
X104805346Y-62199808D01*
X104815934Y-62177309D01*
X104879480Y-62077174D01*
X104951342Y-61958302D01*
X104970176Y-61934261D01*
X104986715Y-61908201D01*
X105059933Y-61819694D01*
X105140342Y-61717061D01*
X105166381Y-61691021D01*
X105189878Y-61662619D01*
X105270387Y-61587015D01*
X105357061Y-61500342D01*
X105391000Y-61473751D01*
X105422218Y-61444437D01*
X105507577Y-61382419D01*
X105598302Y-61311342D01*
X105640615Y-61285762D01*
X105680072Y-61257096D01*
X105767985Y-61208765D01*
X105860573Y-61152794D01*
X105911433Y-61129903D01*
X105959372Y-61103549D01*
X106047647Y-61068598D01*
X106140044Y-61027014D01*
X106199370Y-61008527D01*
X106255715Y-60986219D01*
X106342324Y-60963981D01*
X106432637Y-60935839D01*
X106500039Y-60923486D01*
X106564426Y-60906955D01*
X106647548Y-60896454D01*
X106734087Y-60880595D01*
X106808913Y-60876068D01*
X106880638Y-60867008D01*
X106958711Y-60867008D01*
X107040000Y-60862091D01*
X107121289Y-60867008D01*
G37*
G36*
X140014542Y-61464893D02*
G01*
X140026870Y-61473130D01*
X140035107Y-61485458D01*
X140038000Y-61500000D01*
X140038000Y-65500000D01*
X140035107Y-65514542D01*
X140026870Y-65526870D01*
X140014542Y-65535107D01*
X140000000Y-65538000D01*
X136000000Y-65538000D01*
X135985458Y-65535107D01*
X135973130Y-65526870D01*
X135964893Y-65514542D01*
X135962000Y-65500000D01*
X135962000Y-61500000D01*
X135964893Y-61485458D01*
X135973130Y-61473130D01*
X135985458Y-61464893D01*
X136000000Y-61462000D01*
X140000000Y-61462000D01*
X140014542Y-61464893D01*
G37*
G36*
X148414643Y-61504627D02*
G01*
X148682485Y-61579672D01*
X148937613Y-61690490D01*
X149175274Y-61835015D01*
X149391043Y-62010556D01*
X149580900Y-62213843D01*
X149741307Y-62441088D01*
X149869277Y-62688059D01*
X149962425Y-62950154D01*
X150019018Y-63222492D01*
X150038000Y-63500000D01*
X150019018Y-63777508D01*
X149962425Y-64049846D01*
X149869277Y-64311941D01*
X149741307Y-64558912D01*
X149580900Y-64786157D01*
X149391043Y-64989444D01*
X149175274Y-65164985D01*
X148937613Y-65309510D01*
X148682485Y-65420328D01*
X148414643Y-65495373D01*
X148139078Y-65533249D01*
X147860922Y-65533249D01*
X147585357Y-65495373D01*
X147317515Y-65420328D01*
X147062387Y-65309510D01*
X146824726Y-65164985D01*
X146608957Y-64989444D01*
X146419100Y-64786157D01*
X146258693Y-64558912D01*
X146130723Y-64311941D01*
X146037575Y-64049846D01*
X145980982Y-63777508D01*
X145962000Y-63500000D01*
X145980982Y-63222492D01*
X146037575Y-62950154D01*
X146130723Y-62688059D01*
X146258693Y-62441088D01*
X146419100Y-62213843D01*
X146608957Y-62010556D01*
X146824726Y-61835015D01*
X147062387Y-61690490D01*
X147317515Y-61579672D01*
X147585357Y-61504627D01*
X147860922Y-61466751D01*
X148139078Y-61466751D01*
X148414643Y-61504627D01*
G37*
G36*
X94690148Y-52621102D02*
G01*
X95026019Y-52678169D01*
X95353388Y-52772482D01*
X95668139Y-52902857D01*
X95966313Y-53067652D01*
X96244162Y-53264796D01*
X96498190Y-53491810D01*
X96725204Y-53745838D01*
X96922348Y-54023687D01*
X97087143Y-54321861D01*
X97217518Y-54636612D01*
X97311831Y-54963981D01*
X97368898Y-55299852D01*
X97388000Y-55640000D01*
X97368898Y-55980148D01*
X97311831Y-56316019D01*
X97217518Y-56643388D01*
X97087143Y-56958139D01*
X96922348Y-57256313D01*
X96725204Y-57534162D01*
X96498190Y-57788190D01*
X96244162Y-58015204D01*
X95966313Y-58212348D01*
X95668139Y-58377143D01*
X95353388Y-58507518D01*
X95026019Y-58601831D01*
X94690148Y-58658898D01*
X94350000Y-58678000D01*
X94009852Y-58658898D01*
X93673981Y-58601831D01*
X93346612Y-58507518D01*
X93031861Y-58377143D01*
X92733687Y-58212348D01*
X92455838Y-58015204D01*
X92201810Y-57788190D01*
X91974796Y-57534162D01*
X91777652Y-57256313D01*
X91612857Y-56958139D01*
X91482482Y-56643388D01*
X91388169Y-56316019D01*
X91331102Y-55980148D01*
X91312000Y-55640000D01*
X91331102Y-55299852D01*
X91388169Y-54963981D01*
X91482482Y-54636612D01*
X91612857Y-54321861D01*
X91777652Y-54023687D01*
X91974796Y-53745838D01*
X92201810Y-53491810D01*
X92455838Y-53264796D01*
X92733687Y-53067652D01*
X93031861Y-52902857D01*
X93346612Y-52772482D01*
X93673981Y-52678169D01*
X94009852Y-52621102D01*
X94350000Y-52602000D01*
X94690148Y-52621102D01*
G37*
G36*
X119990148Y-52621102D02*
G01*
X120326019Y-52678169D01*
X120653388Y-52772482D01*
X120968139Y-52902857D01*
X121266313Y-53067652D01*
X121544162Y-53264796D01*
X121798190Y-53491810D01*
X122025204Y-53745838D01*
X122222348Y-54023687D01*
X122387143Y-54321861D01*
X122517518Y-54636612D01*
X122611831Y-54963981D01*
X122668898Y-55299852D01*
X122688000Y-55640000D01*
X122668898Y-55980148D01*
X122611831Y-56316019D01*
X122517518Y-56643388D01*
X122387143Y-56958139D01*
X122222348Y-57256313D01*
X122025204Y-57534162D01*
X121798190Y-57788190D01*
X121544162Y-58015204D01*
X121266313Y-58212348D01*
X120968139Y-58377143D01*
X120653388Y-58507518D01*
X120326019Y-58601831D01*
X119990148Y-58658898D01*
X119650000Y-58678000D01*
X119309852Y-58658898D01*
X118973981Y-58601831D01*
X118646612Y-58507518D01*
X118331861Y-58377143D01*
X118033687Y-58212348D01*
X117755838Y-58015204D01*
X117501810Y-57788190D01*
X117274796Y-57534162D01*
X117077652Y-57256313D01*
X116912857Y-56958139D01*
X116782482Y-56643388D01*
X116688169Y-56316019D01*
X116631102Y-55980148D01*
X116612000Y-55640000D01*
X116631102Y-55299852D01*
X116688169Y-54963981D01*
X116782482Y-54636612D01*
X116912857Y-54321861D01*
X117077652Y-54023687D01*
X117274796Y-53745838D01*
X117501810Y-53491810D01*
X117755838Y-53264796D01*
X118033687Y-53067652D01*
X118331861Y-52902857D01*
X118646612Y-52772482D01*
X118973981Y-52678169D01*
X119309852Y-52621102D01*
X119650000Y-52602000D01*
X119990148Y-52621102D01*
G37*
G36*
X69065938Y-56069650D02*
G01*
X69070653Y-56071732D01*
X69073326Y-56072084D01*
X69106770Y-56087679D01*
X69162759Y-56112401D01*
X69237599Y-56187241D01*
X69262330Y-56243251D01*
X69277915Y-56276673D01*
X69278266Y-56279343D01*
X69280350Y-56284062D01*
X69288000Y-56350000D01*
X69288000Y-57650000D01*
X69280350Y-57715938D01*
X69278266Y-57720656D01*
X69277915Y-57723326D01*
X69262338Y-57756730D01*
X69237599Y-57812759D01*
X69162759Y-57887599D01*
X69106730Y-57912338D01*
X69073326Y-57927915D01*
X69070656Y-57928266D01*
X69065938Y-57930350D01*
X69000000Y-57938000D01*
X67000000Y-57938000D01*
X66934062Y-57930350D01*
X66929343Y-57928266D01*
X66926673Y-57927915D01*
X66893251Y-57912330D01*
X66837241Y-57887599D01*
X66762401Y-57812759D01*
X66737679Y-57756770D01*
X66722084Y-57723326D01*
X66721732Y-57720653D01*
X66719650Y-57715938D01*
X66712000Y-57650000D01*
X66712000Y-56350000D01*
X66719650Y-56284062D01*
X66721732Y-56279346D01*
X66722084Y-56276673D01*
X66737687Y-56243210D01*
X66762401Y-56187241D01*
X66837241Y-56112401D01*
X66893210Y-56087687D01*
X66926673Y-56072084D01*
X66929346Y-56071732D01*
X66934062Y-56069650D01*
X67000000Y-56062000D01*
X69000000Y-56062000D01*
X69065938Y-56069650D01*
G37*
G36*
X73065938Y-56069650D02*
G01*
X73070653Y-56071732D01*
X73073326Y-56072084D01*
X73106770Y-56087679D01*
X73162759Y-56112401D01*
X73237599Y-56187241D01*
X73262330Y-56243251D01*
X73277915Y-56276673D01*
X73278266Y-56279343D01*
X73280350Y-56284062D01*
X73288000Y-56350000D01*
X73288000Y-57650000D01*
X73280350Y-57715938D01*
X73278266Y-57720656D01*
X73277915Y-57723326D01*
X73262338Y-57756730D01*
X73237599Y-57812759D01*
X73162759Y-57887599D01*
X73106730Y-57912338D01*
X73073326Y-57927915D01*
X73070656Y-57928266D01*
X73065938Y-57930350D01*
X73000000Y-57938000D01*
X71000000Y-57938000D01*
X70934062Y-57930350D01*
X70929343Y-57928266D01*
X70926673Y-57927915D01*
X70893251Y-57912330D01*
X70837241Y-57887599D01*
X70762401Y-57812759D01*
X70737679Y-57756770D01*
X70722084Y-57723326D01*
X70721732Y-57720653D01*
X70719650Y-57715938D01*
X70712000Y-57650000D01*
X70712000Y-56350000D01*
X70719650Y-56284062D01*
X70721732Y-56279346D01*
X70722084Y-56276673D01*
X70737687Y-56243210D01*
X70762401Y-56187241D01*
X70837241Y-56112401D01*
X70893210Y-56087687D01*
X70926673Y-56072084D01*
X70929346Y-56071732D01*
X70934062Y-56069650D01*
X71000000Y-56062000D01*
X73000000Y-56062000D01*
X73065938Y-56069650D01*
G37*
G36*
X64240596Y-52480935D02*
G01*
X64475268Y-52537275D01*
X64698237Y-52629632D01*
X64904014Y-52755732D01*
X65087530Y-52912470D01*
X65244268Y-53095986D01*
X65370368Y-53301763D01*
X65462725Y-53524732D01*
X65519065Y-53759404D01*
X65538000Y-54000000D01*
X65519065Y-54240596D01*
X65462725Y-54475268D01*
X65370368Y-54698237D01*
X65244268Y-54904014D01*
X65087530Y-55087530D01*
X64904014Y-55244268D01*
X64698237Y-55370368D01*
X64475268Y-55462725D01*
X64240596Y-55519065D01*
X64000000Y-55538000D01*
X63759404Y-55519065D01*
X63524732Y-55462725D01*
X63301763Y-55370368D01*
X63095986Y-55244268D01*
X62912470Y-55087530D01*
X62755732Y-54904014D01*
X62629632Y-54698237D01*
X62537275Y-54475268D01*
X62480935Y-54240596D01*
X62462000Y-54000000D01*
X62480935Y-53759404D01*
X62537275Y-53524732D01*
X62629632Y-53301763D01*
X62755732Y-53095986D01*
X62912470Y-52912470D01*
X63095986Y-52755732D01*
X63301763Y-52629632D01*
X63524732Y-52537275D01*
X63759404Y-52480935D01*
X64000000Y-52462000D01*
X64240596Y-52480935D01*
G37*
G36*
X76240596Y-52480935D02*
G01*
X76475268Y-52537275D01*
X76698237Y-52629632D01*
X76904014Y-52755732D01*
X77087530Y-52912470D01*
X77244268Y-53095986D01*
X77370368Y-53301763D01*
X77462725Y-53524732D01*
X77519065Y-53759404D01*
X77538000Y-54000000D01*
X77519065Y-54240596D01*
X77462725Y-54475268D01*
X77370368Y-54698237D01*
X77244268Y-54904014D01*
X77087530Y-55087530D01*
X76904014Y-55244268D01*
X76698237Y-55370368D01*
X76475268Y-55462725D01*
X76240596Y-55519065D01*
X76000000Y-55538000D01*
X75759404Y-55519065D01*
X75524732Y-55462725D01*
X75301763Y-55370368D01*
X75095986Y-55244268D01*
X74912470Y-55087530D01*
X74755732Y-54904014D01*
X74629632Y-54698237D01*
X74537275Y-54475268D01*
X74480935Y-54240596D01*
X74462000Y-54000000D01*
X74480935Y-53759404D01*
X74537275Y-53524732D01*
X74629632Y-53301763D01*
X74755732Y-53095986D01*
X74912470Y-52912470D01*
X75095986Y-52755732D01*
X75301763Y-52629632D01*
X75524732Y-52537275D01*
X75759404Y-52480935D01*
X76000000Y-52462000D01*
X76240596Y-52480935D01*
G37*
G36*
X70240596Y-50480935D02*
G01*
X70475268Y-50537275D01*
X70698237Y-50629632D01*
X70904014Y-50755732D01*
X71087530Y-50912470D01*
X71244268Y-51095986D01*
X71370368Y-51301763D01*
X71462725Y-51524732D01*
X71519065Y-51759404D01*
X71538000Y-52000000D01*
X71519065Y-52240596D01*
X71462725Y-52475268D01*
X71370368Y-52698237D01*
X71244268Y-52904014D01*
X71087530Y-53087530D01*
X70904014Y-53244268D01*
X70698237Y-53370368D01*
X70475268Y-53462725D01*
X70240596Y-53519065D01*
X70000000Y-53538000D01*
X69759404Y-53519065D01*
X69524732Y-53462725D01*
X69301763Y-53370368D01*
X69095986Y-53244268D01*
X68912470Y-53087530D01*
X68755732Y-52904014D01*
X68629632Y-52698237D01*
X68537275Y-52475268D01*
X68480935Y-52240596D01*
X68462000Y-52000000D01*
X68480935Y-51759404D01*
X68537275Y-51524732D01*
X68629632Y-51301763D01*
X68755732Y-51095986D01*
X68912470Y-50912470D01*
X69095986Y-50755732D01*
X69301763Y-50629632D01*
X69524732Y-50537275D01*
X69759404Y-50480935D01*
X70000000Y-50462000D01*
X70240596Y-50480935D01*
G37*
G36*
X88967042Y-44464893D02*
G01*
X88979370Y-44473130D01*
X88987607Y-44485458D01*
X88990500Y-44500000D01*
X88990500Y-46500000D01*
X88987607Y-46514542D01*
X88979370Y-46526870D01*
X88967042Y-46535107D01*
X88952500Y-46538000D01*
X87047500Y-46538000D01*
X87032958Y-46535107D01*
X87020630Y-46526870D01*
X87012393Y-46514542D01*
X87009500Y-46500000D01*
X87009500Y-44500000D01*
X87012393Y-44485458D01*
X87020630Y-44473130D01*
X87032958Y-44464893D01*
X87047500Y-44462000D01*
X88952500Y-44462000D01*
X88967042Y-44464893D01*
G37*
G36*
X99967042Y-44464893D02*
G01*
X99979370Y-44473130D01*
X99987607Y-44485458D01*
X99990500Y-44500000D01*
X99990500Y-46500000D01*
X99987607Y-46514542D01*
X99979370Y-46526870D01*
X99967042Y-46535107D01*
X99952500Y-46538000D01*
X98047500Y-46538000D01*
X98032958Y-46535107D01*
X98020630Y-46526870D01*
X98012393Y-46514542D01*
X98009500Y-46500000D01*
X98009500Y-44500000D01*
X98012393Y-44485458D01*
X98020630Y-44473130D01*
X98032958Y-44464893D01*
X98047500Y-44462000D01*
X99952500Y-44462000D01*
X99967042Y-44464893D01*
G37*
G36*
X110967042Y-44464893D02*
G01*
X110979370Y-44473130D01*
X110987607Y-44485458D01*
X110990500Y-44500000D01*
X110990500Y-46500000D01*
X110987607Y-46514542D01*
X110979370Y-46526870D01*
X110967042Y-46535107D01*
X110952500Y-46538000D01*
X109047500Y-46538000D01*
X109032958Y-46535107D01*
X109020630Y-46526870D01*
X109012393Y-46514542D01*
X109009500Y-46500000D01*
X109009500Y-44500000D01*
X109012393Y-44485458D01*
X109020630Y-44473130D01*
X109032958Y-44464893D01*
X109047500Y-44462000D01*
X110952500Y-44462000D01*
X110967042Y-44464893D01*
G37*
G36*
X121967042Y-44464893D02*
G01*
X121979370Y-44473130D01*
X121987607Y-44485458D01*
X121990500Y-44500000D01*
X121990500Y-46500000D01*
X121987607Y-46514542D01*
X121979370Y-46526870D01*
X121967042Y-46535107D01*
X121952500Y-46538000D01*
X120047500Y-46538000D01*
X120032958Y-46535107D01*
X120020630Y-46526870D01*
X120012393Y-46514542D01*
X120009500Y-46500000D01*
X120009500Y-44500000D01*
X120012393Y-44485458D01*
X120020630Y-44473130D01*
X120032958Y-44464893D01*
X120047500Y-44462000D01*
X121952500Y-44462000D01*
X121967042Y-44464893D01*
G37*
G36*
X90827527Y-44504651D02*
G01*
X91006918Y-44578957D01*
X91168367Y-44686833D01*
X91305667Y-44824133D01*
X91413543Y-44985582D01*
X91487849Y-45164973D01*
X91525730Y-45355414D01*
X91530500Y-45452500D01*
X91530500Y-45547500D01*
X91525730Y-45644586D01*
X91487849Y-45835027D01*
X91413543Y-46014418D01*
X91305667Y-46175867D01*
X91168367Y-46313167D01*
X91006918Y-46421043D01*
X90827527Y-46495349D01*
X90637086Y-46533230D01*
X90442914Y-46533230D01*
X90252473Y-46495349D01*
X90073082Y-46421043D01*
X89911633Y-46313167D01*
X89774333Y-46175867D01*
X89666457Y-46014418D01*
X89592151Y-45835027D01*
X89554270Y-45644586D01*
X89549500Y-45547500D01*
X89549500Y-45452500D01*
X89554270Y-45355414D01*
X89592151Y-45164973D01*
X89666457Y-44985582D01*
X89774333Y-44824133D01*
X89911633Y-44686833D01*
X90073082Y-44578957D01*
X90252473Y-44504651D01*
X90442914Y-44466770D01*
X90637086Y-44466770D01*
X90827527Y-44504651D01*
G37*
G36*
X93367527Y-44504651D02*
G01*
X93546918Y-44578957D01*
X93708367Y-44686833D01*
X93845667Y-44824133D01*
X93953543Y-44985582D01*
X94027849Y-45164973D01*
X94065730Y-45355414D01*
X94070500Y-45452500D01*
X94070500Y-45547500D01*
X94065730Y-45644586D01*
X94027849Y-45835027D01*
X93953543Y-46014418D01*
X93845667Y-46175867D01*
X93708367Y-46313167D01*
X93546918Y-46421043D01*
X93367527Y-46495349D01*
X93177086Y-46533230D01*
X92982914Y-46533230D01*
X92792473Y-46495349D01*
X92613082Y-46421043D01*
X92451633Y-46313167D01*
X92314333Y-46175867D01*
X92206457Y-46014418D01*
X92132151Y-45835027D01*
X92094270Y-45644586D01*
X92089500Y-45547500D01*
X92089500Y-45452500D01*
X92094270Y-45355414D01*
X92132151Y-45164973D01*
X92206457Y-44985582D01*
X92314333Y-44824133D01*
X92451633Y-44686833D01*
X92613082Y-44578957D01*
X92792473Y-44504651D01*
X92982914Y-44466770D01*
X93177086Y-44466770D01*
X93367527Y-44504651D01*
G37*
G36*
X101827527Y-44504651D02*
G01*
X102006918Y-44578957D01*
X102168367Y-44686833D01*
X102305667Y-44824133D01*
X102413543Y-44985582D01*
X102487849Y-45164973D01*
X102525730Y-45355414D01*
X102530500Y-45452500D01*
X102530500Y-45547500D01*
X102525730Y-45644586D01*
X102487849Y-45835027D01*
X102413543Y-46014418D01*
X102305667Y-46175867D01*
X102168367Y-46313167D01*
X102006918Y-46421043D01*
X101827527Y-46495349D01*
X101637086Y-46533230D01*
X101442914Y-46533230D01*
X101252473Y-46495349D01*
X101073082Y-46421043D01*
X100911633Y-46313167D01*
X100774333Y-46175867D01*
X100666457Y-46014418D01*
X100592151Y-45835027D01*
X100554270Y-45644586D01*
X100549500Y-45547500D01*
X100549500Y-45452500D01*
X100554270Y-45355414D01*
X100592151Y-45164973D01*
X100666457Y-44985582D01*
X100774333Y-44824133D01*
X100911633Y-44686833D01*
X101073082Y-44578957D01*
X101252473Y-44504651D01*
X101442914Y-44466770D01*
X101637086Y-44466770D01*
X101827527Y-44504651D01*
G37*
G36*
X104367527Y-44504651D02*
G01*
X104546918Y-44578957D01*
X104708367Y-44686833D01*
X104845667Y-44824133D01*
X104953543Y-44985582D01*
X105027849Y-45164973D01*
X105065730Y-45355414D01*
X105070500Y-45452500D01*
X105070500Y-45547500D01*
X105065730Y-45644586D01*
X105027849Y-45835027D01*
X104953543Y-46014418D01*
X104845667Y-46175867D01*
X104708367Y-46313167D01*
X104546918Y-46421043D01*
X104367527Y-46495349D01*
X104177086Y-46533230D01*
X103982914Y-46533230D01*
X103792473Y-46495349D01*
X103613082Y-46421043D01*
X103451633Y-46313167D01*
X103314333Y-46175867D01*
X103206457Y-46014418D01*
X103132151Y-45835027D01*
X103094270Y-45644586D01*
X103089500Y-45547500D01*
X103089500Y-45452500D01*
X103094270Y-45355414D01*
X103132151Y-45164973D01*
X103206457Y-44985582D01*
X103314333Y-44824133D01*
X103451633Y-44686833D01*
X103613082Y-44578957D01*
X103792473Y-44504651D01*
X103982914Y-44466770D01*
X104177086Y-44466770D01*
X104367527Y-44504651D01*
G37*
G36*
X112827527Y-44504651D02*
G01*
X113006918Y-44578957D01*
X113168367Y-44686833D01*
X113305667Y-44824133D01*
X113413543Y-44985582D01*
X113487849Y-45164973D01*
X113525730Y-45355414D01*
X113530500Y-45452500D01*
X113530500Y-45547500D01*
X113525730Y-45644586D01*
X113487849Y-45835027D01*
X113413543Y-46014418D01*
X113305667Y-46175867D01*
X113168367Y-46313167D01*
X113006918Y-46421043D01*
X112827527Y-46495349D01*
X112637086Y-46533230D01*
X112442914Y-46533230D01*
X112252473Y-46495349D01*
X112073082Y-46421043D01*
X111911633Y-46313167D01*
X111774333Y-46175867D01*
X111666457Y-46014418D01*
X111592151Y-45835027D01*
X111554270Y-45644586D01*
X111549500Y-45547500D01*
X111549500Y-45452500D01*
X111554270Y-45355414D01*
X111592151Y-45164973D01*
X111666457Y-44985582D01*
X111774333Y-44824133D01*
X111911633Y-44686833D01*
X112073082Y-44578957D01*
X112252473Y-44504651D01*
X112442914Y-44466770D01*
X112637086Y-44466770D01*
X112827527Y-44504651D01*
G37*
G36*
X115367527Y-44504651D02*
G01*
X115546918Y-44578957D01*
X115708367Y-44686833D01*
X115845667Y-44824133D01*
X115953543Y-44985582D01*
X116027849Y-45164973D01*
X116065730Y-45355414D01*
X116070500Y-45452500D01*
X116070500Y-45547500D01*
X116065730Y-45644586D01*
X116027849Y-45835027D01*
X115953543Y-46014418D01*
X115845667Y-46175867D01*
X115708367Y-46313167D01*
X115546918Y-46421043D01*
X115367527Y-46495349D01*
X115177086Y-46533230D01*
X114982914Y-46533230D01*
X114792473Y-46495349D01*
X114613082Y-46421043D01*
X114451633Y-46313167D01*
X114314333Y-46175867D01*
X114206457Y-46014418D01*
X114132151Y-45835027D01*
X114094270Y-45644586D01*
X114089500Y-45547500D01*
X114089500Y-45452500D01*
X114094270Y-45355414D01*
X114132151Y-45164973D01*
X114206457Y-44985582D01*
X114314333Y-44824133D01*
X114451633Y-44686833D01*
X114613082Y-44578957D01*
X114792473Y-44504651D01*
X114982914Y-44466770D01*
X115177086Y-44466770D01*
X115367527Y-44504651D01*
G37*
G36*
X123827527Y-44504651D02*
G01*
X124006918Y-44578957D01*
X124168367Y-44686833D01*
X124305667Y-44824133D01*
X124413543Y-44985582D01*
X124487849Y-45164973D01*
X124525730Y-45355414D01*
X124530500Y-45452500D01*
X124530500Y-45547500D01*
X124525730Y-45644586D01*
X124487849Y-45835027D01*
X124413543Y-46014418D01*
X124305667Y-46175867D01*
X124168367Y-46313167D01*
X124006918Y-46421043D01*
X123827527Y-46495349D01*
X123637086Y-46533230D01*
X123442914Y-46533230D01*
X123252473Y-46495349D01*
X123073082Y-46421043D01*
X122911633Y-46313167D01*
X122774333Y-46175867D01*
X122666457Y-46014418D01*
X122592151Y-45835027D01*
X122554270Y-45644586D01*
X122549500Y-45547500D01*
X122549500Y-45452500D01*
X122554270Y-45355414D01*
X122592151Y-45164973D01*
X122666457Y-44985582D01*
X122774333Y-44824133D01*
X122911633Y-44686833D01*
X123073082Y-44578957D01*
X123252473Y-44504651D01*
X123442914Y-44466770D01*
X123637086Y-44466770D01*
X123827527Y-44504651D01*
G37*
G36*
X126367527Y-44504651D02*
G01*
X126546918Y-44578957D01*
X126708367Y-44686833D01*
X126845667Y-44824133D01*
X126953543Y-44985582D01*
X127027849Y-45164973D01*
X127065730Y-45355414D01*
X127070500Y-45452500D01*
X127070500Y-45547500D01*
X127065730Y-45644586D01*
X127027849Y-45835027D01*
X126953543Y-46014418D01*
X126845667Y-46175867D01*
X126708367Y-46313167D01*
X126546918Y-46421043D01*
X126367527Y-46495349D01*
X126177086Y-46533230D01*
X125982914Y-46533230D01*
X125792473Y-46495349D01*
X125613082Y-46421043D01*
X125451633Y-46313167D01*
X125314333Y-46175867D01*
X125206457Y-46014418D01*
X125132151Y-45835027D01*
X125094270Y-45644586D01*
X125089500Y-45547500D01*
X125089500Y-45452500D01*
X125094270Y-45355414D01*
X125132151Y-45164973D01*
X125206457Y-44985582D01*
X125314333Y-44824133D01*
X125451633Y-44686833D01*
X125613082Y-44578957D01*
X125792473Y-44504651D01*
X125982914Y-44466770D01*
X126177086Y-44466770D01*
X126367527Y-44504651D01*
G37*
G36*
X66090596Y-42980935D02*
G01*
X66325268Y-43037275D01*
X66548237Y-43129632D01*
X66754014Y-43255732D01*
X66937530Y-43412470D01*
X67094268Y-43595986D01*
X67220368Y-43801763D01*
X67312725Y-44024732D01*
X67369065Y-44259404D01*
X67388000Y-44500000D01*
X67369065Y-44740596D01*
X67312725Y-44975268D01*
X67220368Y-45198237D01*
X67094268Y-45404014D01*
X66937530Y-45587530D01*
X66754014Y-45744268D01*
X66548237Y-45870368D01*
X66325268Y-45962725D01*
X66090596Y-46019065D01*
X65850000Y-46038000D01*
X65609404Y-46019065D01*
X65374732Y-45962725D01*
X65151763Y-45870368D01*
X64945986Y-45744268D01*
X64762470Y-45587530D01*
X64605732Y-45404014D01*
X64479632Y-45198237D01*
X64387275Y-44975268D01*
X64330935Y-44740596D01*
X64312000Y-44500000D01*
X64330935Y-44259404D01*
X64387275Y-44024732D01*
X64479632Y-43801763D01*
X64605732Y-43595986D01*
X64762470Y-43412470D01*
X64945986Y-43255732D01*
X65151763Y-43129632D01*
X65374732Y-43037275D01*
X65609404Y-42980935D01*
X65850000Y-42962000D01*
X66090596Y-42980935D01*
G37*
G36*
X78290596Y-42980935D02*
G01*
X78525268Y-43037275D01*
X78748237Y-43129632D01*
X78954014Y-43255732D01*
X79137530Y-43412470D01*
X79294268Y-43595986D01*
X79420368Y-43801763D01*
X79512725Y-44024732D01*
X79569065Y-44259404D01*
X79588000Y-44500000D01*
X79569065Y-44740596D01*
X79512725Y-44975268D01*
X79420368Y-45198237D01*
X79294268Y-45404014D01*
X79137530Y-45587530D01*
X78954014Y-45744268D01*
X78748237Y-45870368D01*
X78525268Y-45962725D01*
X78290596Y-46019065D01*
X78050000Y-46038000D01*
X77809404Y-46019065D01*
X77574732Y-45962725D01*
X77351763Y-45870368D01*
X77145986Y-45744268D01*
X76962470Y-45587530D01*
X76805732Y-45404014D01*
X76679632Y-45198237D01*
X76587275Y-44975268D01*
X76530935Y-44740596D01*
X76512000Y-44500000D01*
X76530935Y-44259404D01*
X76587275Y-44024732D01*
X76679632Y-43801763D01*
X76805732Y-43595986D01*
X76962470Y-43412470D01*
X77145986Y-43255732D01*
X77351763Y-43129632D01*
X77574732Y-43037275D01*
X77809404Y-42980935D01*
X78050000Y-42962000D01*
X78290596Y-42980935D01*
G37*
G36*
X139856711Y-38264893D02*
G01*
X139869039Y-38273130D01*
X139877276Y-38285458D01*
X139880169Y-38300000D01*
X139880169Y-42300000D01*
X139877276Y-42314542D01*
X139869039Y-42326870D01*
X139856711Y-42335107D01*
X139842169Y-42338000D01*
X135842169Y-42338000D01*
X135827627Y-42335107D01*
X135815299Y-42326870D01*
X135807062Y-42314542D01*
X135804169Y-42300000D01*
X135804169Y-38300000D01*
X135807062Y-38285458D01*
X135815299Y-38273130D01*
X135827627Y-38264893D01*
X135842169Y-38262000D01*
X139842169Y-38262000D01*
X139856711Y-38264893D01*
G37*
G36*
X148256812Y-38304627D02*
G01*
X148524654Y-38379672D01*
X148779782Y-38490490D01*
X149017443Y-38635015D01*
X149233212Y-38810556D01*
X149423069Y-39013843D01*
X149583476Y-39241088D01*
X149711446Y-39488059D01*
X149804594Y-39750154D01*
X149861187Y-40022492D01*
X149880169Y-40300000D01*
X149861187Y-40577508D01*
X149804594Y-40849846D01*
X149711446Y-41111941D01*
X149583476Y-41358912D01*
X149423069Y-41586157D01*
X149233212Y-41789444D01*
X149017443Y-41964985D01*
X148779782Y-42109510D01*
X148524654Y-42220328D01*
X148256812Y-42295373D01*
X147981247Y-42333249D01*
X147703091Y-42333249D01*
X147427526Y-42295373D01*
X147159684Y-42220328D01*
X146904556Y-42109510D01*
X146666895Y-41964985D01*
X146451126Y-41789444D01*
X146261269Y-41586157D01*
X146100862Y-41358912D01*
X145972892Y-41111941D01*
X145879744Y-40849846D01*
X145823151Y-40577508D01*
X145804169Y-40300000D01*
X145823151Y-40022492D01*
X145879744Y-39750154D01*
X145972892Y-39488059D01*
X146100862Y-39241088D01*
X146261269Y-39013843D01*
X146451126Y-38810556D01*
X146666895Y-38635015D01*
X146904556Y-38490490D01*
X147159684Y-38379672D01*
X147427526Y-38304627D01*
X147703091Y-38266751D01*
X147981247Y-38266751D01*
X148256812Y-38304627D01*
G37*
G36*
X76215938Y-39219650D02*
G01*
X76220653Y-39221732D01*
X76223326Y-39222084D01*
X76256770Y-39237679D01*
X76312759Y-39262401D01*
X76387599Y-39337241D01*
X76412330Y-39393251D01*
X76427915Y-39426673D01*
X76428266Y-39429343D01*
X76430350Y-39434062D01*
X76438000Y-39500000D01*
X76438000Y-41500000D01*
X76430350Y-41565938D01*
X76428266Y-41570656D01*
X76427915Y-41573326D01*
X76412338Y-41606730D01*
X76387599Y-41662759D01*
X76312759Y-41737599D01*
X76256730Y-41762338D01*
X76223326Y-41777915D01*
X76220656Y-41778266D01*
X76215938Y-41780350D01*
X76150000Y-41788000D01*
X74850000Y-41788000D01*
X74784062Y-41780350D01*
X74779343Y-41778266D01*
X74776673Y-41777915D01*
X74743251Y-41762330D01*
X74687241Y-41737599D01*
X74612401Y-41662759D01*
X74587679Y-41606770D01*
X74572084Y-41573326D01*
X74571732Y-41570653D01*
X74569650Y-41565938D01*
X74562000Y-41500000D01*
X74562000Y-39500000D01*
X74569650Y-39434062D01*
X74571732Y-39429346D01*
X74572084Y-39426673D01*
X74587687Y-39393210D01*
X74612401Y-39337241D01*
X74687241Y-39262401D01*
X74743210Y-39237687D01*
X74776673Y-39222084D01*
X74779346Y-39221732D01*
X74784062Y-39219650D01*
X74850000Y-39212000D01*
X76150000Y-39212000D01*
X76215938Y-39219650D01*
G37*
G36*
X80290596Y-36980935D02*
G01*
X80525268Y-37037275D01*
X80748237Y-37129632D01*
X80954014Y-37255732D01*
X81137530Y-37412470D01*
X81294268Y-37595986D01*
X81420368Y-37801763D01*
X81512725Y-38024732D01*
X81569065Y-38259404D01*
X81588000Y-38500000D01*
X81569065Y-38740596D01*
X81512725Y-38975268D01*
X81420368Y-39198237D01*
X81294268Y-39404014D01*
X81137530Y-39587530D01*
X80954014Y-39744268D01*
X80748237Y-39870368D01*
X80525268Y-39962725D01*
X80290596Y-40019065D01*
X80050000Y-40038000D01*
X79809404Y-40019065D01*
X79574732Y-39962725D01*
X79351763Y-39870368D01*
X79145986Y-39744268D01*
X78962470Y-39587530D01*
X78805732Y-39404014D01*
X78679632Y-39198237D01*
X78587275Y-38975268D01*
X78530935Y-38740596D01*
X78512000Y-38500000D01*
X78530935Y-38259404D01*
X78587275Y-38024732D01*
X78679632Y-37801763D01*
X78805732Y-37595986D01*
X78962470Y-37412470D01*
X79145986Y-37255732D01*
X79351763Y-37129632D01*
X79574732Y-37037275D01*
X79809404Y-36980935D01*
X80050000Y-36962000D01*
X80290596Y-36980935D01*
G37*
G36*
X76215938Y-35219650D02*
G01*
X76220653Y-35221732D01*
X76223326Y-35222084D01*
X76256770Y-35237679D01*
X76312759Y-35262401D01*
X76387599Y-35337241D01*
X76412330Y-35393251D01*
X76427915Y-35426673D01*
X76428266Y-35429343D01*
X76430350Y-35434062D01*
X76438000Y-35500000D01*
X76438000Y-37500000D01*
X76430350Y-37565938D01*
X76428266Y-37570656D01*
X76427915Y-37573326D01*
X76412338Y-37606730D01*
X76387599Y-37662759D01*
X76312759Y-37737599D01*
X76256730Y-37762338D01*
X76223326Y-37777915D01*
X76220656Y-37778266D01*
X76215938Y-37780350D01*
X76150000Y-37788000D01*
X74850000Y-37788000D01*
X74784062Y-37780350D01*
X74779343Y-37778266D01*
X74776673Y-37777915D01*
X74743251Y-37762330D01*
X74687241Y-37737599D01*
X74612401Y-37662759D01*
X74587679Y-37606770D01*
X74572084Y-37573326D01*
X74571732Y-37570653D01*
X74569650Y-37565938D01*
X74562000Y-37500000D01*
X74562000Y-35500000D01*
X74569650Y-35434062D01*
X74571732Y-35429346D01*
X74572084Y-35426673D01*
X74587687Y-35393210D01*
X74612401Y-35337241D01*
X74687241Y-35262401D01*
X74743210Y-35237687D01*
X74776673Y-35222084D01*
X74779346Y-35221732D01*
X74784062Y-35219650D01*
X74850000Y-35212000D01*
X76150000Y-35212000D01*
X76215938Y-35219650D01*
G37*
G36*
X66090596Y-30980935D02*
G01*
X66325268Y-31037275D01*
X66548237Y-31129632D01*
X66754014Y-31255732D01*
X66937530Y-31412470D01*
X67094268Y-31595986D01*
X67220368Y-31801763D01*
X67312725Y-32024732D01*
X67369065Y-32259404D01*
X67388000Y-32500000D01*
X67369065Y-32740596D01*
X67312725Y-32975268D01*
X67220368Y-33198237D01*
X67094268Y-33404014D01*
X66937530Y-33587530D01*
X66754014Y-33744268D01*
X66548237Y-33870368D01*
X66325268Y-33962725D01*
X66090596Y-34019065D01*
X65850000Y-34038000D01*
X65609404Y-34019065D01*
X65374732Y-33962725D01*
X65151763Y-33870368D01*
X64945986Y-33744268D01*
X64762470Y-33587530D01*
X64605732Y-33404014D01*
X64479632Y-33198237D01*
X64387275Y-32975268D01*
X64330935Y-32740596D01*
X64312000Y-32500000D01*
X64330935Y-32259404D01*
X64387275Y-32024732D01*
X64479632Y-31801763D01*
X64605732Y-31595986D01*
X64762470Y-31412470D01*
X64945986Y-31255732D01*
X65151763Y-31129632D01*
X65374732Y-31037275D01*
X65609404Y-30980935D01*
X65850000Y-30962000D01*
X66090596Y-30980935D01*
G37*
G36*
X78290596Y-30980935D02*
G01*
X78525268Y-31037275D01*
X78748237Y-31129632D01*
X78954014Y-31255732D01*
X79137530Y-31412470D01*
X79294268Y-31595986D01*
X79420368Y-31801763D01*
X79512725Y-32024732D01*
X79569065Y-32259404D01*
X79588000Y-32500000D01*
X79569065Y-32740596D01*
X79512725Y-32975268D01*
X79420368Y-33198237D01*
X79294268Y-33404014D01*
X79137530Y-33587530D01*
X78954014Y-33744268D01*
X78748237Y-33870368D01*
X78525268Y-33962725D01*
X78290596Y-34019065D01*
X78050000Y-34038000D01*
X77809404Y-34019065D01*
X77574732Y-33962725D01*
X77351763Y-33870368D01*
X77145986Y-33744268D01*
X76962470Y-33587530D01*
X76805732Y-33404014D01*
X76679632Y-33198237D01*
X76587275Y-32975268D01*
X76530935Y-32740596D01*
X76512000Y-32500000D01*
X76530935Y-32259404D01*
X76587275Y-32024732D01*
X76679632Y-31801763D01*
X76805732Y-31595986D01*
X76962470Y-31412470D01*
X77145986Y-31255732D01*
X77351763Y-31129632D01*
X77574732Y-31037275D01*
X77809404Y-30980935D01*
X78050000Y-30962000D01*
X78290596Y-30980935D01*
G37*
G36*
X90880148Y-25821102D02*
G01*
X91216019Y-25878169D01*
X91543388Y-25972482D01*
X91858139Y-26102857D01*
X92156313Y-26267652D01*
X92434162Y-26464796D01*
X92688190Y-26691810D01*
X92915204Y-26945838D01*
X93112348Y-27223687D01*
X93277143Y-27521861D01*
X93407518Y-27836612D01*
X93501831Y-28163981D01*
X93558898Y-28499852D01*
X93578000Y-28840000D01*
X93558898Y-29180148D01*
X93501831Y-29516019D01*
X93407518Y-29843388D01*
X93277143Y-30158139D01*
X93112348Y-30456313D01*
X92915204Y-30734162D01*
X92688190Y-30988190D01*
X92434162Y-31215204D01*
X92156313Y-31412348D01*
X91858139Y-31577143D01*
X91543388Y-31707518D01*
X91216019Y-31801831D01*
X90880148Y-31858898D01*
X90540000Y-31878000D01*
X90199852Y-31858898D01*
X89863981Y-31801831D01*
X89536612Y-31707518D01*
X89221861Y-31577143D01*
X88923687Y-31412348D01*
X88645838Y-31215204D01*
X88391810Y-30988190D01*
X88164796Y-30734162D01*
X87967652Y-30456313D01*
X87802857Y-30158139D01*
X87672482Y-29843388D01*
X87578169Y-29516019D01*
X87521102Y-29180148D01*
X87502000Y-28840000D01*
X87521102Y-28499852D01*
X87578169Y-28163981D01*
X87672482Y-27836612D01*
X87802857Y-27521861D01*
X87967652Y-27223687D01*
X88164796Y-26945838D01*
X88391810Y-26691810D01*
X88645838Y-26464796D01*
X88923687Y-26267652D01*
X89221861Y-26102857D01*
X89536612Y-25972482D01*
X89863981Y-25878169D01*
X90199852Y-25821102D01*
X90540000Y-25802000D01*
X90880148Y-25821102D01*
G37*
G36*
X101880148Y-25821102D02*
G01*
X102216019Y-25878169D01*
X102543388Y-25972482D01*
X102858139Y-26102857D01*
X103156313Y-26267652D01*
X103434162Y-26464796D01*
X103688190Y-26691810D01*
X103915204Y-26945838D01*
X104112348Y-27223687D01*
X104277143Y-27521861D01*
X104407518Y-27836612D01*
X104501831Y-28163981D01*
X104558898Y-28499852D01*
X104578000Y-28840000D01*
X104558898Y-29180148D01*
X104501831Y-29516019D01*
X104407518Y-29843388D01*
X104277143Y-30158139D01*
X104112348Y-30456313D01*
X103915204Y-30734162D01*
X103688190Y-30988190D01*
X103434162Y-31215204D01*
X103156313Y-31412348D01*
X102858139Y-31577143D01*
X102543388Y-31707518D01*
X102216019Y-31801831D01*
X101880148Y-31858898D01*
X101540000Y-31878000D01*
X101199852Y-31858898D01*
X100863981Y-31801831D01*
X100536612Y-31707518D01*
X100221861Y-31577143D01*
X99923687Y-31412348D01*
X99645838Y-31215204D01*
X99391810Y-30988190D01*
X99164796Y-30734162D01*
X98967652Y-30456313D01*
X98802857Y-30158139D01*
X98672482Y-29843388D01*
X98578169Y-29516019D01*
X98521102Y-29180148D01*
X98502000Y-28840000D01*
X98521102Y-28499852D01*
X98578169Y-28163981D01*
X98672482Y-27836612D01*
X98802857Y-27521861D01*
X98967652Y-27223687D01*
X99164796Y-26945838D01*
X99391810Y-26691810D01*
X99645838Y-26464796D01*
X99923687Y-26267652D01*
X100221861Y-26102857D01*
X100536612Y-25972482D01*
X100863981Y-25878169D01*
X101199852Y-25821102D01*
X101540000Y-25802000D01*
X101880148Y-25821102D01*
G37*
G36*
X112880148Y-25821102D02*
G01*
X113216019Y-25878169D01*
X113543388Y-25972482D01*
X113858139Y-26102857D01*
X114156313Y-26267652D01*
X114434162Y-26464796D01*
X114688190Y-26691810D01*
X114915204Y-26945838D01*
X115112348Y-27223687D01*
X115277143Y-27521861D01*
X115407518Y-27836612D01*
X115501831Y-28163981D01*
X115558898Y-28499852D01*
X115578000Y-28840000D01*
X115558898Y-29180148D01*
X115501831Y-29516019D01*
X115407518Y-29843388D01*
X115277143Y-30158139D01*
X115112348Y-30456313D01*
X114915204Y-30734162D01*
X114688190Y-30988190D01*
X114434162Y-31215204D01*
X114156313Y-31412348D01*
X113858139Y-31577143D01*
X113543388Y-31707518D01*
X113216019Y-31801831D01*
X112880148Y-31858898D01*
X112540000Y-31878000D01*
X112199852Y-31858898D01*
X111863981Y-31801831D01*
X111536612Y-31707518D01*
X111221861Y-31577143D01*
X110923687Y-31412348D01*
X110645838Y-31215204D01*
X110391810Y-30988190D01*
X110164796Y-30734162D01*
X109967652Y-30456313D01*
X109802857Y-30158139D01*
X109672482Y-29843388D01*
X109578169Y-29516019D01*
X109521102Y-29180148D01*
X109502000Y-28840000D01*
X109521102Y-28499852D01*
X109578169Y-28163981D01*
X109672482Y-27836612D01*
X109802857Y-27521861D01*
X109967652Y-27223687D01*
X110164796Y-26945838D01*
X110391810Y-26691810D01*
X110645838Y-26464796D01*
X110923687Y-26267652D01*
X111221861Y-26102857D01*
X111536612Y-25972482D01*
X111863981Y-25878169D01*
X112199852Y-25821102D01*
X112540000Y-25802000D01*
X112880148Y-25821102D01*
G37*
G36*
X123880148Y-25821102D02*
G01*
X124216019Y-25878169D01*
X124543388Y-25972482D01*
X124858139Y-26102857D01*
X125156313Y-26267652D01*
X125434162Y-26464796D01*
X125688190Y-26691810D01*
X125915204Y-26945838D01*
X126112348Y-27223687D01*
X126277143Y-27521861D01*
X126407518Y-27836612D01*
X126501831Y-28163981D01*
X126558898Y-28499852D01*
X126578000Y-28840000D01*
X126558898Y-29180148D01*
X126501831Y-29516019D01*
X126407518Y-29843388D01*
X126277143Y-30158139D01*
X126112348Y-30456313D01*
X125915204Y-30734162D01*
X125688190Y-30988190D01*
X125434162Y-31215204D01*
X125156313Y-31412348D01*
X124858139Y-31577143D01*
X124543388Y-31707518D01*
X124216019Y-31801831D01*
X123880148Y-31858898D01*
X123540000Y-31878000D01*
X123199852Y-31858898D01*
X122863981Y-31801831D01*
X122536612Y-31707518D01*
X122221861Y-31577143D01*
X121923687Y-31412348D01*
X121645838Y-31215204D01*
X121391810Y-30988190D01*
X121164796Y-30734162D01*
X120967652Y-30456313D01*
X120802857Y-30158139D01*
X120672482Y-29843388D01*
X120578169Y-29516019D01*
X120521102Y-29180148D01*
X120502000Y-28840000D01*
X120521102Y-28499852D01*
X120578169Y-28163981D01*
X120672482Y-27836612D01*
X120802857Y-27521861D01*
X120967652Y-27223687D01*
X121164796Y-26945838D01*
X121391810Y-26691810D01*
X121645838Y-26464796D01*
X121923687Y-26267652D01*
X122221861Y-26102857D01*
X122536612Y-25972482D01*
X122863981Y-25878169D01*
X123199852Y-25821102D01*
X123540000Y-25802000D01*
X123880148Y-25821102D01*
G37*
M02*
